<?xml version="1.0" standalone="no"?>
<!DOCTYPE svg PUBLIC "-//W3C//DTD SVG 1.1//EN" "http://www.w3.org/Graphics/SVG/1.1/DTD/svg11.dtd" >
<svg xmlns="http://www.w3.org/2000/svg" xmlns:xlink="http://www.w3.org/1999/xlink" version="1.1">
<metadata>
Created by FontForge 20200314 at Wed Jul 26 03:03:50 2017
 By Unknown
Copyright (c) 2017 by RVQ. All rights reserved.
</metadata>
<defs>
<font id="Skylight-Graffiti" horiz-adv-x="921" >
  <font-face 
    font-family="Skylight Graffiti"
    font-weight="400"
    font-stretch="normal"
    units-per-em="2048"
    panose-1="0 0 0 0 0 0 0 0 0 0"
    ascent="1536"
    descent="-512"
    x-height="1151"
    cap-height="1769"
    bbox="-252.897 -726.5 3641.86 2169.52"
    underline-thickness="0"
    underline-position="0"
    unicode-range="U+0020-E02C"
  />
<missing-glyph horiz-adv-x="675" 
 />
    <glyph glyph-name=".notdef" horiz-adv-x="675" 
 />
    <glyph glyph-name=".null" horiz-adv-x="0" 
 />
    <glyph glyph-name="glyph2" horiz-adv-x="681" 
 />
    <glyph glyph-name="space" unicode=" " horiz-adv-x="675" 
 />
    <glyph glyph-name="exclam" unicode="!" horiz-adv-x="473" 
d="M422 1366q-110 -257 -181 -618q-71 -359 -63 -625q0 -34 -23.5 -44t-52.5 7q-39 18 -51 135q-23 270 62 795q13 96 31 197q17 102 27 167q9 56 7 74q-10 68 72 111q86 44 151 6q87 -47 21 -205zM63 -39q21 21 56 25q61 10 88 -26q25 -36 18 -87q-11 -79 -49 -92
q-42 -12 -78 4.5t-52 49.5q-16 31 -12.5 67.5t29.5 58.5z" />
    <glyph glyph-name="quotedbl" unicode="&#x22;" horiz-adv-x="468" 
d="M346 1219q-57 -6 -93 108t-11 233q24 119 114 128q46 4 72 -9t0 -45q-6 -6 -10.5 -21t-5.5 -16q-61 -160 -15 -290l2 -2q2 -2 2 -5q1 -5 7.5 -12.5t12.5 -14.5t9.5 -14.5t0 -14t-16.5 -11.5q-50 -14 -68 -14zM184 1221q-57 -10 -103 87q-47 98 -33 207q14 110 104 123
q86 17 86 -16q0 -7 -11 -23q-12 -16 -12 -34q-47 -147 12 -260l2 -2q0 -3 2 -5q1 -2 19 -17q16 -13 17 -20q2 -8 -17 -20q-34 -15 -66 -20z" />
    <glyph glyph-name="numbersign" unicode="#" horiz-adv-x="1339" 
d="M662 1595q6 -30 -27 -96q-19 -38 -23 -49q-12 -26 -24 -84l-13 -59q-19 -77 -51 -228q246 -13 398 -22q6 -2 10 -2q11 83 32 208q16 93 28 175q9 56 7 75q-14 95 41 126q54 31 117 12q62 -21 70 -56q6 -31 -26 -96q-19 -38 -23 -49q-7 -15 -14 -39t-10.5 -42t-8 -39
t-4.5 -23q-24 -89 -58 -267q119 -10 129 -6q58 23 80 -28q23 -53 14 -116q-10 -64 -30 -75q-23 -2 -29 0q-4 1 -31 17q-6 3 -14.5 7.5t-13 7t-6.5 3.5q-8 3 -90 22q-6 0 -39 9q-32 -191 -58 -400q154 -14 164 -10q57 23 81 -28q24 -52 15 -116q-11 -65 -32 -75h-29
q-7 0 -30 16q-23 13 -34 19q-21 9 -92 22q-28 8 -59 15q-20 -209 -23 -347q0 -14 8 -76q8 -57 3 -98t-31 -63q-35 -32 -79 -36.5t-64 17.5q-46 27 -32 106q1 3 2.5 13t4 22t4.5 25q3 16 7.5 42t6.5 36q11 68 39 289q2 18 4.5 36t5 34.5t3.5 23.5q-226 31 -420 31
q-26 -241 -27 -402q0 -14 8 -76q8 -57 3 -98q-4 -40 -31 -63q-35 -32 -78.5 -36.5t-65.5 17.5q-43 26 -31 106q1 3 2.5 13t4 22t4.5 25q3 16 7.5 42t6.5 36q1 8 5 38t12.5 92t17.5 126q4 17 4 33q4 19 9 61q1 11 3.5 32t3.5 28q-4 0 -77 -6q-10 -1 -46 -15q-38 -14 -61 -13
q-27 2 -43 26q-47 74 -18 139q18 45 47 45q10 0 46 -6q41 -7 58 -8q31 -6 115 -9q4 27 14 101.5t15 112.5q2 13 26 198q-83 -6 -100 -8q-10 -1 -46 -15q-38 -14 -61 -13q-27 2 -43 26q-46 72 -18 139q18 45 46 45q9 0 45 -6q41 -7 58 -8q21 -2 140 -10q12 84 30 192
q24 157 25 162q8 56 6 69q-14 95 40 126t117 12q63 -21 71 -56zM858 494q1 11 55 413q-201 30 -413 35q-31 -162 -66 -422q422 -26 424 -26z" />
    <glyph glyph-name="dollar" unicode="$" horiz-adv-x="1783" 
d="M1417 1485q-3 -13 -7 -30t-6 -26t-3 -14q-43 -155 -82 -336q166 -124 264 -257q97 -132 111 -294q12 -197 -97 -387q-163 -276 -493 -399q4 -134 -37 -174q-32 -30 -68.5 -32t-52.5 22q-37 43 -16 137q-87 -14 -152 -17q-7 -62 -35 -88q-32 -29 -69 -30t-51 22
q-34 39 -21 109q-70 13 -141 37q-182 63 -297 193q-116 131 -141 296q-23 144 22 285q47 154 159 267q109 111 281 214q69 40 107 56t86 10q48 -8 88 -48q9 -9 17.5 -28t13 -43.5t-9 -47t-46.5 -32.5q-29 -10 -114 -21q-85 -12 -159 -42q-73 -31 -134 -103
q-119 -140 -134 -305q-16 -166 78 -305q92 -139 269 -201q55 -19 90 -23q41 222 72 400q6 34 170 913q-342 220 -416 228q-15 0 -29 8t-23 22t-1.5 39t34.5 53q24 24 43 44t39 40q10 9 29 26q27 23 62 33q20 5 38 5q119 -2 318 2v8q-4 87 67 137q59 41 97 0q35 -39 8 -141
h151q6 84 76 123q61 34 92 -12q25 -37 9 -115q96 -5 143 -6q22 -2 47 -2q2 6 2 10q4 45 29 71t58.5 28.5t66 -6.5t55 -33t22.5 -52q0 -18 -25 -52l-30 -42q-3 -6 -26 -51q-5 -13 -13 -25q-69 -144 -104 -352q-3 -26 -4 -59q-1 -38 -7 -72q-7 -31 -32.5 -50.5t-67.5 -13.5
q-32 4 -59.5 30.5t-36.5 57.5q-2 40 -1 45q2 12 17 38q17 32 23 53q1 6 20 67q28 100 29 103q23 62 9 90q-15 29 -97 39q-40 4 -74 6zM1028 1063l-37 24q-167 -759 -211 -1241v-10q96 0 187 25q1 7 6.5 38.5t10.5 57.5q12 67 27 145q13 70 21 123q15 82 137 740zM1276 881
q-118 -566 -164 -969q214 101 324 287q127 224 62 394q-31 82 -84 149.5t-138 138.5zM1092 1499q-2 -7 -5.5 -21.5t-6 -25.5t-3.5 -14q-21 -79 -41 -158l6 -6q9 -7 164 -113q25 137 66 334q-56 4 -180 4zM840 1507q-60 3 -82.5 -4.5t-7 -26.5t68.5 -49q49 -31 96 -63
q1 5 6.5 30t9.5 43q10 53 13 64q-47 2 -104 6z" />
    <glyph glyph-name="ampersand" unicode="&#x26;" horiz-adv-x="1894" 
d="M1026 1683q118 -11 209 -75q92 -66 119 -164q27 -96 24 -117q-11 -73 -71 -89q-62 -17 -95 42q-8 5 -5 48q3 41 1 61q-14 67 -84 117q-70 48 -149 46q-88 0 -166 -48t-96 -128q-19 -90 46 -145q66 -56 163 -66q56 -6 73 -44q15 -38 -7 -72q-23 -35 -58 -35
q-260 5 -466 -138t-251 -366q-51 -242 114 -440q164 -199 449 -238q251 -33 468 79q218 113 306 310q98 220 -22 441q-35 63 -55 65q-21 1 -87 -33q-61 -26 -185 -92t-154 -90q-10 -8 -35 -40q-27 -34 -52 -49q-26 -15 -53 -3q-49 22 -69 51q-39 51 5 105q43 52 91 75
q400 162 561 236q60 18 130 52q24 12 54 27.5t36 18.5q62 34 140 -37q37 -38 20 -84t-99 -53q-37 -6 -45 -8q-71 -12 -76 -21q0 -4 28 -53q5 -9 13 -20q106 -199 63 -404q-63 -305 -360 -486q-296 -181 -654 -134q-248 32 -428 167q-183 137 -254 332q-63 169 -26 351
q45 214 215 375q169 158 407 220q-127 116 -92 271q28 138 168 218q139 78 291 64z" />
    <glyph glyph-name="quotesingle" unicode="'" horiz-adv-x="253" 
d="M137 1219q-57 -6 -94 108q-38 113 -12 233q24 119 114 128q49 4 74 -9t-2 -45q-8 -8 -14 -37q-63 -160 -15 -290v-2q2 -2 2 -5q2 -4 8.5 -11.5t12.5 -14.5t10 -14.5t-0.5 -14.5t-17.5 -12q-50 -14 -66 -14z" />
    <glyph glyph-name="parenleft" unicode="(" horiz-adv-x="544" 
d="M539 1640q-67 -114 -125 -239q-180 -376 -198 -721q-19 -342 134 -735q11 -32 47 -81q36 -51 43 -69q33 -83 -24 -114q-69 -36 -112 30q-18 30 -36 72q-2 6 -4.5 11t-4 8.5t-1.5 4.5q-115 215 -166 433q-154 607 137 1161q124 234 242 385q62 80 92 90q59 17 88 -23
q17 -32 18.5 -47t-14.5 -41q-17 -22 -36 -40q-56 -50 -80 -85z" />
    <glyph glyph-name="parenright" unicode=")" horiz-adv-x="591" 
d="M63 -100q67 114 125 239q179 375 199 721q19 344 -135 735q-11 32 -47 81q-36 51 -43 69q-33 82 24 115q68 36 112 -31q18 -30 36 -72q2 -6 4.5 -11t4 -8.5t1.5 -4.5q115 -215 166 -433q154 -607 -137 -1161q-124 -234 -242 -385q-62 -80 -92 -90q-59 -17 -88 23
q-17 32 -18.5 47t14.5 41q17 22 36 40q56 50 80 85z" />
    <glyph glyph-name="asterisk" unicode="*" horiz-adv-x="632" 
d="M551 1354q-12 4 -47 10q-7 1 -38 5t-38 5q37 -35 68 -59l20 -12q42 -25 35 -62q-7 -43 -46 -60q-39 -18 -61 31q-1 2 -26 37q-33 45 -51 66q0 -60 2 -92q5 -91 -54 -105q-43 -10 -63 25q-10 18 2 41q4 11 10 45q2 7 6.5 35.5t5.5 33.5q-24 -18 -61 -57q-73 -72 -125 -37
q-34 26 -18 60q8 18 30 24q1 0 6 3t16 9.5t21 12.5q60 37 97 65q-70 -4 -127 -18q-54 -21 -59 -22q-10 -2 -27 12q-20 36 -20.5 56.5t20.5 32.5q34 19 67 19h13q20 0 45 -1q24 -1 61 -1q-28 22 -72 47l-27 9q-26 9 -34 14q-12 8 -8 24q10 36 29.5 53t41.5 12q40 -10 62 -32
l8 -8q15 -12 31 -27q9 -9 20 -19.5t13 -12.5q-11 51 -15 69q-25 85 25 96q41 8 67 -36q16 -25 15 -56q0 -19 -1 -40q-1 -22 -1 -56q37 42 53 70q53 78 94 49q35 -26 16 -76q-11 -23 -30 -41q-1 -1 -9.5 -8t-19.5 -16t-16 -13h51q2 0 20 4t25 5q33 3 51 -23q29 -34 16 -73
q-13 -40 -69 -17z" />
    <glyph glyph-name="plus" unicode="+" horiz-adv-x="899" 
d="M786 487q-13 6 -67 15q-85 16 -164 22q-29 2 -30 0q-1 -1 -1 -32q-2 -112 2 -207q6 -137 -71 -164q-53 -17 -88 29q-25 32 -5 75q7 18 15 68q20 92 26 196q2 35 0 37q-1 2 -36 0q-121 -6 -201 -28q-6 -2 -30.5 -14.5t-31.5 -15.5q-43 -18 -61 11q-58 101 -1 140
q46 30 95 30h21q36 0 85 -1q48 -1 124 -1q33 -2 36 1t0 38q-11 101 -26 160q-31 123 29 147q47 18 90 -37q35 -44 32 -104q0 -30 -1 -67t-1 -97q-4 -34 -1 -39q2 -4 34 -2q90 0 166 4q4 0 28 5.5t35 7.5q16 2 37 -8t35 -29q24 -32 26.5 -75.5t-21 -65t-79.5 0.5z" />
    <glyph glyph-name="comma" unicode="," horiz-adv-x="217" 
d="M113 -39q12 33 12 62l2 24q-2 0 -8 -10q-18 -33 -33 -29q-52 12 -69 49t6 76q27 69 67 70q54 2 82 -32t27 -77q0 -83 -52 -141q-20 -26 -34 -12q-6 6 0 20z" />
    <glyph glyph-name="hyphen" unicode="-" horiz-adv-x="899" 
d="M786 487q-13 6 -67 15q-304 59 -555 -4q-6 -2 -29 -14t-31 -16q-43 -18 -61 11q-58 101 -1 140q46 30 95 30h19q398 -8 569 2q2 0 13 2.5t26 6t24 4.5q16 2 37 -8t35 -29q39 -51 21 -113q-19 -61 -95 -27z" />
    <glyph glyph-name="period" unicode="." horiz-adv-x="219" 
d="M150 14q-23 -13 -58 -8q-54 6 -71 47t4 80q34 69 67 70q56 2 84 -37q29 -39 21 -86q-7 -48 -47 -66z" />
    <glyph glyph-name="slash" unicode="/" horiz-adv-x="786" 
d="M721 1454q-23 -44 -62 -139q-125 -291 -252 -667q-129 -383 -194 -660q-4 -14 -10 -80q-6 -65 -19 -103q-14 -41 -41 -59q-40 -22 -72 -16.5t-48 32.5q-26 39 -18 76q4 24 12 41q3 9 23 61t30 76q27 75 69 205q215 655 291 883q50 146 72 208q15 43 35.5 101t26.5 74
q21 62 22 78q8 86 82 118q66 29 98 -18q43 -64 -45 -211z" />
    <glyph glyph-name="zero" unicode="0" horiz-adv-x="1691" 
d="M289 1376q150 182 338 272q188 89 379 72q127 -11 256 -85q131 -77 231 -187q89 -96 135 -270t45 -370q-1 -192 -67 -404q-67 -210 -189 -361q-170 -207 -388 -293q-219 -86 -430 -35q-211 53 -366 234q-98 116 -155 272q-98 269 -42 591q55 321 253 564zM741 1264
q63 -302 155 -549q92 -251 239 -572q33 -86 77 -67q7 2 40 38q5 5 24 30t27 34q177 219 212 513q33 291 -92 515q-102 184 -262 262t-336 43q-69 -16 -94 -30.5t-26 -45.5q0 -26 4 -41q1 -4 15 -58q12 -48 17 -72zM975 51q-12 43 -124 330q-116 296 -194 539
q-52 163 -100 331q-29 91 -33 99q-12 12 -57 -37q-16 -16 -31 -33q-46 -51 -92 -123q-162 -248 -159 -550t173 -505q219 -258 500 -211q116 18 133 41q15 23 -16 119z" />
    <glyph glyph-name="one" unicode="1" horiz-adv-x="663" 
d="M711 1667q7 -35 -27 -105q-21 -44 -25 -51q-15 -37 -26 -93q-12 -57 -15 -62q-139 -565 -184 -1135q-10 -136 -12 -239q-2 -66 5 -73t50 9q72 23 105 4q42 -19 68 -62q24 -42 3 -81q-23 -39 -98 -45q-104 -7 -153 -29q-32 -13 -47 -23q-10 -5 -60 -40q-12 -9 -37 -26
t-35 -24q-11 -6 -36 -39q-29 -34 -54 -49q-26 -16 -53 -2q-61 32 -77.5 72t12.5 71q54 68 104 89q19 10 36.5 15.5t26.5 8t13 6.5q8 9 11 26q4 31 7 42q0 3 11 58q12 63 16 79q39 263 155 1114q2 15 6 35v17q-2 -2 -20 -35q-4 -6 -13.5 -23.5t-15.5 -28.5q-5 -9 -11 -18.5
t-8.5 -14t-2.5 -5.5q0 -2 -15 -45q-16 -42 -39 -68q-23 -25 -65 -31q-80 -12 -124 44q-43 55 42 128q162 123 330 533q5 11 6 24q-6 57 18 93q13 34 45 36l2 2q52 18 113 -4q62 -23 68 -55z" />
    <glyph glyph-name="two" unicode="2" horiz-adv-x="1744" 
d="M465 -135q107 8 301 15q196 8 362 30q41 6 51.5 24.5t-3.5 51.5q-4 20 -19 72q-1 3 -7 20t-12 32q-18 46 -21.5 63t0.5 54q8 32 34 54q20 18 61 20q42 2 70 -16q18 -14 24 -34.5t5.5 -54.5t1.5 -49q28 -179 106 -321q5 -9 20 -26t24 -32t7 -28q0 -65 -71 -121
q-74 -57 -117 -14q-21 21 -25 63v10q-2 7 -4.5 17t-4.5 17.5t-2 8.5q-2 3 -7 10q-7 4 -10 3.5t-15 -2t-24 -0.5q-225 -20 -571 -23q-324 -1 -392 -4q-37 3 -53 8.5t-33 26.5q-11 13 -45 66l-28 44q-27 41 -14 69q12 28 34 41q21 13 41 15q98 7 680 347q325 190 453 294
q330 272 260 588q-2 6 -2 8q-51 219 -278 311q-228 91 -497 1q-149 -52 -269 -148q-121 -97 -186 -212q-65 -117 -83 -240q-20 -125 39 -232q35 -68 94 -99t149 -41q80 -9 109 -20q41 -14 34 -48q-8 -36 -25 -62q-20 -28 -38 -43q-101 -79 -188 -42q-36 16 -86 54
q-133 101 -207 213q-74 113 -68 268q11 251 203 476q194 226 488 323q235 73 441.5 49.5t356.5 -142.5q150 -120 193 -304q45 -190 -39 -391q-86 -209 -298 -379q-101 -81 -198 -145q-100 -65 -223 -138q-51 -30 -118 -69.5t-76 -45.5q-233 -138 -277 -159q-168 -85 -47 -84
q9 0 39 2z" />
    <glyph glyph-name="three" unicode="3" horiz-adv-x="1716" 
d="M1217 1526q-28 -1 -106.5 -4.5t-130.5 -6.5q-150 -7 -259 -15q-108 -7 -238 -21q-45 -7 -58.5 -17t-7.5 -29q2 -15 20 -36q3 -4 9.5 -12.5t14.5 -20t10 -14.5q27 -40 33 -49q8 -13 25 -50q27 -64 -23 -121q-17 -20 -57 -29q-41 -9 -72 7q-34 16 -40 83q-3 31 -9 48
q-17 55 -86 168q-68 111 -66 135q1 73 31 97t77 18q1 0 59 -7t81 -5q500 37 1040 49q53 0 80 -42q6 -10 31 -54q19 -39 39 -66q28 -43 18 -70q-12 -28 -33 -40q-23 -14 -40 -15q-114 -7 -555 -274q249 -6 433 -133q185 -128 240 -336q76 -284 -110 -561q-187 -276 -529 -386
q-236 -69 -441.5 -40t-359.5 152q-155 125 -204 310q-23 75 -16 173q6 100 51 157q55 70 141 43q49 -17 58.5 -57t-15.5 -85q-58 -118 -25 -223q78 -198 300 -281q221 -81 470 1q290 90 433 330q123 206 67 409q-51 193 -235 293q-183 100 -416 68q-3 -1 -28 -13.5
t-30 -13.5q-76 -13 -113 31q-38 46 -32 101q6 56 43 75q10 6 44 22q30 13 46 23q356 213 436 252q159 80 52 82q-20 2 -47 0z" />
    <glyph glyph-name="four" unicode="4" horiz-adv-x="1179" 
d="M1155 1667q7 -37 -26 -105q-16 -31 -25 -51q-9 -21 -41 -155q-67 -279 -117 -600q-14 -58 -12 -68q0 -14 24 -10l15 2q4 0 10 8.5t10 9.5q117 27 166 -16q37 -33 48 -81t-21 -78q-32 -31 -105 -15q-14 2 -94 2q-68 0 -72 -4q-5 -4 -12 -72q-37 -297 -39 -512q0 -20 9 -82
q7 -62 3 -105q-6 -44 -34 -69q-38 -34 -84.5 -38t-69.5 20q-51 27 -36 112q4 26 13 66q9 46 15 84q15 95 43 311q3 18 16 108q11 90 13 101q10 58 7 66q-3 6 -57 0q-255 -28 -466 -107q-12 -5 -35 -20q-25 -17 -42 -27q-15 -9 -44 -14q-27 -4 -41 16q-57 51 -54 96
q-14 71 17 131q28 67 174 454q154 406 197 531q4 16 7 36q4 28 11 50t27.5 44.5t48.5 31.5q78 26 134 -24t-15 -135q-13 -13 -50 -80q-84 -139 -181 -401q-96 -258 -136 -439q-14 -68 -12 -71q1 -3 65 5q298 44 375 56q86 13 94 22q8 8 17 82q0 7 2 25q4 27 45 325
q12 101 33 225q24 153 29 190q9 62 7 81q-14 101 46 135q59 35 126 14q67 -23 74 -61z" />
    <glyph glyph-name="five" unicode="5" horiz-adv-x="1384" 
d="M422 1511q-47 -53 -80 -141q-34 -91 -90 -293q181 164 396 206q217 42 405 -58q246 -135 300 -445q54 -311 -114 -614q-111 -197 -289 -326q-176 -128 -360 -147t-357 65q-74 39 -133 106q-58 67 -65 136q-8 86 71 125q47 29 80 2t48 -67q12 -37 49 -91q35 -52 84 -71
q185 -78 396 14q209 91 337 309q2 2 4.5 7.5t3.5 7.5q131 239 89 480q-42 243 -234 349q-170 90 -369 32q-200 -59 -342 -237q-3 -4 -12 -29.5t-11 -27.5q-51 -61 -103 -58q-51 3 -89 45q-37 40 -23 78q1 7 17 43q13 33 18 50q3 10 14 51.5t18 68.5q13 52 31 111
q17 55 38 108q24 59 26 91q38 125 51 165q1 44 25 93q23 46 41 47q316 12 827 10q34 0 90 9q20 3 47 7.5t34 5.5q29 3 51 -23.5t28 -82.5q4 -49 -33 -88t-88 -43q-30 0 -81 25q-54 25 -101 26q-219 10 -526 4q-44 0 -65 3q-4 1 -15 -3q-13 -5 -39 -35z" />
    <glyph glyph-name="six" unicode="6" horiz-adv-x="1667" 
d="M764 1126q306 55 559 -82q252 -136 315 -399q68 -284 -116 -547q-185 -264 -514 -356q-330 -90 -611 45q-282 135 -352 418q0 1 -1 7t-1 9q-33 148 4 306q38 160 106 283q67 124 189 270q121 145 205 229t207 198q94 85 129 123q100 96 160 88q59 -8 86 -62
q26 -55 16 -108q-3 -21 -19.5 -28.5t-55.5 -13.5q-33 -5 -52 -15q-157 -77 -406 -344q-57 -58 -22 -60q6 0 131 29q6 1 21 4.5t22 5.5zM207 250q55 -225 280 -334q222 -109 486 -35q305 84 446 342q74 131 70 271q-2 123 -55.5 224.5t-143.5 163.5q-88 60 -198 90
q-111 29 -232 21t-231 -53q-214 -84 -344 -277q-131 -194 -78 -413z" />
    <glyph glyph-name="seven" unicode="7" horiz-adv-x="1206" 
d="M340 1309q51 -104 45 -152q-4 -42 -39 -74q-25 -17 -62.5 -19t-70.5 17q-18 15 -23.5 38t-3.5 46.5t-2 51.5q-19 114 -29 136q-1 3 -6.5 15t-11.5 24l-6.5 13t-4.5 8q-1 2 -8 14.5t-14.5 27t-9.5 18.5q-1 1 -35 43q-49 43 -43 96q1 125 108 107q9 -1 40 -5.5t56.5 -7
t43.5 -2.5q471 20 783 18q38 0 96 -43t57 -77q-3 -31 -56 -91q-34 -40 -38 -45q-26 -33 -52 -81q-30 -53 -30 -54q-109 -191 -207 -391q-3 -7 -12 -25q-15 -27 -12 -31.5t36 -2.5q18 2 23 2q7 1 42.5 2t43.5 2l45 10q92 20 139 -35q25 -26 33.5 -62.5t-3 -65t-43.5 -41.5
t-87 9q-17 6 -94 15q-4 1 -32 4.5t-47 6.5q-48 8 -69 9q-49 6 -55 3t-27 -46q-205 -448 -290 -731q-6 -18 -15 -81q-11 -62 -27 -102q-17 -39 -53 -56q-51 -20 -90.5 -13t-60.5 37q-16 23 -20.5 36.5t1.5 40.5q7 23 15 41q0 1 31 60q7 13 13.5 26.5t14 28t10.5 21.5
q41 88 99 219q4 9 14 32t32 72.5t41 92.5q78 180 115 262q25 50 23 54q-1 3 -57 -5q-3 -1 -52 -11q-9 -2 -21 -4.5t-19.5 -4l-12.5 -2.5q-4 -1 -83 -36q-20 -10 -45.5 -7t-39.5 20q-79 113 0 157q71 38 131 38h13t31.5 -0.5t43 -1t51.5 -0.5h52q67 0 75 8q3 3 31 65
q11 27 31 71q20 47 27 60q34 77 110 234q72 148 84 178q35 75 26 79q-9 5 -104 -3q-289 -10 -499 -27q-20 -1 -52 -10q17 -125 68 -223z" />
    <glyph glyph-name="eight" unicode="8" horiz-adv-x="1796" 
d="M1059 1720q156 -16 255 -120q99 -106 62 -248q-32 -119 -141 -197q285 -92 431 -320q146 -230 83 -493q-72 -306 -375 -487q-302 -181 -657 -134q-246 33 -424 169q-177 136 -244 331q-55 172 -14 350q51 215 226 375t415 223q-125 111 -86 269q34 138 175 218
q139 78 294 64zM1538 256q70 140 44 282q-25 139 -109 253q-84 112 -226 184q-141 71 -305 76q-260 5 -470 -138q-211 -143 -263 -366q-57 -242 102 -440q157 -199 443 -238q247 -33 469 77q221 111 315 310zM965 1200q81 2 151 39t103 102q45 90 -33 170t-182 78
q-88 0 -168 -48t-101 -128q-26 -98 52 -154q77 -58 178 -59z" />
    <glyph glyph-name="nine" unicode="9" horiz-adv-x="1691" 
d="M870 301q-309 -55 -552 82q-242 137 -287 399q-47 284 157 547q202 264 539 357q231 55 426 17t333 -167t169 -313q47 -271 -151 -544q-99 -137 -186 -231q-87 -96 -224 -227l-10.5 -10.5t-19.5 -18.5t-24 -23q-43 -41 -56 -53q-25 -25 -49 -48q-36 -35 -50 -50l-15 -17
q-16 -17 -26 -28q-35 -37 -74 -89q-36 -47 -55 -87q-57 -94 -116 -91q-60 3 -105 55t-31 89q16 34 80 75q14 9 30 19.5t19 12.5q45 33 119 113q88 83 188 180l72 72q0 4 -45 -9q-28 -7 -56 -12zM1491 1178q-39 225 -256 334q-217 108 -483 34q-236 -63 -393 -237
q-159 -175 -169 -375q-6 -124 39.5 -225.5t131.5 -162.5q86 -62 193 -90q108 -30 229.5 -22t236.5 53q218 84 364 278q144 194 107 413z" />
    <glyph glyph-name="colon" unicode=":" horiz-adv-x="249" 
d="M172 754q-22 -12 -57 -9q-58 6 -74 48q-18 41 4 84q16 35 32.5 52.5t35.5 16.5q58 2 87 -38q28 -40 21 -88t-49 -66zM172 299q-23 -12 -57 -8q-58 6 -74 48q-18 43 4 83q31 70 68 70q58 2 87 -38q28 -40 21 -88t-49 -67z" />
    <glyph glyph-name="semicolon" unicode=";" horiz-adv-x="237" 
d="M172 758q-26 -12 -59 -8q-56 6 -73 47q-16 41 3 84q31 70 70 69q58 2 87 -38q28 -40 21 -88t-49 -66zM135 248q7 34 12 63l3 25q-1 0 -9 -8q-20 -38 -35 -33q-52 12 -69.5 51t4.5 80q31 70 70 70q53 2 83.5 -30t28.5 -81q0 -34 -16 -78q-15 -42 -37 -67q-19 -25 -35 -13
q-6 7 0 21z" />
    <glyph glyph-name="less" unicode="&#x3c;" horiz-adv-x="915" 
d="M737 827q-29 0 -65 -18q-223 -63 -400 -186q360 -98 494 -125q10 0 27.5 -1t35 -2.5t35 -15t27.5 -39.5q23 -63 -9 -116q-32 -54 -98 0q-11 11 -61 30q-289 137 -537 133q-11 0 -25.5 -2.5t-29.5 -6.5t-21 -5q-38 -6 -71 43q-31 31 -22 80q7 49 71 78l16 8
q296 142 504 262q4 2 23 18t27 21q15 11 36 13t45 -11q26 -11 46 -37t25.5 -52.5t-13 -47t-60.5 -21.5z" />
    <glyph glyph-name="equal" unicode="=" horiz-adv-x="905" 
d="M791 614q-18 7 -68 15q-302 59 -553 -4q-6 -2 -30.5 -14.5t-31.5 -15.5q-43 -18 -61 11q-58 101 -1 140q46 30 97 30h19q396 -8 567 2q3 0 14 2.5t26 5.5t23 5q16 2 37 -8t35 -29q23 -33 25.5 -76t-20.5 -64.5t-78 0.5zM791 383q-19 8 -68 14q-302 59 -553 -4
q-9 -2 -62 -29q-42 -20 -61 13q-58 100 -1 137q48 31 97 31h19q396 -8 567 2q4 0 28.5 5.5t34.5 6.5q16 2 37.5 -7.5t34.5 -29.5q23 -33 25.5 -76t-20.5 -64.5t-78 1.5z" />
    <glyph glyph-name="greater" unicode="&#x3e;" horiz-adv-x="915" 
d="M176 438q24 0 66 19q224 63 399 186q-360 98 -494 125q-10 0 -27.5 1t-34.5 2.5t-34.5 15t-27.5 38.5q-23 63 9 117q31 52 97 0q11 -10 61 -31q289 -137 537 -133q11 0 26 3t30.5 7t20.5 5q36 6 70 -43q30 -30 23 -80t-72 -78l-16 -8q-296 -142 -504 -262q-4 -2 -23 -18
t-26 -21q-15 -11 -36.5 -14t-45.5 12q-26 11 -46 37t-25.5 52.5t13 47t60.5 20.5z" />
    <glyph glyph-name="question" unicode="?" horiz-adv-x="962" 
d="M340 -39q27 24 57 25q59 11 86 -26q27 -35 19 -87q-11 -79 -49 -92q-42 -12 -78 4.5t-52 49.5q-17 31 -13 67.5t30 58.5zM35 1145q-5 231 198 356q172 109 377 82q202 -25 279 -168q57 -111 12 -266q-28 -96 -96.5 -207t-176.5 -255q-95 -125 -139 -202
q-86 -156 -61 -381q4 -25 -13.5 -35t-39.5 -0.5t-29 31.5q-22 58 -33 121q-14 119 23 232q33 114 157 303q123 190 162 288q113 277 -14 371q-91 68 -238 10q-144 -57 -206 -180q-22 -46 -27 -98q-5 -41 21 -80q25 -40 48 -62q23 -24 27 -64t-39 -83q-57 -26 -104 27
q-42 45 -64 118q-24 73 -24 142z" />
    <glyph glyph-name="at" unicode="@" horiz-adv-x="1964" 
d="M1530 379q132 99 202 300q70 203 60 378q-11 183 -88 308t-200 178q-119 51 -267 53q-144 1 -298 -56q-153 -57 -286 -160q-256 -195 -379 -493q-96 -236 -84 -479q23 -410 284 -565q260 -154 659 16q25 12 86 67q62 58 98 78q57 24 99 1.5t57 -73.5q11 -31 -1.5 -68
t-44.5 -63q-158 -137 -488 -173q-331 -36 -521 69q-292 168 -369 524q-84 399 113 803q140 296 411 489q155 113 334 174.5t357 64.5q176 3 331 -86q154 -88 246 -265q87 -166 98 -361q12 -226 -76 -447t-268 -339q-141 -92 -255 -99q-115 -7 -170 88q-56 95 -15 285
q-72 -163 -188 -323q-102 -131 -211 -125q-93 1 -152 94q-40 59 -41 135q-12 196 94 420q123 253 306 383q82 59 221 37q62 0 90 -4q27 59 108 65q78 6 97 -45q13 -41 -27 -102q-14 -19 -37 -88q-226 -712 -18 -668q54 11 133 72zM1149 1010q-133 6 -275 -219
q-156 -244 -145 -424q1 -40 23 -68q14 -21 51 -25q83 -2 184 170q102 173 180 355q24 61 48 105q23 46 18 66q-4 18 -22 27.5t-62 12.5z" />
    <glyph glyph-name="A" unicode="A" horiz-adv-x="1572" 
d="M807 449q-161 -341 -260 -570q-54 -125 -88 -258q-27 -106 -74 -115q-94 -13 -127 9q-38 18 -58 74q-20 58 -14 89q8 49 17 266q7 222 6 390v49q-4 4 -31 -8q-92 -38 -127 -10q-69 53 -43 118q16 43 46 55q34 12 110 19q24 2 29 2q1 38 37 69q36 30 77 34q73 14 99 -39
q5 -12 6 -25q0 -8 2 -8.5t18 2.5q10 2 14 2q91 12 203 27q41 6 51 12q9 6 27 45q436 883 467 967q16 43 46 69.5t65.5 35t71 6t69.5 -14.5q44 -15 75 -36.5t35 -37.5q6 -35 -28 -102q-18 -35 -23 -54q-73 -217 -149 -725q-10 -53 -10 -59q0 -25 20 -39q43 -31 43 -74
q-5 -78 -55 -96q-11 -4 -13 -4q-25 -6 -26 -16v-15q0 -14 -2 -32q-5 -41 -15 -130q-10 -80 -12 -100q-12 -129 -18 -231q-2 -23 12 -79q14 -58 10 -102q-4 -45 -45 -75q-92 -57 -158 -4q-21 17 -29.5 42.5t-5.5 46.5q3 19 12 57q10 41 11 54q15 85 40 272q27 198 34 244
q10 56 10 58q0 8 -7.5 10t-29.5 2q-165 -5 -239 -10h-11q-40 -5 -47 -17q0 -1 -1.5 -3t-3.5 -6t-3 -7q-2 -5 -5.5 -13.5t-4.5 -10.5zM1196 1227q-90 -163 -258 -504q-5 -9 -18 -35q-13 -22 -11 -26q3 -6 37 0q14 2 17 2q83 9 139 14q74 8 80 18q3 4 14 80q0 5 2 15
q6 43 32 196q31 194 34 213q23 168 20 172q-1 4 -14 -14l-2 -2q-9 -12 -72 -129zM367 377q-13 -135 -15 -332q0 -103 2 -105l2 3q3 3 7 10t9.5 17.5t13.5 25t17 31.5q32 66 199 399q9 18 14 29q10 19 8.5 21t-28.5 -3q-8 0 -16 -2q-116 -18 -160 -29q-40 -8 -45 -18
q-2 -2 -8 -47z" />
    <glyph glyph-name="B" unicode="B" horiz-adv-x="1779" 
d="M750 1485q-175 -11 -263 -23q-50 -6 -103 -34q-55 -29 -85 -29q-51 -2 -87 37t-27 90q16 98 64 115q34 11 114 2q40 -4 71 -3q280 20 856 22q167 1 312 1q35 -3 51 -9.5t34 -28.5q9 -11 19 -26q0 -1 7.5 -14.5t14.5 -24.5q13 -26 23 -44q33 -55 1 -88q-32 -34 -69 -35
q-113 -8 -577 -269q245 -7 419 -133q172 -124 210 -329q49 -279 -164 -551q-212 -272 -563 -382q-351 -108 -634 15t-333 401q-2 14 -8 76q-7 211 129 417q137 207 368 337q63 37 50 52q-6 7 16 32q105 305 113 358q1 42 41 68zM678 811q-23 -107 -35 -209q0 -60 -1 -87
q-1 -23 -13 -43.5t-33 -29.5q-131 -37 -156 55q-22 77 2 138q2 6 6 15t9.5 22.5t9.5 23.5q27 61 18 62q-11 2 -61 -47q-116 -111 -168 -246q-53 -137 -31 -264q41 -219 263 -314q220 -94 493 -10q275 83 441 295q167 214 128 432q-39 216 -260 314q-220 96 -495 12
q-77 -22 -90 -35q-13 -12 -27 -84zM1354 1509q-58 -3 -190 -7q-145 -4 -279 -11q88 -45 4 -145q-35 -50 -45 -82q-57 -113 -49 -118t118 54q71 36 212 115q153 85 216 115q179 83 46 81h-3q-8 0 -30 -2z" />
    <glyph glyph-name="C" unicode="C" horiz-adv-x="1413" 
d="M981 1331q-289 -201 -503 -466q-215 -266 -238 -519q-18 -194 75 -330q93 -137 289 -137q172 0 280 108q107 110 122 265q4 42 -24 102q-12 23 -17 43q-8 23 18 61q26 39 53 50q27 16 68 1q42 -16 67 -67q40 -74 23 -184q-25 -190 -180 -361q-79 -85 -194 -136
q-117 -52 -257 -52q-240 0 -379 145t-159 367q-5 57 0 113q11 175 109 367q99 192 250 358t323 305q169 136 342 233q15 8 38 21q22 12 30 17t21 16q15 12 17 20q22 55 21 115q5 68 79 78q76 12 121 -35q47 -50 -14 -125q-9 -12 -39 -80q-61 -125 -89 -247q-17 -76 -23 -107
q-9 -40 -21 -120q-13 -87 -19 -114q-2 -12 6 -53q7 -38 2 -70q-4 -30 -34 -39q-64 -17 -104.5 1t-49.5 61q-17 84 2 133q1 5 8.5 32t17.5 62t21 74q4 17 25 80q26 71 10 69q-15 0 -94 -55z" />
    <glyph glyph-name="D" unicode="D" horiz-adv-x="1441" 
d="M549 -121q151 0 278 74q125 74 206 197q160 242 184 589q8 144 -13 279t-71.5 249.5t-130 192.5t-187.5 107t-246 -6q-141 -39 -213 -150q-73 -110 -22 -250q11 -29 50 -48t52 -30q18 -17 17 -72q-2 -57 -23 -71q-20 -20 -69 -14t-99 41q-69 45 -104 139
q-24 59 -28.5 126t15 138.5t62.5 135t121.5 117t183.5 83.5q102 31 201 31q181 0 326 -86q144 -86 226 -228q83 -142 120.5 -319.5t25.5 -370.5q-12 -196 -74.5 -376.5t-168.5 -325.5q-104 -144 -271 -234q-163 -88 -358 -88q-126 0 -228 44t-163 119q-116 140 -130 298
q-7 94 18 196q26 102 95 134q75 37 143 8q27 -12 44 -50t1 -61l-34 -42q-25 -29 -39 -51q-15 -22 -21 -52q-33 -158 51 -266q83 -107 273 -107zM805 1425q6 -34 -28 -104q-16 -31 -25 -51q-6 -16 -39 -156q-49 -200 -68 -304q-21 -107 -37 -242q-18 -136 -37 -240
q-4 -26 5 -83q8 -60 5 -104q-3 -47 -32 -71q-38 -32 -83.5 -36t-68.5 19q-37 28 -40 65q-3 34 14 103q8 35 18 94q7 41 34 140q25 88 64 387q11 83 35 224q21 123 30 191q9 62 7 82q-13 101 45 135q60 35 126 13q67 -22 75 -62z" />
    <glyph glyph-name="E" unicode="E" horiz-adv-x="1705" 
d="M760 1501q-60 3 -82 -4.5t-5.5 -26.5t70.5 -49q116 -64 187 -113q38 -26 99 -69q67 -48 91 -63q16 -9 41 -21q33 -17 39 -22q25 -22 23 -75q-1 -52 -53 -96q-52 -43 -121 -30q-7 0 -26 11q-22 12 -28 13q-223 31 -431 -66q-209 -98 -306 -284q-70 -149 -55 -290.5
t115 -257.5q101 -118 262 -173q230 -78 473 2q241 79 364 273q33 50 36 112q3 63 -7 105q-24 104 78 137q92 27 131 -43q55 -131 -43 -321q-146 -275 -469 -396t-639 -14q-186 62 -309 189t-162 292q-55 218 59 441q106 205 322 328q215 122 463 128q-377 260 -488 266
q-50 6 -61 55q-6 28 34 68q20 21 56 64q25 30 45 52q38 40 90 40q481 -7 1028 -47q33 -3 121 9q22 3 49 3q26 0 36 -9t21 -35q9 -26 -4 -68q-8 -50 -57 -87t-100 -36q-30 0 -74 28q-45 27 -92 33q-148 16 -230 22q-57 4 -256 14q-52 3 -130 6.5t-105 4.5z" />
    <glyph glyph-name="F" unicode="F" horiz-adv-x="1144" 
d="M694 1667q7 -37 -26 -105q-16 -31 -25 -51q-9 -21 -41 -155q-14 -66 -24 -109q274 551 288 588q63 143 170 84q57 -34 76.5 -69t7.5 -89q-109 -564 -104 -680q1 -72 -76 -94q-76 -22 -121 21q-43 43 6 125q11 18 33 88q61 169 90 317q18 104 -24 53q-22 -29 -56 -84
q-279 -485 -327 -663l-9 -23q-9 -27 -10 -37q241 12 297 25q71 18 115 -59q37 -70 4 -119q-33 -47 -121 -17q-23 8 -57 12q-34 3 -37 3q-191 23 -258 18q-54 -411 -62 -725q0 -20 9 -82q8 -62 3 -105q-4 -43 -34 -69q-38 -34 -84.5 -38t-69.5 20q-52 27 -35 112q3 20 12 66
t15 84q4 14 43 311q17 155 51 404q-4 -1 -44 -10q-24 -7 -54 -13q-6 -2 -20 -8.5t-33.5 -16t-28.5 -13.5q-19 -10 -45 -8t-39 19q-80 115 -4 159q59 34 131 40q43 0 141 2q4 31 19 47l4 8q4 29 39 252q12 101 33 225q14 92 30 190q9 62 7 81q-13 101 45 135q59 35 126 14
q67 -23 74 -61z" />
    <glyph glyph-name="G" unicode="G" horiz-adv-x="1314" 
d="M969 1331q-289 -201 -503 -466q-217 -268 -239 -519q-18 -190 75 -319t290 -129q174 0 273 106q41 44 73 118q30 70 44 137q13 62 24 149q4 34 5 56t-21.5 31t-80.5 5q-310 -27 -325 -31q-10 -1 -55 -13q-41 -12 -66 -18q-73 -16 -103 21q-23 26 -24.5 68t16.5 77
q24 45 50 59t44 -2q3 -2 16.5 -11.5t20.5 -14.5t19 -12t22 -10t19 -3q126 -6 285 11q160 17 262 53q96 33 139 -12q19 -14 20 -39q14 -48 -4 -103q-18 -57 -49 -69q-37 -120 -61 -230q-57 -266 -45 -502q0 -7 5 -40q6 -40 7 -50q2 -22 -7 -45t-28 -35q-52 -26 -88 -24.5
t-52 26.5q-15 23 -26 56q-6 18 -7 38.5t1 41.5t2 24q4 28 23 133q-140 -117 -367 -116q-274 0 -415 175q-142 175 -126 431q11 176 110 367q99 192 250 358q148 164 322 305q169 136 342 233q15 8 38 21q27 14 31 17q8 5 21 16q15 12 17 20q21 53 20 115q5 68 80 78
q76 12 121 -35q47 -50 -14 -125q-9 -12 -39 -80q-61 -125 -89 -247q-16 -65 -24 -107q-10 -55 -20 -120q-5 -28 -11 -65.5t-8 -48.5q-2 -16 5 -53q7 -38 2 -70q-4 -30 -33 -39q-64 -17 -104.5 1t-49.5 61q-17 84 2 133q1 5 8.5 32t17.5 62t21 74q4 17 25 80q26 71 10 69
q-15 0 -94 -55z" />
    <glyph glyph-name="H" unicode="H" horiz-adv-x="1511" 
d="M1483 1726q6 -33 -27 -104q-18 -38 -24 -51q-8 -20 -41 -156q-78 -324 -117 -575q-1 -11 -8 -33q-4 -20 -2 -25.5t18 -21.5l8 -8q39 -41 41 -94q2 -54 -45 -74q-50 -6 -52 -15q-1 -3 -7 -53q-67 -505 -72 -709q0 -16 8 -82q7 -61 3 -105t-33 -69q-38 -32 -84 -36.5
t-70 18.5q-39 30 -39 69q0 25 3 43q4 26 13 66q9 47 15 84q53 321 106 731q1 14 6 41q8 29 2 35t-45 8h-12q-275 8 -311 8q-5 0 -47 -3q-11 -2 -12 -8q0 -2 -2.5 -10.5t-3.5 -22.5q-2 -20 -3 -33q-24 -155 -37 -320q-12 -163 -12 -225q0 -15 8 -74q7 -55 3 -95
q-5 -41 -33 -63q-38 -29 -84 -33t-70 17q-24 16 -35 39q-15 29 -16 68q-2 19 -1.5 49t-2.5 35q-15 49 -63 241q-47 184 -93 308q-46 122 -109 188q-4 4 -39 28q-34 21 -49 45q-16 22 -2 52q34 66 74 88.5t75 2.5q67 -39 87 -87q8 -16 12.5 -32.5t4.5 -22t5 -12.5t14 -5t31 2
q19 0 154 4q53 1 57 9q2 2 11 63q1 7 19 118q5 30 14.5 90.5t14.5 90.5q5 33 15 98t13 85q31 209 26 245q-13 90 45 121t126 12q67 -19 75 -55q7 -34 -26 -95q-17 -31 -25 -46q-24 -61 -33 -106q-5 -25 -8 -34q-25 -87 -103 -526q-8 -59 -6 -62q1 -4 68 -2q83 1 297 17
q56 5 61 14l1 7q1 7 3 23.5t4 35.5q20 167 33 241q9 69 37 240q30 182 36 218q13 77 11 99q-13 100 45 135q60 35 126 13q67 -22 75 -62zM461 276q17 112 19 123q14 98 18 127q2 16 6 37q8 38 1 42q-8 5 -52 -1q-14 -2 -17 -2q-48 -6 -59 -8q-8 -1 -18 -2.5t-14.5 -2
t-9.5 -2t-7 -4t-3 -6.5q1 -13 9 -34q2 -6 5.5 -17t4.5 -14q17 -50 76 -236q8 -23 14 -47q10 -30 12 -32l5 14q1 5 3 16.5t4 27t3 21.5z" />
    <glyph glyph-name="I" unicode="I" horiz-adv-x="1179" 
d="M662 -379q-197 20 -439 -45q-7 -1 -21 -9t-31.5 -18.5t-27.5 -15.5q-23 -12 -45 -13t-41 15q-32 33 -43.5 63.5t-4 53.5t30.5 39q62 44 126 53q92 6 291 33q0 7 10 51q8 35 14 82q3 16 43 311q22 163 115 862q10 80 32 211q21 124 30 184q10 63 10 91q-31 -5 -123 -23
q-10 -2 -81 -40q-60 -32 -85 3q-38 43 -44.5 79t11 57.5t47.5 37.5t56 23t45 8h9q8 1 27.5 2.5t41.5 2.5q74 4 142 12q77 7 145 16q80 11 116 22q72 23 119 -45q45 -61 12 -112q-31 -49 -121 -37q-17 3 -90 8q-32 -64 -35 -72q-7 -18 -39 -155q-81 -324 -136 -727
q-56 -414 -62 -707q-2 -22 8 -100q59 2 97 -54q37 -55 12 -106q-27 -51 -121 -41z" />
    <glyph glyph-name="J" unicode="J" horiz-adv-x="1390" 
d="M680 -164q-31 64 -122 264q-108 238 -187 402q-89 186 -119 217q-1 2 -19 22q-8 12 -13 12.5t-25 -10.5q-2 -1 -6 -2.5t-5 -1.5q-26 -12 -50 -22q-16 -6 -43 -5q-29 2 -42 21q-74 116 3 158q76 40 132 35q31 0 85 -1q28 -1 87 -1.5t89 -0.5q63 -1 218 -1q93 0 211 2
q69 1 74 6t15 71l10 82q13 96 39 251q22 141 28 192q8 51 2 54t-59 -11q-90 -26 -149 -49q-10 -4 -35 -19q-10 -6 -24 -14.5t-18 -11.5q-22 -13 -44.5 -15t-40.5 15q-49 47 -53.5 91t30.5 66q56 39 123 54q311 44 447 94q56 20 102 -19q47 -39 47 -88q0 -50 -49 -78
q-21 -9 -37 -10q-5 -1 -5.5 -1.5t-4 -2.5t-5 -5.5t-4.5 -10t-8 -17.5q-4 -7 -6 -14q-10 -21 -10 -23q-9 -21 -41 -155q-49 -201 -88 -420q63 -6 90 -82t-18 -113q-35 -29 -105 -4q-81 -550 -88 -858q0 -17 8 -70q7 -46 7 -73q0 -51 -44 -86q-45 -35 -94 -36t-84 17
q-44 32 -78 141q-16 46 -24 64zM483 700q26 -109 104 -303q76 -189 156 -331q3 -5 9.5 -17.5t13 -24.5t12.5 -24q27 -47 33 -47q8 -2 12 35q2 7 11 57v8q0 3 1.5 13t4 26.5t4.5 33.5q9 73 12 95q8 67 31 222q32 230 37 262q10 61 5 70q-4 6 -69 11q-129 12 -309 7
q-71 -5 -76 -10q-5 -7 8 -83z" />
    <glyph glyph-name="K" unicode="K" horiz-adv-x="905" 
d="M514 1667q7 -37 -26 -105q-16 -31 -25 -51q-7 -18 -39 -155q-44 -173 -94 -451q-10 -62 -14 -85.5t-5 -22.5q1 -7 21 18q3 4 14 23t21 34q214 363 256 435q130 225 147 284q22 91 84 102q62 9 111 -34t43 -78q-6 -29 -60 -80q-19 -17 -39 -37q-16 -16 -88 -121
q-218 -300 -385 -598q-14 -24 -28 -45q-22 -37 -15 -38q7 0 60 24q109 51 258 143q8 4 23 15.5t28.5 20.5t29.5 16.5t30 5.5t24 -15q82 -100 -4 -165q-25 -32 -37 -70q-8 -26 -21 -80q-112 -403 -129 -567q-4 -22 -1 -50.5t-7.5 -56t-38.5 -33.5q-61 -9 -95.5 9t-40.5 56
q-9 63 13 114q32 63 142 503q4 12 10.5 35.5t9.5 30.5q1 2 3 20q0 3 -2 4t-5 0h-3q-2 2 -12 -3q-27 -10 -42 -17q-28 -12 -130 -63q-33 -16 -78.5 -39t-58.5 -29q-53 -26 -57 -37q-3 -23 -8 -69q-25 -229 -31 -443q0 -20 10 -81q9 -64 3 -107q-7 -43 -35 -68
q-38 -34 -83.5 -38t-68.5 20q-54 30 -37 111l5.5 27.5t8.5 39.5q9 46 15 84q3 16 43 311q0 3 8 69q8 60 12 93q-24 -7 -43.5 26t-17.5 72t29 47q12 6 55 15q7 59 24 186.5t25 188.5q12 97 23 165q6 41 34 224q7 45 16.5 108t12.5 83q10 61 8 81q-14 101 45 135q59 35 125 14
q67 -23 74 -61z" />
    <glyph glyph-name="L" unicode="L" horiz-adv-x="299" 
d="M459 1667q6 -35 -28 -104q-18 -35 -25 -52q-7 -18 -39 -155q-81 -328 -137 -730q-57 -402 -62 -704q-1 -100 17 -113q18 -12 100 7q573 95 624 118q89 43 144 5q53 -38 47 -97q-6 -60 -31 -82q-27 -10 -45 -9q-16 1 -55 6q-42 5 -58 5q-367 -18 -876 -151q-1 -1 -12.5 -4
t-25 -6.5t-17.5 -4.5q-11 -2 -29 -6q-35 -7 -62 -10q-76 -3 -112 21q-51 33 -15 125q30 75 127 47q9 0 23.5 -2t22.5 -1.5t13 5.5q3 2 8 6t6.5 6t4 7t3.5 13q2 10 3 18t2 20t3 23q4 22 6 42q4 22 43 311q13 103 60 455q38 285 54 407q11 78 35 225q21 123 30 191q9 62 7 80
q-14 101 44 135q59 35 126 14q69 -23 76 -61z" />
    <glyph glyph-name="M" unicode="M" horiz-adv-x="1103" 
d="M522 1667q6 -35 -28 -104q-18 -35 -25 -52q-7 -18 -39 -155q-91 -370 -147 -815q-16 -121 -13 -123q1 -1 2.5 0.5t4.5 5t6 8.5q1 3 49 90q53 96 248 477q32 59 125 68q90 7 112 -45q14 -38 -20 -94q-109 -179 -127 -324q-12 -82 2 -82q8 0 24 21q53 64 147 229
q95 170 134 264q-2 47 39 103q29 35 84 38t98 -18q43 -22 43 -49q0 -43 -23 -94q-23 -48 -28 -62q-60 -205 -131 -647q-70 -432 -82 -690q0 -12 23 -30q22 -16 24 -44q2 -37 -21 -99q-24 -62 -51 -83q-59 -53 -131 4q-50 38 -51 79q-2 46 23 161q82 486 149 997q8 57 -2 57
q-6 0 -18 -14q-38 -44 -115 -181q-75 -134 -100 -187q-25 -51 -37 -95q-4 -9 -7 -52q-5 -45 -10 -62q-11 -26 -51 -42q-40 -18 -72 -18q-56 0 -70 68q-13 67 -3 119q5 25 51 301q14 84 10 88l-8 -9q-1 -2 -21 -38q-5 -10 -13.5 -24t-8.5 -15q-142 -249 -215 -461
q-20 -64 -23 -115q0 -20 10 -81q9 -64 3 -107q-6 -42 -35 -68q-38 -34 -83.5 -38t-68.5 20q-52 27 -35 112q3 20 12 66t15 84q4 22 43 311q24 183 61 455q38 285 54 407q11 78 35 225q21 136 30 191q9 64 6 80q-14 101 45 135q59 35 126 14q68 -23 75 -61z" />
    <glyph glyph-name="N" unicode="N" horiz-adv-x="1093" 
d="M1085 1667q7 -37 -26 -105q-16 -31 -25 -51q-13 -33 -27 -94l-14 -61q-144 -587 -188 -1219q-2 -26 7 -94q9 -72 3 -106q-11 -35 -33 -56l-6 -6h-2v-2h-2l-2 -2q-36 -26 -78 -28t-61 20q-43 32 -41 84q5 176 -33 295q-18 55 -43.5 133.5t-32.5 99.5q-11 31 -36 104
t-38 112q-73 209 -93 197q-4 -3 -5 -18q0 -6 -6 -60q-7 -61 -8 -93q-7 -129 -41 -408q-34 -276 -35 -387q0 -21 10 -90q9 -70 4 -125q-6 -53 -34 -78q-65 -55 -156 19q-51 27 -36 112q4 26 13 66q9 46 15 84q4 22 43 311q13 103 60 455q47 355 55 407q11 78 35 225
q24 154 29 191q9 62 7 80q-14 101 45 135q59 35 126 14q68 -23 75 -61q6 -35 -28 -104q-18 -35 -25 -52q-34 -84 -35 -190q-2 -116 8 -191q11 -89 53 -230q46 -158 65 -208q27 -78 79 -223q13 -38 16 -47q14 -42 18.5 -41.5t10.5 47.5q4 27 6 45q53 308 92 610q6 41 34 224
q25 157 30 191q10 61 8 81q-14 101 44 135q59 35 125 14q67 -23 74 -61z" />
    <glyph glyph-name="O" unicode="O" horiz-adv-x="1830" 
d="M362 1150q290 220 660 220q369 0 598 -220t184 -532q-47 -311 -338 -532q-293 -221 -661 -221q-235 0 -423 96q-187 96 -282 260q-109 184 -75 397q45 312 337 532zM1561 618q49 141 5 260q-43 115 -145 196q-100 78 -239 116q-137 37 -275 22q-266 -29 -467 -198
q-202 -169 -235 -396q-38 -248 145 -424q182 -176 477 -176q259 0 474 139q216 139 292 347q10 30 -14 65q-24 33 -18 49zM702 1653q20 24 50 28q57 13 79 0q41 -23 50 -106q5 -77 -39 -102q-40 -25 -87 9q-46 34 -61 84q-15 49 8 87zM1092 1481q-26 0 -52 18q-86 61 -4 143
q50 50 94 37q40 -13 54 -55q14 -47 -16 -95q-32 -48 -76 -48z" />
    <glyph glyph-name="P" unicode="P" horiz-adv-x="1531" 
d="M662 1667q6 -30 -41 -133q162 -28 422 -78q264 -51 339 -63q28 -5 71 -74q45 -72 59 -140q14 -71 -42 -110q-315 -170 -919 -457q-32 -16 -77 -34q-8 -4 -22 -15q-4 -3 -7 -6.5t-5.5 -6t-5 -7.5l-4 -8t-3.5 -10l-3 -10.5t-3 -12.5t-2.5 -13.5t-3 -16.5t-3.5 -17
q-35 -284 -41 -533q0 -16 9 -81q9 -64 3 -107q-6 -42 -35 -68q-38 -34 -83 -38t-68 20q-54 30 -37 111q0 1 13 67q9 46 15 84q4 22 43 311q10 77 16 118q4 32 10 76.5t7 53.5q-56 -33 -92 -20q-38 14 -56 42t-12 56q8 45 52 65q28 11 66 19t47 15q21 12 28 71q39 295 49 366
q32 219 47 308q-87 10 -92 10q-44 4 -105 -13q-60 -18 -90 -14q-49 7 -78 52q-31 44 -14 94q20 70 52 89.5t77 9.5q7 -1 58.5 -15t72.5 -17q74 -9 144 -20v12q-14 101 44 135q59 35 125 14q68 -23 75 -61zM696 1352h2l-125 16l-2 -12q-57 -247 -102 -508q-17 -102 -12 -105
q3 -3 98 37q365 158 739 365q51 29 -6 80q-50 44 -129 55q-15 2 -260 41q-94 16 -170 27h-10l-4 2z" />
    <glyph glyph-name="Q" unicode="Q" horiz-adv-x="1830" 
d="M364 1150q290 220 660 220t597 -220q228 -220 183 -531q-45 -313 -336 -533q-293 -221 -661 -221q-71 0 -89 6q-7 1 -20 -6q-13 -8 -21.5 -18t-33.5 -46q728 46 832 78q73 23 116 -53q40 -70 8 -119q-31 -49 -118 -22q-9 3 -95 10q-418 33 -757 -68q-3 0 -52 -27
q-51 -26 -77 -24h-19q-67 8 -96 39.5t-16 72.5q22 74 65 117l39 39q33 33 40 43.5t1 16.5q-5 5 -33 16q-40 13 -63 25q-210 97 -316 276q-108 181 -77 397q47 312 339 532zM1176 326q-36 -18 -76 -58q-112 -86 -201 -172q-24 -24 -41 -39q-40 -37 -31 -41q9 -2 72 4
q13 2 21 3q232 26 419 159t256 322q10 30 -14 65q-25 33 -18 49q49 141 5 260q-43 115 -145 196q-100 78 -240 116q-138 37 -276 22q-266 -29 -467 -198q-202 -169 -235 -396q-25 -177 64 -322t261 -218q96 -41 115 -37q22 5 84 74q3 2 100 106q185 200 211 246
q39 63 125 37q67 -22 84 -74q16 -61 -73 -104z" />
    <glyph glyph-name="R" unicode="R" horiz-adv-x="1540" 
d="M668 1667q6 -30 -41 -133q121 -21 420 -77q333 -63 342 -64q26 -5 69 -74q42 -68 59 -140q15 -71 -40 -110q-209 -109 -459 -233q-67 -33 -71 -58q-5 -27 20 -78q3 -9 12.5 -38t29 -90.5t38.5 -122.5q68 -217 123 -367q51 -144 85 -188q51 -63 21 -114q-32 -50 -88 -53
q-57 -3 -88 23q-19 23 -20 85q-1 23 -1 44q-5 56 -26 125q-38 119 -110 312q-80 215 -142 341q-20 39 -98.5 28.5t-153.5 -57.5q-52 -31 -88.5 -78t-42.5 -95q-35 -284 -41 -533q0 -16 8 -82q7 -62 3 -105t-34 -69q-38 -34 -84 -38t-69 20q-51 27 -36 112q3 20 12 66
q2 13 7.5 41.5t8.5 42.5q14 84 43 311q22 150 32 248q-56 -33 -92 -20q-36 14 -54 42t-13 56q8 45 53 65q11 4 101 28q13 3 24 23t14 54q3 19 13 89.5t17 121.5q19 136 21 155q12 102 47 308q-87 10 -92 10q-46 4 -106 -13q-59 -18 -88 -14q-48 7 -79 52q-30 44 -15 94
q27 95 79 101q34 4 112 -18q38 -11 71 -16q102 -13 141 -20v12q-14 101 45 135q59 35 126 14q68 -23 75 -61zM721 1350l-19 2l-122 16l-5 -12q-67 -301 -102 -508q-1 -12 -8 -45q-11 -55 -3 -60q7 -6 56 19q24 9 43 18q391 173 739 365q51 29 -6 80q-54 48 -129 55l-43 6
q-42 7 -155.5 25t-231.5 37h-10z" />
    <glyph glyph-name="S" unicode="S" horiz-adv-x="1910" 
d="M844 1509q-42 2 -65.5 -0.5t-29.5 -9t2.5 -17.5t26 -23.5t45.5 -28.5q43 -26 224 -152q42 -28 102 -70q14 -10 110 -78q55 -40 103 -78q67 -53 103 -88q41 -43 84 -91q52 -58 76 -105q66 -123 73 -238q12 -199 -99 -385q-163 -281 -495 -402q-331 -120 -639 -13
q-181 63 -297 194q-116 130 -141 297q-23 141 20 283q46 153 160 267q111 111 282 214q72 43 107 58q38 16 86 10q47 -6 88 -47q9 -11 17 -30t12 -43.5t-9 -46.5t-45 -32q-26 -9 -115 -22q-88 -14 -160 -43q-73 -31 -134 -103q-120 -141 -133 -305q-15 -167 79 -304
q93 -138 269 -200q241 -84 500 10t387 314q98 165 81 315q-7 63 -39 128.5t-77 119.5q-43 51 -106 106q-76 64 -119 95q-30 22 -127 90q-3 2 -9.5 6t-9.5 6q-465 318 -567 326q-10 0 -22 4.5t-21 14.5t-12 24t6.5 35t32.5 45q7 7 43 45q17 19 37 39q4 4 30 26q25 21 43.5 28
t54.5 9q64 0 443 7q402 7 520 -11h47v4l2 4q4 45 29 72t58 30t65.5 -6t54.5 -33t22 -53q2 -11 -6.5 -27t-27 -40t-21.5 -29l-37 -74q-68 -148 -104 -352q-2 -20 -5 -59q-3 -44 -8 -73q-7 -30 -32.5 -49t-67.5 -13q-34 4 -61 29t-35 59q-2 35 0 43t17 37q16 34 22 55
q5 10 51 170q27 61 8.5 90t-96.5 37q-167 19 -357 20q-187 1 -294 8z" />
    <glyph glyph-name="T" unicode="T" horiz-adv-x="1603" 
d="M938 1511q-9 -21 -41 -155q-78 -323 -135 -730q-56 -405 -64 -704q0 -20 9 -82q7 -62 3 -105t-34 -69q-38 -34 -84.5 -38t-69.5 20q-51 27 -36 112q4 26 13 66q9 46 15 84q14 84 43 311q64 477 72 533q0 9 -0.5 19t-1 15t-0.5 8q0 7 -5 25q-6 15 -8 17q-3 2 -19 22
q-17 20 -30 33q-178 217 -514 496q-40 32 -41 82q-2 52 19 71q7 27 16 43q17 26 31.5 39t38.5 19q21 5 43 7q18 1 65 3q17 1 45.5 2.5t38.5 1.5q74 8 500 67q33 10 57 9q558 83 563 86q100 39 135 -11q35 -52 14 -123q-22 -72 -60 -92q-27 -11 -81 3q-55 12 -75 12
q-137 2 -287 -11q-11 -2 -33.5 -2.5t-24.5 -0.5q-30 -3 -34 -7q-16 -10 -43 -76zM672 1083q5 34 18.5 118t18.5 115q22 139 22 146q12 86 3 92q-10 5 -107 -16q-65 -10 -303 -61q-96 -23 -104 -35q-9 -13 40 -68l31 -37q56 -63 289 -258q17 -14 34 -29.5t25 -23t13 -8.5
q1 1 4 0.5t5 2t3 9.5q6 33 8 53z" />
    <glyph glyph-name="U" unicode="U" horiz-adv-x="1378" 
d="M422 1223q-29 -41 -133 -222q-6 -10 -28 -104t-73 -117q-51 -20 -93.5 -16.5t-63.5 27.5q-31 35 -20 69q8 23 17 37q2 4 33 56q9 16 23.5 40.5t17.5 30.5q54 100 402 602q-6 66 41 92q8 8 20 8q47 16 128 -10q78 -25 89 -57t-20 -92q-16 -33 -21 -45q-11 -28 -66 -250
q-56 -218 -115 -515q-58 -292 -54 -413q4 -151 106 -12q6 8 17.5 23t32 42t38.5 50q68 89 96 126q27 37 81 117q55 84 79 134q21 44 52 124q27 75 34 135q6 41 34 224q25 157 30 191q10 61 8 81q-14 101 45 135q59 35 125 14q67 -23 74 -61q7 -37 -26 -105q-16 -31 -25 -51
q-15 -37 -26 -93q-13 -55 -15 -62q-128 -534 -181 -1135q-13 -162 -18 -299q0 -16 9 -81q9 -64 3 -107q-6 -42 -35 -68q-38 -32 -84 -37q-44 -4 -67 19q-54 30 -37 111l5.5 27.5t8.5 39.5q9 46 15 84q31 214 76 559q3 16 4 25q12 92 6 94q-5 2 -15 -15l-22 -34
q-22 -33 -39 -62q-92 -139 -252 -397q-6 -10 -28 -101q-22 -89 -72 -112q-52 -19 -94 -16t-64 26l-4 2q-2 2 -4 2q-74 77 -55 346q18 274 67 535q51 274 98 426q26 80 4 95q-23 13 -69 -60z" />
    <glyph glyph-name="V" unicode="V" horiz-adv-x="1232" 
d="M1223 1595q4 -33 -41 -98q-26 -38 -31 -49q-14 -24 -61 -148q-122 -310 -234 -706q-114 -402 -158 -688q-2 -22 -2 -81q0 -62 -11 -108q-10 -43 -44 -64q-35 -21 -76 -28t-78 6q-25 12 -37 25.5t-19 37.5q-6 21 -8 44q-1 20 -3 69t-6 87q-6 45 -39 327q-24 195 -51 411.5
t-39.5 317.5t-16.5 137q-5 46 -9 68t-7 21q-4 -1 -21 -125q-11 -79 -12 -162q0 -18 6 -75q6 -56 1 -97q-4 -38 -29 -64q-75 -75 -148 -37q-22 10 -31.5 23t-8.5 36q2 30 4 43q3 20 15 66q12 54 17 84q11 56 51 230q40 176 69 321q29 144 21 189q-10 69 25 116l4 5v2h2v2
q51 51 131 48q81 -3 94 -42q10 -45 6 -73q-5 -33 -17 -66q-13 -39 -15 -50q-3 -21 -3 -54.5t1.5 -67t1.5 -37.5q6 -506 102 -1106q0 -2 17 -107q12 -87 18 -92q2 -1 4.5 2t5.5 10q9 21 41 131q5 17 6 25q158 589 221 807q31 109 64 217q14 45 32.5 106t23.5 78q18 62 18 80
q0 102 63 128t126 -5q64 -32 65 -70z" />
    <glyph glyph-name="W" unicode="W" horiz-adv-x="1634" 
d="M891 698q-134 -378 -199 -792q-2 -22 -2 -81q0 -62 -11 -108q-10 -43 -44 -63q-30 -17 -64 -25q-48 -18 -92 2q-45 23 -55 63q-7 29 -8 44q-3 41 -4 68q-1 49 -6 88q-7 70 -37 327q-24 195 -51 411.5t-39.5 317.5t-16.5 137q-11 85 -16 89l-4 -7l-2 -6q-6 -52 -7 -57
q-7 -45 -8 -59q-10 -78 -12 -158q-2 -25 4 -78q6 -57 2 -94q-5 -40 -29 -64q-74 -74 -147 -37q-22 10 -31.5 23t-8.5 36q2 30 4 43q3 20 15 66q12 54 17 84q11 56 51 230q40 176 69 321q27 144 21 189q-10 69 25 116l4 5v2l2 2q51 51 134 49t91 -43q6 -19 -8 -56
q2 -27 -8 -73q-10 -49 -10 -60q-3 -21 -3 -54.5t1.5 -67t1.5 -37.5q6 -559 116 -1194q19 -115 25 -117q1 -1 4 4q1 1 2 4q2 4 29 100q71 265 143 525q31 109 64 217q46 154 55 185q18 63 18 81q0 89 50 121q48 31 105 14q55 -18 87 -53q8 -8 8 -12q7 -33 9 -46q1 -12 -6 -57
q-8 -46 -9 -61q-2 -20 6 -160q12 -309 43 -500q25 -156 35 -157q6 -2 12 47q3 27 4 53q2 21 4.5 41.5t5 39t3.5 26.5q2 21 37 276q7 52 16.5 122t16 116t10.5 77q6 41 34 224q7 45 16.5 108t12.5 83q10 61 8 81q-14 101 45 135q59 35 125 14q67 -23 74 -61q7 -37 -26 -105
q-16 -31 -25 -51q-15 -37 -26 -93q-13 -55 -15 -62q-78 -323 -135 -730q-58 -406 -64 -704q0 -10 8 -85q8 -72 2 -105q0 -26 -14 -43v-2q-1 -2 -10 -13q-59 -74 -131 -47q-33 14 -47 35q-27 28 -21 84q-4 42 -5 59q-3 49 -7 72q-9 58 -46 263q-38 208 -79 478q-7 38 -14 107
q-13 106 -23 106q-7 2 -20 -47q-6 -18 -29 -86z" />
    <glyph glyph-name="X" unicode="X" horiz-adv-x="1378" 
d="M420 1235q-18 -140 2 -342q0 -10 15 -50q14 -42 14 -71q0 -30 -27 -47q-121 -63 -156 17q-32 70 -22 135q60 583 61 684q-12 41 0 71q6 57 72 84q64 27 108 -2q19 -6 33 -18q12 -16 15.5 -44t2.5 -56.5t1 -61.5q4 -51 19 -118q8 -31 9 -40q57 -275 140 -551q8 16 20 40.5
t30.5 61.5t32.5 66q61 124 80 164q53 107 106 203q60 112 90 171q30 58 34 77q18 100 85 115q66 13 123 -27q56 -41 52 -80q-4 -33 -61 -90q-25 -25 -39 -43q-21 -26 -89 -135q-176 -274 -403 -730q113 -352 227 -614q4 -9 43 -70q35 -54 50 -95q14 -42 -3 -77
q-39 -84 -114 -84q-43 -4 -88 41q-11 9 -44 26.5t-36 21.5q-158 93 -342 163q-6 -18 -18 -81q-14 -65 -32 -102q-19 -41 -57 -54q-52 -19 -89.5 -10t-59.5 38q-29 41 -14 79q6 21 17 40q15 28 33 59q24 46 42 74l8 15q-40 10 -99 5q-57 -5 -110 3t-62 41q-17 66 1 104.5
t61 42.5q86 8 135 -14q12 -5 137 -55l54 106q137 278 200 408q-26 79 -72 228q-46 147 -57 177q-3 9 -33 113q-16 50 -26 88zM827 -61q-32 109 -153 487q-85 -176 -164 -371q191 -72 317 -116z" />
    <glyph glyph-name="Y" unicode="Y" horiz-adv-x="1054" 
d="M651 680q-7 -12 -51 -106q-46 -98 -69 -146q-18 -36 -70 -139q-83 -161 -144 -238q-43 -49 -153 -31q-111 16 -129 62q-27 96 -18 237q8 141 48 355q41 226 79 386q55 230 79 330q37 150 43 185q5 14 9 55q2 27 17 52q24 49 111 57q74 2 107 -36t27 -101q-8 -53 -50 -103
q-81 -94 -188 -570q-106 -472 -100 -644q4 -103 65 2q276 511 342 692q64 170 80 344q12 119 64 149q51 29 194 27q52 0 75 -29q21 -30 18 -60q-3 -32 -13 -50q-80 -163 -209 -896q-129 -734 -129 -999q0 -5 5 -37t5 -36q1 -57 -78 -97q-88 -43 -143 0q-48 37 -26 140
q43 191 159 786q47 250 80 434q25 134 25 140q-2 5 -10 -10q-2 -2 -3 -5l-8.5 -17l-18 -36t-22.5 -47z" />
    <glyph glyph-name="Z" unicode="Z" horiz-adv-x="1769" 
d="M1384 1503q-130 -6 -331 -5q-202 1 -332 -13q-41 -4 -51.5 -19.5t-3.5 -56.5q7 -30 14 -70l12 -53q13 -59 14 -75q1 -19 -10 -59q-12 -38 -41 -58q-25 -17 -57 -17.5t-61 19.5q-28 26 -22 106q3 37 1 53q-7 101 -22 173q-15 64 -54 149q-5 10 -18.5 27t-22 32t-4.5 27
q6 66 82 117q78 52 117 12q20 -20 20 -66v-10q1 -5 2 -15.5t2 -18.5t2 -9l1 -1q1 -2 2.5 -4t3.5 -4q3 -4 10 -3t16 2.5t23 -0.5q138 14 523 1q377 -13 439 -13q36 -4 52.5 -10.5t32.5 -27.5q14 -21 17 -27q4 -9 21 -39l23 -46q29 -56 -4 -87q-34 -33 -68 -34
q-110 -6 -711 -315q-347 -180 -485 -281q-350 -257 -305 -571q33 -219 250 -318q218 -98 495 -20q206 58 358 194q155 137 213 302t1 305q-28 68 -84.5 102t-143.5 48q-82 12 -106 22q-39 17 -29 49q9 35 31 62q20 27 41 40q111 77 191 35q33 -19 79 -59q126 -102 188 -215
q61 -115 42 -268q-35 -249 -246 -463q-213 -216 -514 -301q-243 -61 -445 -30t-341 153q-141 126 -166 309q-1 9 -5 61q-6 161 78 324q61 115 178 233q45 46 122 103q115 82 125 89q58 40 142 86q111 62 138 76q18 10 69 35.5l75 37.5q95 48 132 69q257 134 291 147
q185 83 35 82h-21z" />
    <glyph glyph-name="bracketleft" unicode="[" horiz-adv-x="792" 
d="M557 1583q-133 25 -145 21q-15 -5 -25 -50q-6 -24 -12 -43q-10 -34 -21 -92q-12 -57 -12 -61q-60 -309 -106 -724q-45 -396 -50 -697q0 -16 -5 -59q-5 -42 -4 -52q1 -16 19 -29.5t50 -13.5q112 0 127 4q89 20 147 -41q51 -52 19 -96q-45 -56 -217 -25q-41 8 -95 11
q-52 4 -63 4q-31 0 -78 4q-25 4 -43 18q-31 31 -31 69q0 18 2 44q1 15 11 66q8 49 12 83q13 106 33 297q16 138 44 410q32 305 48 456q11 103 27 223q8 63 23 189q7 59 5 82q-8 73 37 122q46 50 92 40q236 -4 262 2q89 20 148 -41q51 -52 18 -96q-45 -58 -217 -25z" />
    <glyph glyph-name="backslash" unicode="\" horiz-adv-x="804" 
d="M72 1444q-96 164 -37 221q39 39 102 2t70 -113q3 -26 84 -252q43 -123 71 -208q76 -228 291 -883q49 -146 70 -205q14 -37 30 -77q5 -14 13 -34t10 -26q7 -18 12 -41q8 -36 -18 -76q-16 -28 -48.5 -33t-72.5 17q-46 31 -59 161q-6 66 -10 80q-65 277 -194 661
q-123 365 -253 667q-40 101 -61 139z" />
    <glyph glyph-name="bracketright" unicode="]" horiz-adv-x="800" 
d="M236 -242q131 -25 145 -20q15 5 25 49q6 24 12 43q9 28 22 92q11 61 11 62q60 309 106 724q44 401 49 697q0 16 5 58t4 53q-1 17 -18.5 30t-49.5 13q-109 0 -127 -5q-89 -20 -148 41q-51 53 -18 97q45 57 217 24q41 -8 96 -11q58 -3 62 -3q31 0 78 -4q24 -1 43 -19
q30 -30 30 -69q0 -18 -2 -44q-1 -8 -10 -66q-8 -49 -12 -83q-14 -107 -33 -297q-16 -135 -44 -409q-34 -324 -48 -457q-15 -138 -26 -222q-17 -124 -24 -189q-7 -64 -6 -83q8 -72 -36 -122q-45 -50 -93 -39q-236 4 -262 -2q-89 -20 -147 41q-51 52 -19 96q46 57 218 24z" />
    <glyph glyph-name="asciicircum" unicode="^" horiz-adv-x="532" 
d="M129 1165q0 -55 -43 -55t-70 37q-10 14 -10 28.5t6 24.5t14.5 21.5t10.5 15.5q62 122 160 367q4 7 4 12q35 86 110 51q26 -11 32.5 -25.5t-0.5 -34.5q-4 -22 -3 -34q16 -171 129 -338q1 -1 4.5 -8.5t9 -16.5t13.5 -14q39 -39 4 -65q-34 -27 -82 -19q-42 6 -47 53l-2 23
q-34 103 -119 311q-78 -130 -111 -287q0 -1 -5 -20t-5 -27z" />
    <glyph glyph-name="underscore" unicode="_" horiz-adv-x="1323" 
d="M1214 80q55 20 79 2t21 -64q-3 -43 -26 -75q-25 -40 -72 -38q-12 1 -36 6t-27 5q-142 6 -519 2q-413 -5 -480 -8h-21q-40 -5 -95 29q-58 37 1 139q9 15 27.5 18t33.5 -5q7 -3 31.5 -15.5t30.5 -14.5q127 -29 484 -26q353 1 501 31q52 7 67 14z" />
    <glyph glyph-name="grave" unicode="`" horiz-adv-x="229" 
d="M199 1462q19 -90 -6 -69q-22 22 -49 63q-26 40 -51 73q-22 29 -38 34q-20 5 -27 46q-7 42 13 58q56 37 85 5q34 -38 48 -88q6 -21 21 -97q4 -20 4 -25z" />
    <glyph glyph-name="a" unicode="a" 
d="M883 1024q-8 -13 -33 -88q-77 -291 -105 -694v-21q0 -13 8 -63t7 -70q-6 -91 -113 -96q-89 -4 -102 90q-3 37 0 54.5t13 51.5t13 50q18 100 41 237q-68 -173 -174 -330q-96 -135 -207 -129q-96 4 -157 97q-38 56 -49 139q-25 195 73 430q107 258 287 393q85 61 221 39
q1 0 5.5 -0.5t14 -1t19.5 -0.5t53 -4q23 59 102 68q79 7 103 -46q19 -40 -20 -106zM580 971q-134 6 -267 -226q-143 -254 -123 -434q1 -44 25 -69q18 -25 53 -25q84 -1 178 174q94 173 162 363q6 19 22.5 60t18.5 47q20 55 17 69q-4 19 -22.5 28.5t-63.5 12.5z" />
    <glyph glyph-name="b" unicode="b" horiz-adv-x="849" 
d="M166 -72q-30 -14 -61 -16t-58 11.5t-37 50t2 98.5q36 144 37 149q4 7 4 25q17 102 69 465q56 382 89 551q45 264 37 317q-14 101 45 135q59 35 126 14q66 -23 75 -61q6 -34 -29 -104q-18 -35 -25 -52q-9 -21 -41 -155q-98 -390 -143 -758q62 154 270 514q30 49 45 101
t14 79q-1 20 13 39q14 17 48 20q35 3 116 3q42 0 60.5 -24t13.5 -52q-4 -25 -15 -43q-24 -40 -43 -129q-36 -158 -41 -313q-4 -144 7 -233q10 -79 -7 -220q-12 -87 -72 -175q-62 -89 -141 -143q-79 -55 -170 -64q-90 -9 -159 67l-2 -13q5 -68 -27 -84zM629 1067l-56 -96
q-66 -109 -137 -250q-248 -484 -190 -578q18 -32 53 -44t75.5 -0.5t80 38.5t71.5 77t45 112q20 94 14 369q-7 275 44 372z" />
    <glyph glyph-name="c" unicode="c" horiz-adv-x="1150" 
d="M772 1028q-70 -28 -178 -105q-113 -81 -218 -180q-107 -101 -166 -216q-58 -115 -17 -195q52 -99 175 -134q120 -34 236 11q81 31 191 135q3 3 17 27q16 26 28 39q10 16 37.5 11t54.5 -36q66 -77 41 -143q-3 -9 -7.5 -17.5t-11 -16t-12 -13.5t-14.5 -12.5t-13 -9.5
t-12.5 -8.5t-9.5 -6.5l-14 -8q-71 -70 -184 -106t-222 -36q-132 -2 -238 55q-107 55 -163 158q-70 122 -49 283q17 117 147 273q130 154 277 266q146 110 221 126q89 70 172 76q48 152 55 191q12 52 113 69q94 13 122 -24q23 -29 -24 -76q-19 -19 -37 -62
q-76 -133 -124 -292q-50 -165 -50 -283q0 -6 6 -37q6 -30 -2 -52q-7 -22 -37 -30q-128 -43 -156 21q-12 25 -12 70v24q0 20 78 264z" />
    <glyph glyph-name="d" unicode="d" horiz-adv-x="1028" 
d="M1012 1667q6 -34 -29 -104q-24 -50 -25 -52q-8 -22 -38 -155q-81 -325 -137 -728q-58 -406 -64 -706q0 -25 21 -44q20 -20 20 -40q-2 -74 -74 -160t-141 -30q-51 27 -36 112q3 20 12 66q3 13 8 41.5t8 42.5q4 22 43 311q1 10 6.5 50t9.5 70q11 83 18 142l-4 -8v-2
q-68 -173 -174 -330q-96 -133 -207 -129q-99 6 -157 99q-38 56 -49 139q-25 195 73 428q107 261 287 393q50 38 111 43q54 4 110 -4q60 0 92 -6h2q10 81 32 214q24 145 29 181q9 59 7 78q-14 101 44 135q59 35 126 14q69 -23 76 -61zM578 969q-135 6 -267 -224
q-143 -254 -123 -436q6 -44 25 -67q18 -22 53 -27q86 -5 178 174q91 167 162 365q25 65 33 97q9 33 10 61q2 31 -15 43t-56 14z" />
    <glyph glyph-name="e" unicode="e" horiz-adv-x="997" 
d="M221 909q-19 -1 -29 19.5t-13 47.5q-6 80 -7 91q-4 42 16.5 64t49.5 19q26 -3 45 -3q126 -26 248 -18q88 6 108 8q74 9 129 17q91 13 115 15q53 6 82 -63q33 -73 -4 -113q-22 -27 -72 -16q-203 41 -387 27l-113 -11q84 -29 229 -63t205 -62q3 0 21.5 -5.5t29.5 -10.5
q13 -7 23 -31.5t10 -58.5q0 -50 -8 -96q-12 -44 -48 -52.5t-118 13.5q-25 6 -122 -6q-107 -15 -208 -38q-112 -25 -187 -84t-48 -134q33 -94 143 -141q109 -48 242 -36q117 11 221 62q1 0 25 19q16 14 37 25q15 12 41 2.5t45 -42.5q41 -66 -7 -123q-10 -12 -24 -22
t-27.5 -16.5t-24 -11t-20.5 -7.5l-10 -4q-96 -46 -216 -63q-116 -17 -218 3q-214 40 -305 211q-17 32 -23 51q-61 162 -6 271q85 165 584 223q80 11 73 27q-16 17 -171 58q-149 39 -195 44q-14 1 -55 6q-45 5 -56 8z" />
    <glyph glyph-name="f" unicode="f" horiz-adv-x="849" 
d="M518 1667q7 -37 -26 -105q-16 -31 -25 -51q-9 -21 -41 -155q-9 -36 -20 -86q-14 -58 -15 -66q108 19 248 58q7 2 20 20t23 25q95 61 139 -11q35 -58 4 -125q-26 -53 -82 -53q-74 2 -346 -59q238 -114 285 -125q18 -5 23 -8q41 -11 51 -100q10 -90 -13 -117
q-125 -171 -236 -383q-109 -206 -179 -404q-5 -14 -19 -81q-13 -59 -34 -106q-21 -44 -58 -69q-51 -36 -92 -37h-4l-2 -2h-17l-2 2h-2q-30 5 -47 19q-51 27 -36 112q4 26 13 66q9 46 15 84q12 62 45 311q14 126 51 401q15 110 30.5 229.5t16.5 125.5l-32 6q-14 4 -41 1
t-35 4q-16 9 -21 38q2 14 -2 39q-5 29 -3 50q2 20 14 26q46 18 151 45q3 20 10 61t9 54q7 40 16 103q4 27 12 79q12 78 8 96q-14 101 46 135q59 35 126 14q67 -23 74 -61zM340 936q-85 -463 -107 -860q8 16 101 205q36 76 126 257q64 128 85 173q1 4 10 21.5t10 21.5l5 10
t6 14.5t1 10.5q-6 26 -30 40q-152 89 -207 107z" />
    <glyph glyph-name="g" unicode="g" horiz-adv-x="944" 
d="M604 492q-62 -176 -162 -332q-90 -135 -200 -135q-94 0 -162 90q-43 55 -55 135q-31 195 57 424q96 256 270 399q52 44 130 46q14 2 47 0q21 -1 44 -1q73 0 93 -2l18 6q7 69 68 89q59 18 116 -4q56 -23 64 -56q6 -35 -28 -104q-18 -35 -25 -52q-7 -18 -39 -155
q-83 -335 -123 -619q-47 -311 -53 -627q0 -16 8 -83q8 -63 2 -105t-35 -70q-62 -49 -114 -32q-52 18 -79 73q-29 56 -12 103q1 9 19 27q15 17 26 73q27 189 115 832q1 16 10 80zM551 977q-135 0 -256 -232q-135 -254 -107 -432q6 -41 27 -65q20 -23 55 -23q84 0 172 177
q86 171 148 364q6 18 19.5 56.5t17.5 49.5q18 52 13 68q-6 20 -25 28.5t-64 8.5z" />
    <glyph glyph-name="h" unicode="h" horiz-adv-x="882" 
d="M530 1667q6 -35 -28 -104q-18 -35 -25 -52q-9 -21 -41 -155q-102 -398 -168 -924q107 201 232 447q20 44 39 118q18 73 39 111q28 51 76 66q46 13 139 12q33 -1 51 -15t20.5 -33.5t-1 -38t-11.5 -30.5q-48 -83 -83 -274q-33 -178 -44 -311q-8 -92 -25 -341
q-1 -10 -0.5 -20t1.5 -25t1 -18q-2 -53 -71 -76q-77 -23 -111 19q-25 26 -10 73q38 136 54 407q8 132 14 175q1 22 10 76l2 32q-4 -1 -45 -79v-2l-2 -5q-4 -8 -67 -125q-61 -110 -86 -159q-32 -62 -74 -151q-81 -172 -89 -298l-2 -45q0 -16 9 -89q8 -76 2 -126
q-8 -54 -35 -78q-62 -55 -154 19q-52 29 -35 111l5.5 27.5t8.5 39.5q9 46 15 84q25 149 47 311q1 7 23 193q26 214 26 215q15 114 29 199q20 134 37 225q38 178 45 209q11 45 28 160q15 110 9 157q-13 101 45 135q59 35 126 14q67 -23 74 -61z" />
    <glyph glyph-name="i" unicode="i" horiz-adv-x="413" 
d="M109 8q-47 -2 -72 37t-24 82q1 41 3 68q21 114 74 459q55 354 53 429q-2 50 38 79q40 30 91 28q57 2 81 -34t-13 -114q-10 -16 -19 -51q-7 -22 -12 -37q-127 -395 -110 -733v-18q0 -11 13 -53q13 -43 10 -73t-29 -44q-50 -27 -84 -25zM299 1286q-25 0 -53 19
q-45 44 -44 86.5t40 83.5q55 55 104 38q45 -14 50 -70q5 -57 -24 -107q-30 -50 -73 -50z" />
    <glyph glyph-name="j" unicode="j" horiz-adv-x="522" 
d="M479 1098q2 -37 -24.5 -92.5t-28.5 -63.5q-59 -206 -131 -649q-70 -433 -82 -686q0 -12 24 -31t25 -43q2 -39 -21 -102q-25 -63 -51 -82q-57 -51 -133 6q-48 38 -49 78q-2 44 23 159q48 299 96 629q32 208 53 371q5 33 10 71t11.5 85t10.5 74q14 112 17 126q2 19 -4 43
l-8 23q-8 54 37 112q29 35 84 38t98 -18t43 -48zM406 1274q-24 0 -56 20q-47 45 -46 90.5t42 88.5q26 27 103 22q53 -5 60 -59q7 -55 -25 -109q-33 -53 -78 -53z" />
    <glyph glyph-name="k" unicode="k" horiz-adv-x="761" 
d="M508 1677q7 -36 -26 -105l-25 -50q-15 -37 -26 -93q-13 -59 -15 -63q-60 -253 -107 -532q-10 -67 -14 -96t-2 -29t16 26q20 39 95 179q80 152 106 208q21 50 88 102q32 28 72 11t71 -78q25 -47 -50 -107q-33 -27 -40 -36q-151 -185 -219 -332q-6 -14 -13.5 -29t-8.5 -18
q-5 -15 12 -47q164 -345 178 -369q27 -57 26 -133q-1 -43 -38.5 -63.5t-104.5 -6.5q-29 6 -40 32t-12 74q-1 44 -3 54q-27 110 -68 213q-12 35 -22 49q-9 10 -17 2t-18 -34q-68 -162 -74 -248q-7 -116 -12 -226q0 -20 10 -81q9 -64 3 -107q-7 -43 -35 -68q-38 -32 -84 -37
q-45 -4 -68 19q-54 30 -37 111l5.5 27.5t8.5 39.5q9 46 15 84q3 14 43 311q0 7 46 350q46 345 69 513q7 51 34 223q7 45 16.5 108t12.5 83q10 61 8 81q-14 101 45 135q59 35 125 14q67 -23 74 -61z" />
    <glyph glyph-name="l" unicode="l" horiz-adv-x="528" 
d="M514 1667q7 -37 -26 -105q-16 -31 -25 -51q-13 -33 -27 -94l-14 -61q-78 -323 -135 -730q-58 -406 -64 -704q0 -20 10 -81q9 -64 3 -107q-7 -43 -35 -68q-38 -34 -84.5 -38t-69.5 20q-52 29 -35 111l5.5 27.5t8.5 39.5q9 46 15 84q0 4 2 17.5t6.5 44t8.5 58.5
q9 69 26 191q0 8 46 349q46 345 69 513q6 41 34 224q7 45 16.5 108t12.5 83q10 61 8 81q-14 101 45 135q59 35 125 14q67 -23 74 -61z" />
    <glyph glyph-name="m" unicode="m" horiz-adv-x="1226" 
d="M393 1298q-4 -5 -28 -90q-58 -240 -113 -592q-3 -16 -5.5 -33t-4.5 -29t-4 -24.5t-3.5 -21.5t-2.5 -17t-2 -13t-1.5 -9t-0.5 -5l-1 -1q2 -9 11 10q6 12 55 121q62 144 143 313q17 37 39 103q19 56 41 98q27 51 74 66q46 14 141 12q43 -1 60.5 -25t14.5 -49.5t-15 -42.5
q-76 -135 -117 -512l45.5 94.5t47.5 98.5q70 143 77 157q17 38 39 101q18 57 43 100q27 51 74 66q47 14 139 12q33 -1 51.5 -15t21 -33.5t-1.5 -38t-12 -30.5q-136 -239 -149 -889q0 -19 4 -58q4 -38 2 -67q-3 -27 -26.5 -50t-67.5 -28q-51 -4 -86 29q-35 34 -19 90
q34 136 48 242q11 85 14 110l12 120l10 106q2 33 12 96q12 75 4 77q-5 2 -19 -28l-9 -18q-7 -13 -68 -133q-54 -103 -88 -174q-23 -48 -64 -152q-39 -99 -53 -166q2 -14 2 -31q-1 -52 -71 -75q-76 -22 -111 18q-25 27 -10 74q38 153 67 403q23 195 -5 195q-6 -1 -15 -10
q-10 -11 -31 -50q-229 -433 -270 -692q27 -96 -18 -121q-132 -67 -168 23q-11 24 -8 104q2 17 6 35q1 6 26 172q160 991 154 1116q-4 72 73 99q73 27 119 -11q48 -41 -2 -127z" />
    <glyph glyph-name="n" unicode="n" horiz-adv-x="868" 
d="M240 -330q-18 -35 -89 -38q-70 -3 -117 47q-46 50 -5 143q19 46 35 155q16 111 16 160q4 55 4 84q1 17 7 77q5 48 5 52q23 243 60 515q37 270 51 401q4 29 7 85q1 16 5 68q1 15 10 43q7 22 18.5 33t37.5 23q106 43 151 -25q27 -39 8 -88q-4 -10 -23 -56q-16 -38 -17 -45
q-3 -10 -9 -48q-6 -40 4 -66q4 -28 31 -162q12 -58 21 -102q22 -125 49 -240q7 -34 20 -92q18 -94 29 -96q2 -1 4 3t4 13q4 10 16 88q53 285 66 586q4 82 80 76q69 -1 112 -58q23 -32 17 -61q-1 -6 -10 -29t-11 -31q-114 -522 -125 -737q-4 -117 13 -194q10 -34 -8 -74
q-20 -39 -82 -23q-92 26 -130 53q-39 26 -53 83q-10 40 -8 117t-4 124q-39 235 -98 494q-80 -488 -96 -934q0 -10 -4 -70q-5 -71 -1 -90q1 -9 8 -46.5t8 -43.5q9 -47 -7 -74z" />
    <glyph glyph-name="o" unicode="o" horiz-adv-x="741" 
d="M520 -16q-149 63 -311 55q-26 -1 -77 -19q-50 -19 -66 -20q-39 -2 -50 33q-12 36 7 79q18 44 51 60q35 11 52 9q23 -2 52 -11q34 -10 51 -12q87 -4 287 -39q-67 51 -106 71q-27 14 -84 32q-55 17 -80 30q-235 127 -174 469q26 143 129 281q104 137 231 149q105 8 197 -71
q92 -80 98 -185q10 -165 -53 -354q-44 -120 -109 -195q-14 -18 -35 -35t-23 -21q-1 -2 5 -18q81 -74 143 -104q14 -18 13 -69q-1 -53 -45 -97t-103 -18zM387 977q-112 -96 -156 -275q-35 -117 -9 -222t118 -105q69 0 134 96q63 96 87 219q23 129 14 203q-7 93 -62 119
q-54 24 -126 -35z" />
    <glyph glyph-name="p" unicode="p" horiz-adv-x="899" 
d="M477 1178q7 -38 -26 -104q-19 -34 -25 -52q-30 -73 -80 -309q82 123 177 294q95 173 110 250q6 22 6 47q0 6 4 15q4 11 22 23t132 12h16q41 0 59.5 -23.5t14.5 -52.5q-4 -25 -15 -43q-24 -40 -43 -129q-36 -158 -41 -313q-4 -144 7 -233q10 -79 -7 -220
q-17 -134 -134 -254q-118 -121 -244 -129q-92 -5 -158 45q-28 -237 -29 -410q0 -20 10 -81q9 -64 3 -107q-8 -44 -35 -70q-37 -33 -83 -37q-45 -4 -71 19q-39 30 -39 69q0 27 4 44q1 5 5.5 27t8.5 39q10 51 15 83q19 133 86 643q6 45 72 531q41 292 32 340q-14 101 46 135
q60 35 126 13q66 -23 74 -62zM401 94q71 5 136 67q66 63 88 165q20 92 12 370q-7 277 45 371q-278 -462 -340 -596q-54 -110 -59 -243q-2 -64 28.5 -101t89.5 -33z" />
    <glyph glyph-name="q" unicode="q" horiz-adv-x="860" 
d="M606 492q-58 -172 -160 -332q-92 -135 -200 -135q-96 0 -162 90q-43 55 -55 135q-31 195 57 424q96 256 270 399q52 44 130 46h26.5t37 -0.5t25.5 -0.5q72 0 129 -30.5t86 -80.5q52 -94 52 -167q0 -20 -10 -51q-11 -35 -11 -37q-133 -567 -153 -1080q0 -13 34 -26
q33 -13 31 -27q0 -101 -63 -223q-19 -33 -68 -31q-48 1 -78 25q-53 41 -58 58t3 142q11 169 92 631q22 121 37 201q3 13 8 70zM555 977q-138 0 -256 -232q-135 -253 -106 -432q6 -45 26 -65q20 -23 55 -23q84 0 170 176q87 172 148 365q5 15 12.5 36t16 43t10.5 28
q18 50 13 67q-6 20 -24.5 28.5t-64.5 8.5z" />
    <glyph glyph-name="r" unicode="r" horiz-adv-x="757" 
d="M350 1094q-15 -29 -53 -158q-22 -70 -21 -74l25 41q19 38 35 68q1 2 4.5 8t9 16t11.5 20q6 11 11.5 21t10 18t6.5 11q9 16 29 49q21 37 33 53q39 56 72 89q40 40 79 59q21 8 55 -17q36 -27 52 -57q44 -74 24 -106q-72 -125 -96 -169q-29 -52 -63 -147q-35 -97 -44 -178
q0 -1 1.5 -12.5t2 -20t-1.5 -16.5q-1 -45 -71 -66q-76 -22 -109 19q-16 19 -8 55q27 95 160 371q44 86 26 94q-13 6 -69 -92q-11 -19 -84 -140q-75 -123 -117 -206q-41 -81 -47 -125q-25 -165 -25 -301v-19q0 -10 12 -52q10 -42 9 -72q-1 -31 -29 -46q-64 -33 -104 -24
t-51 50q-28 100 -13 136q21 113 88 513q61 378 60 448t78 98q74 26 116 -12q47 -41 -4 -127z" />
    <glyph glyph-name="s" unicode="s" horiz-adv-x="931" 
d="M162 889q-22 2 -28 30t1.5 67t24.5 81q15 39 39.5 57.5t45.5 15.5q19 -3 36 -3q60 4 67 -1q6 -6 64 1q55 6 61 4q4 -1 61 6q16 2 30.5 4t21.5 3l6 1l6 1q6 1 21.5 4t31.5 6q53 10 60 10q1 0 62 11q17 3 32.5 6t24 5t10.5 2q54 8 82 -59q28 -70 -9 -113q-26 -29 -73 -20
q-213 29 -385 4l-115 -19q116 -32 428 -176q2 -1 30 -10t39 -16q12 -8 19 -23q6 -15 20.5 -46.5t17.5 -38.5q6 -18 9 -28q7 -29 -12 -59q-17 -27 -69 -60q-56 -36 -72 -53q-80 -74 -169 -152q-148 -132 -189 -170q-77 -71 -107 -104q-2 -2 -25 -34t-45 -46l-2 -2h-2
q-13 -10 -29 -10q-61 -18 -100.5 -8t-52.5 41q-32 74 -17 104q0 4 25 119q56 312 67 406q3 20 4 52q2 49 5 66q4 27 28 49.5t62 24.5q53 5 86 -35q33 -39 6 -79q-11 -18 -53 -103q-16 -76 -20 -96q-8 -36 -19 -91q-2 -9 -5.5 -33.5t-5.5 -36.5q-14 -85 -14 -155q43 18 98 62
q55 43 99 83q40 37 122 116q81 77 105 102q29 27 60 58q15 15 26 42q9 24 -8.5 43.5t-67.5 44.5q-98 51 -229 95q-126 42 -221 53z" />
    <glyph glyph-name="t" unicode="t" horiz-adv-x="2019" 
d="M1192 1667q6 -35 -28 -104q-18 -35 -25 -52q0 -1 -9 -20q131 4 230 2q125 0 194 -6q96 -8 252 14q162 20 195 -80q23 -64 -14 -108q-12 -13 -23 -17q-57 -20 -117 2q-25 7 -63.5 28t-48.5 25q-27 10 -68 11q-247 14 -569 -2v-4q-85 -325 -143 -728q-61 -414 -68 -706
q0 -12 8 -90q8 -76 2 -126q-6 -52 -37 -77q-61 -55 -151 19q-21 15 -30 29.5t-9 38.5q0 26 3 44q4 26 13 66q9 39 16 84q25 145 46 311q8 66 30 246q18 158 41 316q19 135 45 270q17 104 43 209q10 41 19 90q-342 -20 -615 -60q-15 -1 -61 -14q-61 -17 -77 -21
q-33 -11 -72 -9t-58 20q-55 46 -8 141q18 51 97 49q3 0 61 -2t77 -2q86 1 672 31q8 70 2 94q-12 101 48 135q59 35 126 14q67 -23 74 -61z" />
    <glyph glyph-name="u" unicode="u" horiz-adv-x="991" 
d="M735 727q-15 -30 -50 -148q-35 -119 -89 -251q-39 -96 -143 -242q-42 -64 -120 -104q-40 -22 -97.5 -14t-110.5 48q-46 32 -71 86q-26 52 -37 99t-11 120q0 75 3 103q1 8 2.5 21t4 34t4.5 37q1 11 3 19q32 265 184 534q9 16 16 54q7 39 29 61q20 20 67 28q66 10 106 -36
q41 -46 3 -105q-1 -4 -21 -19q-22 -18 -28 -32q-80 -136 -131 -303q-85 -267 -65 -444q11 -95 59 -126q59 -39 140 68q80 105 145 267q61 154 109 298q47 138 48 172q14 164 51 200q37 35 170 34q43 -1 62.5 -24.5t18.5 -49.5t-13 -43q-66 -130 -96 -361q-31 -224 -29 -468
q0 -15 4 -36t4 -28q0 -47 -54 -71q-53 -25 -103 -2t-37 90q4 17 4 28q17 93 30 178q12 94 20 170q10 100 19 158z" />
    <glyph glyph-name="v" unicode="v" horiz-adv-x="780" 
d="M303 1022q-9 -14 -17.5 -50t-9.5 -38q-69 -237 -86 -481q-7 -121 -2 -125q2 -1 4.5 2t6.5 10q1 2 53 102q239 470 301 754q19 65 20 92q0 111 74 111q59 2 103 -60q45 -59 8 -114q-41 -60 -251 -553q-221 -519 -235 -557q-56 -150 -166 -92q-57 32 -78.5 65t-13.5 86
q5 11 6 47q100 713 91 842q-6 69 71 98q72 27 119 -12q49 -40 2 -127z" />
    <glyph glyph-name="w" unicode="w" horiz-adv-x="1196" 
d="M653 35q-18 -29 -62.5 -27t-83.5 30q-26 18 -40 46t-8 55q17 72 31 276q5 82 14 177q-41 -79 -122 -208q-89 -142 -108 -175q-10 -16 -34 -74q-22 -54 -35 -72q-41 -53 -113 -53q-54 0 -74 45t-6 105q0 6 7 27q7 26 8 34q95 399 102 750q0 19 -4 58q-4 38 -2 68
q3 27 26 49.5t66 27.5q53 4 90 -30q36 -34 17 -89q-16 -40 -57 -286q-42 -245 -48 -363q-1 -44 12 -39q2 0 4 2q63 45 175 283q112 237 114 323q-2 14 -2 31q2 52 72 75q76 22 110 -18q23 -28 11 -74q0 -1 -7 -19.5t-15.5 -48t-12.5 -55.5q-82 -525 -39 -524q17 0 45 55
q83 160 171 383q86 218 112 363q-27 96 18 121q96 37 141 15t48 -93q0 -42 -48 -137t-241 -517q-169 -370 -232 -497z" />
    <glyph glyph-name="x" unicode="x" horiz-adv-x="808" 
d="M125 8q-61 -6 -92 18.5t-27 67.5q7 76 37 127q88 130 262 412q23 39 24 42t-14 44q-22 63 -84 211q-1 2 -7 20t-14.5 35.5t-16.5 28.5q-70 95 2 139q57 33 124 2q56 -27 60 -82q0 -31 39 -182l12 -45q1 -1 2 0l3.5 3.5t4.5 6.5q1 2 13 18q105 179 118 218q22 70 109 67
q75 -1 104 -51q28 -55 -49 -119q-15 -14 -61 -74q-80 -96 -162 -210q-26 -37 -28 -45q-1 -8 14 -54q16 -50 67 -224q26 -92 58 -194q23 -74 24 -82q19 -56 0 -136q-20 -87 -151 -42q-45 18 -33 101q4 31 3 32l-4 -1q-4 0 -12 -0.5t-18 -0.5q-46 -6 -254 -51h-53zM420 197
q35 12 37 17t-6 44q-17 93 -50 201q-14 47 -18 47q-3 -3 -35 -55q-86 -149 -125 -248q-17 -41 -12 -43q1 -2 45 0q88 6 164 37z" />
    <glyph glyph-name="y" unicode="y" horiz-adv-x="829" 
d="M487 416q-167 -337 -221 -434q-33 -45 -130 -29q-98 17 -111 55q-18 56 -13 213q10 177 69 515q58 335 58 345q4 44 13.5 68t37.5 46q29 25 80 26q63 2 90 -30.5t21 -86.5q-5 -38 -36 -81q-31 -42 -42 -73q-50 -146 -97 -410q-47 -261 -42 -362q3 -45 16 -45q4 0 9 5
q9 8 30 44q153 282 230 486q54 144 67 290q10 100 54 126t163 24q41 0 62 -23.5t18 -51.5q-1 -21 -10 -44q-68 -135 -164 -726q-96 -593 -96 -822q0 -7 4 -32.5t4 -31.5q0 -46 -62 -69q-64 -21 -119 4q-58 26 -44 94q141 702 192 987q4 25 12 66q3 17 5.5 29t3.5 18t0 6
l-21 -33q-3 -6 -13.5 -26.5t-17.5 -36.5z" />
    <glyph glyph-name="z" unicode="z" horiz-adv-x="874" 
d="M801 877q-52 -20 -118 -58q-75 -43 -127 -74q-21 -13 -71 -43.5t-71 -43.5q-85 -53 -121 -74q-100 -58 -108 -97q-9 -38 42 -100q51 -73 200 -186q54 -41 87 -70q49 -46 70 68q5 33 10 110q1 18 4 43q0 92 -4 107q-14 43 30 87q45 45 93 46q45 3 56.5 -27t2.5 -73
q-2 -13 -12.5 -52.5t-11.5 -48.5q-25 -132 -58 -377q-2 -34 -31 -65.5t-79 -44.5q-68 -14 -89 -4q-24 10 -61 55q-21 27 -166 169q-27 26 -61.5 58.5t-40.5 38.5q-145 141 -150 170q-6 51 6 114q11 62 41 89q36 32 175 115q39 22 191 114q138 83 194 115q92 53 92 59l-15 2
q-53 -5 -241 3q-192 6 -260 -7q-22 -4 -33 -22t-2 -29q8 -8 48 -42q39 -33 44 -40q33 -52 -41 -90q-36 -21 -72.5 -17t-48.5 36q-2 5 -26 34t-46.5 64.5t-23.5 62.5q-6 43 53 112t78 69q71 4 321 1q238 -4 316 13l18 4q22 3 47 -7q22 -9 27 -65q4 -66 -11 -129
q-15 -61 -46 -73z" />
    <glyph glyph-name="braceleft" unicode="{" horiz-adv-x="815" 
d="M762 1624q-40 -64 -80 -145q-38 -77 -54 -120q-21 -51 -53 -144q-47 -131 -51 -142q-58 -166 -184 -237q115 -108 99 -252q-8 -62 3 -148q19 -245 129 -508q12 -30 49 -81q35 -49 44 -68q33 -84 -27 -115q-65 -33 -109 30q-15 23 -36 73q-11 23 -11 24q-111 212 -168 430
q-23 94 -41 221q-1 28 -3 86t-3 91q-2 37 -22.5 76.5t-55.5 62.5q-16 16 -30 25q-30 19 -54 10q-61 -16 -81 41q-23 59 24 104q28 28 80 33q83 6 127 28q49 22 117 152q53 105 86 205q29 92 74 178q41 77 163 235q58 81 92 91q57 14 88 -23q17 -32 18.5 -47.5t-14.5 -41.5
q-18 -24 -37 -40q-50 -40 -79 -84z" />
    <glyph glyph-name="bar" unicode="|" horiz-adv-x="407" 
d="M371 1511q-10 -35 -31 -155q-60 -310 -106 -724q-46 -404 -52 -710q0 -11 8 -80q8 -63 3 -107q-5 -43 -27 -69q-30 -34 -67 -38t-54 20q-39 26 -29 111q1 17 11 67q7 46 12 84q1 8 35 311q48 470 90 862q11 100 27 224q9 69 23 191q7 60 5 81q-10 87 55 143q57 45 97 9
q52 -52 0 -220z" />
    <glyph glyph-name="braceright" unicode="}" horiz-adv-x="827" 
d="M70 -147q40 64 80 145q36 76 54 120q25 67 53 144q43 121 50 141q58 166 185 238q-116 109 -100 252q8 61 -3 147q-19 245 -129 508q-12 30 -49 81q-36 51 -43 69q-33 84 27 114q65 35 109 -30q18 -30 36 -72q2 -6 4.5 -11t4 -8.5t1.5 -4.5q112 -212 168 -431
q23 -94 41 -221q1 -27 3 -85t3 -91q2 -38 22.5 -77t55.5 -62q17 -17 31 -26q30 -19 53 -9q61 16 82 -41q23 -59 -25 -104q-28 -28 -79 -33q-81 -6 -127 -29q-49 -22 -117 -151q-53 -105 -86 -205q-31 -95 -75 -178q-40 -75 -163 -236q-57 -79 -92 -90q-57 -14 -88 23
q-17 31 -18 47t15 41q16 23 36 40q51 42 80 85z" />
    <glyph glyph-name="asciitilde" unicode="~" horiz-adv-x="1200" 
d="M29 483q35 53 45 66q72 94 203 108q131 13 258 -57q4 -2 12.5 -7t22.5 -12.5t27 -15.5q42 -25 70 -38q34 -17 59 -28q68 -32 126 -32q92 0 156 70q100 108 145 105q14 0 18 -14q8 -26 -10.5 -75.5t-54.5 -95.5q-96 -123 -262 -119q-82 0 -190 55q-43 22 -98 54
q-44 25 -89 49q-209 104 -299 -50q-73 -127 -131 -112q-42 10 -35 76q4 35 27 73z" />
    <glyph glyph-name="exclamdown" unicode="&#xa1;" horiz-adv-x="454" 
d="M43 63q112 261 182 619q70 354 62 625q0 34 24.5 44t50.5 -8q38 -18 52 -135q23 -270 -62 -794q-12 -86 -30 -196q-17 -95 -28 -167q-9 -57 -7 -76q11 -68 -72 -110q-86 -44 -152 -6q-86 47 -20 204zM401 1468q-19 -19 -55 -24q-61 -10 -88 26q-27 35 -18 86q11 78 49 93
q41 12 77.5 -4.5t52.5 -49.5q16 -31 12 -68t-30 -59z" />
    <glyph glyph-name="cent" unicode="&#xa2;" horiz-adv-x="1007" 
d="M772 1024q-73 -32 -162 -94q-46 -386 -59 -740q37 7 55 15q81 31 191 135q3 3 17 27q16 26 28 39q10 16 37.5 11t54.5 -36q66 -77 41 -143q-20 -49 -82 -84l-12 -9q-120 -114 -336 -137q0 -13 1 -44.5t1 -35.5q0 -9 13 -51q27 -91 -19 -117q-52 -28 -88 -26t-52 27
q-14 21 -26 54q-6 18 -7 39t1 43t2 25l1 4q1 3 2 9t1 12q8 54 8 63q-217 38 -309 207q-70 118 -49 283q17 126 157 287q141 162 303 278q10 104 11 112q8 83 10 102q4 36 6 58q0 4 -6 14.5t-6 12.5q11 120 67 154q39 25 91 20q48 -6 68 -42q19 -36 -17 -107q-9 -15 -31 -89
q-14 -44 -33 -141l25 6q89 70 172 76q33 110 32 113q12 52 113 69q95 13 123 -24q23 -29 -25 -76q-11 -11 -36 -61q-153 -261 -154 -498q0 -3 4 -28t5 -35q1 -18 -9 -34.5t-31 -21.5q-128 -43 -156 21q-12 25 -12 70v24q0 15 76 264zM463 815q-151 -128 -236 -262
q-82 -130 -32 -225q58 -116 206 -142q23 205 62 629z" />
    <glyph glyph-name="sterling" unicode="&#xa3;" horiz-adv-x="1241" 
d="M778 -197q-14 4 -69 -4q-318 -27 -527 -172q-3 -2 -12 -11.5t-19.5 -22t-16.5 -18.5q-14 -14 -29.5 -17.5t-32.5 12.5q-72 66 -62 115q11 50 38 73q28 25 54 31q6 2 19 6q102 30 186 58q6 26 12 65q15 81 43 303q2 19 26 201q21 161 26 203q-33 -8 -41 -10
q-21 -6 -56 -13q-7 -3 -39.5 -18t-43.5 -20q-20 -10 -45.5 -8t-38.5 19q-80 115 -5 159q59 34 131 40q46 0 144 2q0 25 16 47l6 8q7 62 19 132q12 79 18 120q11 78 35 225q21 123 30 191q9 62 7 80q-14 101 44 135q59 35 126 14q67 -22 76 -61q6 -34 -29 -104
q-24 -50 -25 -52q-8 -22 -38 -155q-10 -32 -27 -109q226 445 291 588q63 145 168 84q56 -34 76 -68.5t10 -89.5q-15 -60 -61 -338q-46 -265 -44 -342q1 -72 -78 -94q-76 -22 -118 21q-45 43 6 125q9 16 21 51.5t12 36.5q81 236 92 352q7 96 -84 -66q-35 -62 -81 -143.5
t-58 -103.5q-45 -81 -104 -206q-59 -124 -85 -210q-5 -9 -18 -60q243 12 299 25q72 18 114 -59q37 -70 4 -119q-35 -47 -122 -17q-22 8 -57 12q-35 3 -36 3q-195 23 -258 18q-54 -385 -59 -614q0 -17 6 -61q6 -42 6 -52q35 12 73 25.5t52.5 18.5t16.5 5q1 0 11.5 7.5
t22.5 15t21 11.5q39 18 82 -19q55 -49 61 -119q2 -33 -12.5 -49t-46.5 -15q-7 0 -23 2z" />
    <glyph glyph-name="currency" unicode="&#xa4;" horiz-adv-x="1382" 
d="M262 905q19 61 47 105q1 2 5 7t11.5 16t14.5 22q-115 6 -217 -27q-32 -6 -45 -14q-53 -38 -64 33q-7 55 15 106q9 21 23.5 30.5t25.5 6.5q5 -1 14.5 -4t17 -5.5t9.5 -2.5q113 -10 370 -2h15q0 4 4 0q48 23 121 38q122 27 262 -26q264 -8 362 2q2 0 23 8t37.5 2t29.5 -35
q31 -65 11 -123q-14 -47 -60 -16q-13 8 -45 14q-74 24 -180 29q52 -63 78 -143q25 -88 18 -199t-45 -195q61 0 133 5q2 0 9.5 2.5t17 5.5t15.5 4q11 2 25 -8t23 -29q31 -65 11 -123q-14 -47 -60 -16q-13 8 -45 14q-122 37 -233 25q-8 -4 -15 -6q-79 -33 -157 -54
q-8 -6 -19 -6q-156 -35 -278 -12q-7 0 -15 4q-56 10 -120 45l-19 12q-133 23 -270 -20q-33 -6 -45 -15q-53 -38 -64 33q-7 55 15 107q9 19 23.5 29t25.5 8q6 -1 22 -7t19 -6q39 -4 178 -4q-90 198 -35 385zM967 907q-57 48 -144 71q-87 21 -166 11q-136 -17 -223 -92
q-88 -76 -61 -199q25 -109 145 -140q121 -32 237 -7q115 24 187 65q88 52 97 138q7 86 -72 153z" />
    <glyph glyph-name="yen" unicode="&#xa5;" horiz-adv-x="1054" 
d="M655 680q0 -1 -7 -15t-23 -48t-34 -71q-64 -133 -94 -194q-28 -58 -85 -160q-55 -98 -88 -141q-45 -49 -156 -31q-111 16 -129 62q-57 136 35 623q37 202 118 542q77 319 78 328q7 18 10 55q3 29 16 52q28 49 112 57q74 2 106.5 -36t26.5 -101q-5 -51 -49 -103
q-81 -94 -188 -570t-101 -644q4 -103 65 2q276 511 342 692q64 170 80 344q12 119 64 149q51 29 194 27q52 0 75 -29q21 -29 19 -60t-12 -50q-55 -111 -141 -530q-87 -429 -146 -838q90 0 166 4q4 0 28.5 5.5t34.5 6.5q16 2 37.5 -7.5t34.5 -29.5q39 -51 21 -113
q-18 -60 -94 -26q-15 7 -68 14q-77 14 -176 23q-8 -78 -12 -109q107 0 194 4q4 0 28 5.5t35 7.5q16 2 37 -8t35 -29q39 -51 21 -113q-18 -60 -94 -26q-15 7 -68 14q-104 21 -203 25q-10 -113 -8 -175q0 -5 4 -37t4 -36q2 -57 -77 -97q-89 -43 -144 0q-48 37 -26 140
q2 10 43 200q-77 -6 -148 -24q-6 -2 -29 -14t-31 -16q-40 -17 -61 13q-59 102 0 138q53 35 95 30h20q33 0 74 -1t106 -1q6 37 23 111q-95 -6 -197 -29q-5 -1 -15 -6t-24 -13t-21 -11q-41 -19 -61 12q-58 101 0 139q45 31 95 31h20q40 0 92 -1t133 -1q4 18 10 49t16 84t19 96
q47 250 80 434q25 134 25 140q-1 5 -12 -15q-15 -28 -50 -100z" />
    <glyph glyph-name="brokenbar" unicode="&#xa6;" horiz-adv-x="417" 
d="M381 1511q-7 -25 -33 -153q-44 -225 -78 -492q-12 -96 -63 -114q-41 -18 -55 39q-8 28 -5 67q5 50 14 129.5t11 95.5q10 97 27 225q7 54 23 191q7 59 5 82q-11 90 60 143q56 43 94 5q51 -54 0 -218zM229 518q-35 -360 -36 -594q0 -20 6 -82q6 -64 2 -105q-5 -44 -27 -71
q-30 -32 -65.5 -37t-55.5 19q-30 30 -30 69q0 18 2 44q1 8 10 66q8 49 12 83q1 9 5 44.5t12.5 113t17.5 153.5q9 84 16 148q4 39 10 94t7 68q6 57 38 84q31 25 58 0q25 -27 18 -97z" />
    <glyph glyph-name="section" unicode="&#xa7;" horiz-adv-x="1048" 
d="M645 221q-50 -103 -147 -167q-99 -66 -201 -66q-168 0 -250 172q-14 34 -20 61q-29 119 22 231q51 110 137 115q48 2 82 -34q35 -38 29 -82q-6 -45 -59 -60q-59 -17 -80 -77q-21 -61 5 -121q25 -59 81 -70q63 -11 138 39q76 50 116 130q40 81 12 150q-18 43 -84 85
q-65 41 -136 73q-70 32 -138 84q-67 52 -90 116q-23 63 8 169q38 108 140 176q100 67 214 76q57 133 203 198q144 64 266 19q14 -5 27 -13q16 -6 18 -4t4 27q1 6 2.5 15.5t1.5 13.5q8 77 6 96q-2 64 70 86q69 20 106 -19q38 -39 -6 -108q-31 -52 -54 -185q-24 -131 -19 -219
q0 -11 11 -39q11 -30 7 -45q-5 -19 -31 -32q-119 -62 -146 56q-5 17 -6.5 35t0 37.5t1.5 20.5q8 46 8 51q0 18 -19 45q-31 44 -83 40q-49 -4 -98 -31q-44 -26 -79 -62q-95 -104 -11 -172q36 -30 96 -64q24 -14 72.5 -40t86.5 -49t70 -49q53 -44 71 -93q47 -137 5 -251
q-44 -116 -145 -189q-105 -75 -214 -76zM401 1057q-71 -22 -135 -86q-47 -52 -49 -97.5t38 -74.5q35 -30 97 -66q27 -16 74.5 -40.5t85.5 -47t69 -48.5q53 -43 72 -93q27 -66 27 -133q90 37 151 130q60 92 25 175q-18 44 -88 87q-76 47 -143 77q-75 32 -142 90
q-69 58 -82 127z" />
    <glyph glyph-name="dieresis" unicode="&#xa8;" horiz-adv-x="401" 
d="M336 1688q23 0 33 -21q1 -2 3.5 -8.5t5 -14l3.5 -10.5q18 -43 -6 -94q-25 -49 -66 -49q-24 0 -41 14q-14 11 -26 33q-22 46 12 102q12 18 38 33t44 15zM113 1688q22 0 32 -21q2 -3 13 -33q18 -43 -6 -94q-25 -49 -68 -49q-22 0 -39 14q-17 11 -27 33q-23 47 13 102
q12 18 38 33t44 15z" />
    <glyph glyph-name="guillemotleft" unicode="&#xab;" horiz-adv-x="1495" 
d="M737 827q-29 0 -65 -18q-223 -63 -400 -186q360 -98 494 -125q10 0 27.5 -1t35 -2.5t35 -15t27.5 -39.5q23 -63 -9 -116q-32 -54 -98 0q-11 11 -61 30q-289 137 -537 133q-11 0 -25.5 -2.5t-29.5 -6.5t-21 -5q-38 -6 -71 43q-31 31 -22 80q7 49 71 78l16 8
q296 142 504 262q4 2 23 18t27 21q15 11 36 13t45 -11q26 -11 46 -37t25.5 -52.5t-13 -47t-60.5 -21.5zM1315 889q-24 0 -66 -19q-223 -63 -399 -186q363 -98 493 -125q10 0 28 -1t35 -2.5t34.5 -15t27.5 -38.5q23 -63 -9 -116q-32 -54 -97 -1q-10 9 -62 31
q-289 137 -536 133q-11 0 -25.5 -2.5t-30.5 -6.5t-21 -5q-35 -8 -71 43q-31 31 -22 80q7 48 72 77l16 8q301 144 504 263q3 1 11.5 8t20 16.5t17.5 14.5q15 11 36.5 13t45.5 -11q26 -11 46 -37.5t25.5 -53t-13 -47t-60.5 -20.5z" />
    <glyph glyph-name="degree" unicode="&#xb0;" horiz-adv-x="667" 
d="M182 410q-38 18 -69 51q-97 97 -99 287q-1 121 76 245q78 124 201 140q109 16 221 -36q110 -52 127 -147q59 -314 -68 -485q-52 -72 -172 -90q-119 -18 -217 35zM281 985q-95 -89 -105 -242q-6 -114 35 -194t133 -74q62 5 99 60q39 58 49 131q10 75 7 147t-18 115
q-26 79 -83 95q-59 17 -117 -38z" />
    <glyph glyph-name="plusminus" unicode="&#xb1;" horiz-adv-x="907" 
d="M786 487q-13 6 -67 15q-85 16 -164 22q-29 2 -30 0q-1 -1 -1 -32q-2 -112 2 -207q6 -137 -71 -164q-53 -17 -88 29q-25 32 -5 75q7 18 15 68q20 92 26 196q2 35 0 37q-1 2 -36 0q-121 -6 -201 -28q-6 -2 -30.5 -14.5t-31.5 -15.5q-43 -18 -61 11q-58 101 -1 140
q46 30 95 30h21q36 0 85 -1q48 -1 124 -1q33 -2 36 1t0 38q-11 101 -26 160q-31 123 29 147q47 18 90 -37q35 -44 32 -104q0 -30 -1 -67t-1 -97q-4 -34 -1 -39q2 -4 34 -2q90 0 166 4q4 0 28 5.5t35 7.5q16 2 37 -8t35 -29q24 -32 26.5 -75.5t-21 -65t-79.5 0.5zM786 -74
q-13 6 -67 15q-304 59 -555 -4q-6 -2 -29 -14t-31 -16q-43 -18 -61 11q-58 101 -1 140q46 30 95 30h19q398 -8 569 2q2 0 13 2.5t26 5.5t24 4q16 2 37.5 -7.5t34.5 -28.5q39 -51 21 -113q-19 -61 -95 -27z" />
    <glyph glyph-name="acute" unicode="&#xb4;" horiz-adv-x="217" 
d="M31 1462q0 1 2 11.5t5 28.5l5 30q11 67 33 103q15 25 28.5 37.5t35 13t48.5 -18.5q20 -17 14 -58q-7 -42 -28 -46q-7 -2 -15 -9t-22.5 -26.5t-22 -30t-28.5 -41.5q-27 -41 -49 -63q-20 -18 -19 10q1 6 2 16q1 3 5 18t6 25z" />
    <glyph glyph-name="middot" unicode="&#xb7;" horiz-adv-x="215" 
d="M150 600q-23 -13 -58 -8q-54 6 -71 47t4 80q33 68 67 69q56 2 84 -36q29 -39 21 -86q-7 -48 -47 -66z" />
    <glyph glyph-name="cedilla" unicode="&#xb8;" horiz-adv-x="456" 
d="M150 -125q-53 17 -35 54t63 51q33 7 54 -14q5 -5 14 -19t10 -15q26 -26 54 -50t56 -46.5t40 -32.5l8 -8q63 -53 4 -145q-7 -12 -19 -13.5t-22 3.5t-23.5 12.5t-19.5 9.5q-162 39 -262 -6q-50 -25 -64 17q-15 41 15 77q19 28 49 26q8 -1 24.5 -5t18.5 -4q104 -6 188 -3
q-67 86 -153 111z" />
    <glyph glyph-name="guillemotright" unicode="&#xbb;" horiz-adv-x="1511" 
d="M176 438q24 0 66 19q224 63 399 186q-360 98 -494 125q-10 0 -27.5 1t-34.5 2.5t-34.5 15t-27.5 38.5q-23 63 9 117q31 52 97 0q11 -10 61 -31q289 -137 537 -133q11 0 26 3t30.5 7t20.5 5q36 6 70 -43q30 -30 23 -80t-72 -78l-16 -8q-296 -142 -504 -262q-4 -2 -23 -18
t-26 -21q-15 -11 -36.5 -14t-45.5 12q-26 11 -46 37t-25.5 52.5t13 47t60.5 20.5zM768 498q23 0 66 18q224 63 399 186q-360 98 -494 125q-10 0 -27.5 1t-35 2.5t-35 15t-27.5 39.5q-22 63 9 117q32 53 98 -1q12 -11 61 -30q289 -137 537 -133q11 0 25.5 2.5t30 6.5t21.5 5
q37 6 70 -43q30 -30 23 -80q-7 -49 -72 -78l-16 -8q-296 -142 -504 -262q-4 -2 -23 -18t-26 -21q-15 -11 -36.5 -13t-45.5 11q-26 11 -46 37t-25.5 52.5t13 47t60.5 21.5z" />
    <glyph glyph-name="questiondown" unicode="&#xbf;" 
d="M600 1534q-27 -24 -57 -25q-59 -11 -86 26q-27 35 -19 87q11 79 49 92q41 12 78 -4.5t53 -49.5q16 -31 12 -67.5t-30 -58.5zM905 350q5 -231 -198 -356q-172 -109 -377 -82q-202 26 -279 168q-57 111 -12 266q49 167 274 462q96 128 138 202q86 156 61 381q-4 25 13.5 35
t39.5 0.5t29 -31.5q22 -58 33 -121q14 -119 -23 -232q-33 -112 -156 -303q-123 -189 -163 -288q-113 -277 14 -371q91 -68 238 -10q144 57 206 180q22 46 27 98q4 40 -20 80q-26 39 -48 63q-23 22 -28 63q-4 40 39 83q57 26 104 -27q41 -44 65 -117q23 -77 23 -143z" />
    <glyph glyph-name="Agrave" unicode="&#xc0;" horiz-adv-x="1572" 
d="M807 449q-161 -341 -260 -570q-54 -125 -88 -258q-27 -106 -74 -115q-94 -13 -127 9q-38 18 -58 74q-20 58 -14 89q8 49 17 266q7 222 6 390v49q-4 4 -31 -8q-92 -38 -127 -10q-69 53 -43 118q16 43 46 55q34 12 110 19q24 2 29 2q1 38 37 69q36 30 77 34q73 14 99 -39
q5 -12 6 -25q0 -8 2 -8.5t18 2.5q10 2 14 2q91 12 203 27q41 6 51 12q9 6 27 45q436 883 467 967q16 43 46 69.5t65.5 35t71 6t69.5 -14.5q44 -15 75 -36.5t35 -37.5q6 -35 -28 -102q-18 -35 -23 -54q-73 -217 -149 -725q-10 -53 -10 -59q0 -25 20 -39q43 -31 43 -74
q-5 -78 -55 -96q-11 -4 -13 -4q-25 -6 -26 -16v-15q0 -14 -2 -32q-5 -41 -15 -130q-10 -80 -12 -100q-12 -129 -18 -231q-2 -23 12 -79q14 -58 10 -102q-4 -45 -45 -75q-92 -57 -158 -4q-21 17 -29.5 42.5t-5.5 46.5q3 19 12 57q10 41 11 54q15 85 40 272q27 198 34 244
q10 56 10 58q0 8 -7.5 10t-29.5 2q-165 -5 -239 -10h-11q-40 -5 -47 -17q0 -1 -1.5 -3t-3.5 -6t-3 -7q-2 -5 -5.5 -13.5t-4.5 -10.5zM1196 1227q-90 -163 -258 -504q-5 -9 -18 -35q-13 -22 -11 -26q3 -6 37 0q14 2 17 2q83 9 139 14q74 8 80 18q3 4 14 80q0 5 2 15
q6 43 32 196q31 194 34 213q23 168 20 172q-1 4 -14 -14l-2 -2q-9 -12 -72 -129zM367 377q-13 -135 -15 -332q0 -103 2 -105l2 3q3 3 7 10t9.5 17.5t13.5 25t17 31.5q32 66 199 399q9 18 14 29q10 19 8.5 21t-28.5 -3q-8 0 -16 -2q-116 -18 -160 -29q-40 -8 -45 -18
q-2 -2 -8 -47zM1397 1923q16 -76 1 -73q-3 0 -7 3q-20 21 -49 64q-26 40 -51 73q-22 28 -38 33q-20 5 -27 46q-7 42 13 59q54 36 85 4q34 -36 48 -87q12 -45 21 -97q4 -20 4 -25z" />
    <glyph glyph-name="Aacute" unicode="&#xc1;" horiz-adv-x="1572" 
d="M807 449q-161 -341 -260 -570q-54 -125 -88 -258q-27 -106 -74 -115q-94 -13 -127 9q-38 18 -58 74q-20 58 -14 89q8 49 17 266q7 222 6 390v20.5t1.5 15t-0.5 8.5t-1.5 5.5t-6 0t-9 -2.5t-15.5 -6q-92 -38 -127 -10q-69 53 -43 118q14 35 37 49q22 13 148 27q1 38 37 69
q36 30 77 34q73 14 99 -39q5 -12 6 -25q0 -8 20 -6q10 2 14 2q91 12 203 27q41 6 51 12q9 6 27 45q436 883 467 967q16 43 46 69.5t65.5 35t71 6t69.5 -14.5q44 -15 75 -36.5t35 -37.5q6 -35 -28 -102q-18 -35 -23 -54q-73 -217 -149 -725q-10 -53 -10 -59q0 -25 20 -39
q43 -31 43 -74q-5 -78 -55 -96q-11 -4 -13 -4q-21 -6 -23.5 -9t-2.5 -21q0 -15 -2 -33q-5 -41 -15 -130q-10 -80 -12 -100q-12 -129 -18 -231q-2 -23 12 -79q14 -58 10 -102q-4 -45 -45 -75q-92 -57 -158 -4q-21 17 -29.5 42.5t-5.5 46.5q3 19 12 57q10 41 11 54
q15 85 40 272q27 198 34 244q2 10 5.5 30t3.5 23q1 4 -1 10q-3 7 -35 7q-165 -5 -239 -10q-42 -1 -49 -8q-4 -1 -27 -49zM1196 1227q-90 -163 -258 -504l-29 -59q0 -6 54 0q83 9 139 14q2 0 18 2q49 6 59 13q8 7 13 48q4 28 6 50q6 43 32 196q31 194 34 213q6 44 12 86
q2 18 4.5 35t4 27.5t1.5 13.5q0 6 -1 8.5t-3 1.5q-9 -2 -61 -102q-21 -35 -25 -43zM367 377q-13 -135 -15 -332q0 -103 2 -105l2 3q3 3 7 10t9.5 17.5t13.5 25t17 31.5q32 66 199 399q25 45 24 49q-1 3 -46 -4q-116 -18 -160 -29q-36 -6 -41 -10q-6 -5 -12 -55zM1458 1935
q0 3 13 70q14 71 33 103q15 25 28 37.5t35 13t49 -18.5q20 -17 13 -58t-27 -46t-88 -107q-28 -42 -50 -63q-19 -17 -18 7q0 8 2 19q2 7 5.5 22t4.5 21z" />
    <glyph glyph-name="Acircumflex" unicode="&#xc2;" horiz-adv-x="1572" 
d="M807 449q-161 -341 -260 -570q-54 -125 -88 -258q-27 -106 -74 -115q-94 -13 -127 9q-38 18 -58 74q-20 58 -14 89q8 49 17 266q7 222 6 390v49q-4 4 -31 -8q-92 -38 -127 -10q-69 53 -43 118q16 43 46 55q34 12 110 19q24 2 29 2q1 38 37 69q36 30 77 34q73 14 99 -39
q5 -12 6 -25q0 -8 2 -8.5t18 2.5q10 2 14 2q91 12 203 27q41 6 51 12q9 6 27 45q436 883 467 967q16 43 46 69.5t65.5 35t71 6t69.5 -14.5q44 -15 75 -36.5t35 -37.5q6 -35 -28 -102q-18 -35 -23 -54q-73 -217 -149 -725q-10 -53 -10 -59q0 -25 20 -39q43 -31 43 -74
q-5 -78 -55 -96q-11 -4 -13 -4q-25 -6 -26 -16v-15q0 -14 -2 -32q-5 -41 -15 -130q-10 -80 -12 -100q-12 -129 -18 -231q-2 -23 12 -79q14 -58 10 -102q-4 -45 -45 -75q-92 -57 -158 -4q-21 17 -29.5 42.5t-5.5 46.5q3 19 12 57q10 41 11 54q15 85 40 272q27 198 34 244
q10 56 10 58q0 8 -7.5 10t-29.5 2q-165 -5 -239 -10h-11q-40 -5 -47 -17q0 -1 -1.5 -3t-3.5 -6t-3 -7q-2 -5 -5.5 -13.5t-4.5 -10.5zM1196 1227q-90 -163 -258 -504q-5 -9 -18 -35q-13 -22 -11 -26q3 -6 37 0q14 2 17 2q83 9 139 14q74 8 80 18q3 4 14 80q0 5 2 15
q6 43 32 196q31 194 34 213q23 168 20 172q-1 4 -14 -14l-2 -2q-9 -12 -72 -129zM367 377q-13 -135 -15 -332q0 -103 2 -105l2 3q3 3 7 10t9.5 17.5t13.5 25t17 31.5q32 66 199 399q9 18 14 29q10 19 8.5 21t-28.5 -3q-8 0 -16 -2q-116 -18 -160 -29q-40 -8 -45 -18
q-2 -2 -8 -47zM1315 1948q63 59 84 80q22 22 49.5 62t33.5 45q11 11 28 11q3 0 6 -0.5t5 -1t3.5 -2t3 -2.5t2.5 -4t2 -5t2.5 -7t2 -8.5t2.5 -10.5t3 -12q7 -32 23 -65q0 -1 6 -11.5t20 -36.5t29 -53q34 -55 -59 -94q-18 -6 -35 15q-16 20 -21 42q-6 40 -14 58
q-12 29 -16.5 31.5t-22.5 -11.5q-14 -14 -41 -59q-19 -25 -43 -43q-27 -21 -41 -13q-78 36 -12 95z" />
    <glyph glyph-name="Atilde" unicode="&#xc3;" horiz-adv-x="1572" 
d="M807 449q-161 -341 -260 -570q-54 -125 -88 -258q-27 -106 -74 -115q-94 -13 -127 9q-38 18 -58 74q-20 58 -14 89q8 49 17 266q7 222 6 390v49q-4 4 -31 -8q-92 -38 -127 -10q-69 53 -43 118q16 43 46 55q34 12 110 19q24 2 29 2q1 38 37 69q36 30 77 34q73 14 99 -39
q5 -12 6 -25q0 -8 2 -8.5t18 2.5q10 2 14 2q91 12 203 27q41 6 51 12q9 6 27 45q436 883 467 967q16 43 46 69.5t65.5 35t71 6t69.5 -14.5q44 -15 75 -36.5t35 -37.5q6 -35 -28 -102q-18 -35 -23 -54q-73 -217 -149 -725q-10 -53 -10 -59q0 -25 20 -39q43 -31 43 -74
q-5 -78 -55 -96q-11 -4 -13 -4q-25 -6 -26 -16v-15q0 -14 -2 -32q-5 -41 -15 -130q-10 -80 -12 -100q-12 -129 -18 -231q-2 -23 12 -79q14 -58 10 -102q-4 -45 -45 -75q-92 -57 -158 -4q-21 17 -29.5 42.5t-5.5 46.5q3 19 12 57q10 41 11 54q15 85 40 272q27 198 34 244
q10 56 10 58q0 8 -7.5 10t-29.5 2q-165 -5 -239 -10h-11q-40 -5 -47 -17q0 -1 -1.5 -3t-3.5 -6t-3 -7q-2 -5 -5.5 -13.5t-4.5 -10.5zM1196 1227q-90 -163 -258 -504q-5 -9 -18 -35q-13 -22 -11 -26q3 -6 37 0q14 2 17 2q83 9 139 14q74 8 80 18q3 4 14 80q0 5 2 15
q6 43 32 196q31 194 34 213q23 168 20 172q-1 4 -14 -14l-2 -2q-9 -12 -72 -129zM367 377q-13 -135 -15 -332q0 -103 2 -105l2 3q3 3 7 10t9.5 17.5t13.5 25t17 31.5q32 66 199 399q9 18 14 29q10 19 8.5 21t-28.5 -3q-8 0 -16 -2q-116 -18 -160 -29q-40 -8 -45 -18
q-2 -2 -8 -47zM1362 1980q121 -37 137 -36q42 -2 90 14q4 4 17 13q14 11 22 9q33 -2 38 -43q5 -42 -17 -59q-6 -6 -52 -12q-68 -18 -98 -17q-19 0 -73 16q-56 15 -80 9q-51 -12 -56 35q-6 45 31 67q18 10 41 4z" />
    <glyph glyph-name="Adieresis" unicode="&#xc4;" horiz-adv-x="1572" 
d="M807 449q-161 -341 -260 -570q-54 -125 -88 -258q-27 -106 -74 -115q-94 -13 -127 9q-38 18 -58 74q-20 58 -14 89q8 49 17 266q7 222 6 390v49q-4 4 -31 -8q-92 -38 -127 -10q-69 53 -43 118q16 43 46 55q34 12 110 19q24 2 29 2q1 38 37 69q36 30 77 34q73 14 99 -39
q5 -12 6 -25q0 -8 2 -8.5t18 2.5q10 2 14 2q91 12 203 27q41 6 51 12q9 6 27 45q436 883 467 967q16 43 46 69.5t65.5 35t71 6t69.5 -14.5q44 -15 75 -36.5t35 -37.5q6 -35 -28 -102q-18 -35 -23 -54q-73 -217 -149 -725q-10 -53 -10 -59q0 -25 20 -39q43 -31 43 -74
q-5 -78 -55 -96q-11 -4 -13 -4q-25 -6 -26 -16v-15q0 -14 -2 -32q-5 -41 -15 -130q-10 -80 -12 -100q-12 -129 -18 -231q-2 -23 12 -79q14 -58 10 -102q-4 -45 -45 -75q-92 -57 -158 -4q-21 17 -29.5 42.5t-5.5 46.5q3 19 12 57q10 41 11 54q15 85 40 272q27 198 34 244
q10 56 10 58q0 8 -7.5 10t-29.5 2q-165 -5 -239 -10h-11q-40 -5 -47 -17q0 -1 -1.5 -3t-3.5 -6t-3 -7q-2 -5 -5.5 -13.5t-4.5 -10.5zM1196 1227q-90 -163 -258 -504q-5 -9 -18 -35q-13 -22 -11 -26q3 -6 37 0q14 2 17 2q83 9 139 14q74 8 80 18q3 4 14 80q0 5 2 15
q6 43 32 196q31 194 34 213q23 168 20 172q-1 4 -14 -14l-2 -2q-9 -12 -72 -129zM367 377q-13 -135 -15 -332q0 -103 2 -105l2 3q3 3 7 10t9.5 17.5t13.5 25t17 31.5q32 66 199 399q9 18 14 29q10 19 8.5 21t-28.5 -3q-8 0 -16 -2q-116 -18 -160 -29q-40 -8 -45 -18
q-2 -2 -8 -47zM1612 2046q14 0 20.5 -4.5t12.5 -15.5q1 -3 3.5 -9t5 -13.5l3.5 -10.5q18 -43 -6 -95q-25 -49 -66 -49q-25 0 -41 15q-16 10 -26 32q-23 47 12 103q12 18 38 32.5t44 14.5zM1389 2046q24 0 32 -20q2 -5 13 -33q18 -44 -7 -95q-25 -49 -67 -49q-22 0 -39 15
q-15 11 -27 32q-23 48 13 103q12 18 38 32.5t44 14.5z" />
    <glyph glyph-name="Aring" unicode="&#xc5;" horiz-adv-x="1572" 
d="M807 449q-161 -341 -260 -570q-54 -125 -88 -258q-27 -106 -74 -115q-94 -13 -127 9q-38 18 -58 74q-20 58 -14 89q8 49 17 266q7 222 6 390v49q-4 4 -31 -8q-92 -38 -127 -10q-69 53 -43 118q16 43 46 55q34 12 110 19q24 2 29 2q1 38 37 69q36 30 77 34q73 14 99 -39
q5 -12 6 -25q0 -8 2 -8.5t18 2.5q10 2 14 2q91 12 203 27q41 6 51 12q9 6 27 45q436 883 467 967q16 43 46 69.5t65.5 35t71 6t69.5 -14.5q44 -15 75 -36.5t35 -37.5q6 -35 -28 -102q-18 -35 -23 -54q-73 -217 -149 -725q-10 -53 -10 -59q0 -25 20 -39q43 -31 43 -74
q-5 -78 -55 -96q-11 -4 -13 -4q-25 -6 -26 -16v-15q0 -14 -2 -32q-5 -41 -15 -130q-10 -80 -12 -100q-12 -129 -18 -231q-2 -23 12 -79q14 -58 10 -102q-4 -45 -45 -75q-92 -57 -158 -4q-21 17 -29.5 42.5t-5.5 46.5q3 19 12 57q10 41 11 54q15 85 40 272q27 198 34 244
q10 56 10 58q0 8 -7.5 10t-29.5 2q-165 -5 -239 -10h-11q-40 -5 -47 -17q0 -1 -1.5 -3t-3.5 -6t-3 -7q-2 -5 -5.5 -13.5t-4.5 -10.5zM1196 1227q-90 -163 -258 -504q-5 -9 -18 -35q-13 -22 -11 -26q3 -6 37 0q14 2 17 2q83 9 139 14q74 8 80 18q3 4 14 80q0 5 2 15
q6 43 32 196q31 194 34 213q23 168 20 172q-1 4 -14 -14l-2 -2q-9 -12 -72 -129zM367 377q-13 -135 -15 -332q0 -103 2 -105l2 3q3 3 7 10t9.5 17.5t13.5 25t17 31.5q32 66 199 399q9 18 14 29q10 19 8.5 21t-28.5 -3q-8 0 -16 -2q-116 -18 -160 -29q-40 -8 -45 -18
q-2 -2 -8 -47zM1327 2019q17 74 103 107q59 20 126 4q68 -16 99 -57q37 -56 21.5 -107.5t-72.5 -85.5q-85 -55 -194 -10t-83 149zM1497 2064q-33 4 -62.5 -14t-31.5 -45q-5 -23 21 -47q24 -26 57 -27q94 -4 102 62q4 21 -7 34t-28 5q-8 -5 -25 14q-18 18 -26 18z" />
    <glyph glyph-name="AE" unicode="&#xc6;" horiz-adv-x="3110" 
d="M807 449q-161 -341 -260 -570q-54 -125 -88 -258q-27 -106 -74 -115q-94 -13 -127 9q-38 18 -58 74q-20 58 -14 89q8 49 17 266q7 222 6 390v49q-4 4 -31 -8q-92 -38 -127 -10q-69 53 -43 118q16 43 46 55q34 12 110 19q24 2 29 2q1 38 37 69q36 30 77 34q73 14 99 -39
q5 -12 6 -25q0 -8 2 -8.5t18 2.5q10 2 14 2q91 12 203 27q41 6 51 12q9 6 27 45q436 883 467 967q16 43 46 69.5t65.5 35t71 6t69.5 -14.5q44 -15 75 -36.5t35 -37.5q6 -35 -28 -102q-18 -35 -23 -54q-73 -217 -149 -725q-10 -53 -10 -59q0 -25 20 -39q43 -31 43 -74
q-5 -78 -55 -96q-11 -4 -13 -4q-25 -6 -26 -16v-15q0 -14 -2 -32q-5 -41 -15 -130q-10 -80 -12 -100q-12 -129 -18 -231q-2 -23 12 -79q14 -58 10 -102q-4 -45 -45 -75q-92 -57 -158 -4q-21 17 -29.5 42.5t-5.5 46.5q3 19 12 57q10 41 11 54q15 85 40 272q27 198 34 244
q10 56 10 58q0 8 -7.5 10t-29.5 2q-165 -5 -239 -10h-11q-40 -5 -47 -17q0 -1 -1.5 -3t-3.5 -6t-3 -7q-2 -5 -5.5 -13.5t-4.5 -10.5zM1196 1227q-90 -163 -258 -504q-5 -9 -18 -35q-13 -22 -11 -26q3 -6 37 0q14 2 17 2q83 9 139 14q74 8 80 18q3 4 14 80q0 5 2 15
q6 43 32 196q31 194 34 213q23 168 20 172q-1 4 -14 -14l-2 -2q-9 -12 -72 -129zM367 377q-13 -135 -15 -332q0 -103 2 -105l2 3q3 3 7 10t9.5 17.5t13.5 25t17 31.5q32 66 199 399q9 18 14 29q10 19 8.5 21t-28.5 -3q-8 0 -16 -2q-116 -18 -160 -29q-40 -8 -45 -18
q-2 -2 -8 -47zM2124 1501q-60 3 -82 -4.5t-5.5 -26.5t70.5 -49q116 -64 187 -113q38 -26 99 -69q67 -48 91 -63q16 -9 41 -21q33 -17 39 -22q25 -22 23 -75q-1 -52 -53 -96q-52 -43 -121 -30q-7 0 -27 11q-22 12 -27 13q-223 31 -431 -66q-209 -98 -306 -284
q-70 -149 -55 -290.5t115 -257.5q101 -118 262 -173q230 -78 473 2q241 79 364 273q33 50 36 112q3 63 -7 105q-24 104 78 137q92 27 131 -43q55 -131 -43 -321q-146 -275 -469 -396t-639 -14q-186 62 -309 189t-162 292q-55 218 59 441q106 205 322 328q215 122 463 128
q-377 260 -488 266q-50 6 -61 55q-6 28 34 68q20 21 56 64q28 35 45 52q38 40 90 40q481 -7 1028 -47q33 -3 121 9q23 3 49 3t36 -9t21 -35q9 -26 -4 -68q-8 -50 -57 -87t-100 -36q-30 0 -74 28q-45 27 -92 33q-148 16 -230 22q-57 4 -256 14q-52 3 -130 6.5t-105 4.5z" />
    <glyph glyph-name="Ccedilla" unicode="&#xc7;" horiz-adv-x="1239" 
d="M981 1331q-289 -201 -503 -466q-215 -266 -238 -519q-18 -194 75 -330q93 -137 289 -137q172 0 280 108q107 110 122 265q4 42 -24 102q-12 23 -17 43q-8 23 18 61q26 39 53 50q27 16 68 1q42 -16 67 -67q40 -74 23 -184q-25 -190 -180 -361q-79 -85 -194 -136
q-117 -52 -257 -52q-240 0 -379 145t-159 367q-5 57 0 113q11 175 109 367q99 192 250 358t323 305q169 136 342 233q15 8 38 21q22 12 30 17t21 16q15 12 17 20q22 55 21 115q5 68 79 78q76 12 121 -35q47 -50 -14 -125q-9 -12 -39 -80q-61 -125 -89 -247q-17 -76 -23 -107
q-9 -40 -21 -120q-13 -87 -19 -114q-2 -12 6 -53q7 -38 2 -70q-4 -30 -34 -39q-64 -17 -104.5 1t-49.5 61q-17 84 2 133q1 5 8.5 32t17.5 62t21 74q4 17 25 80q26 71 10 69q-15 0 -94 -55zM557 -424q-53 17 -34 54q18 38 63 51q34 7 53 -14q4 -5 14 -19t11 -15
q33 -33 85 -75.5t64 -53.5l8 -8q63 -53 4 -145q-6 -12 -17.5 -13.5t-22.5 3.5t-25 12.5t-19 9.5q-162 39 -262 -6q-50 -25 -64 17t15 77q19 28 49 26q7 -1 24 -5t19 -4q104 -6 189 -3q-67 85 -154 111z" />
    <glyph glyph-name="Egrave" unicode="&#xc8;" horiz-adv-x="1705" 
d="M760 1501q-60 3 -82 -4.5t-5.5 -26.5t70.5 -49q116 -64 187 -113q38 -26 99 -69q67 -48 91 -63q16 -9 41 -21q33 -17 39 -22q25 -22 23 -75q-1 -52 -53 -96q-52 -43 -121 -30q-7 0 -26 11q-22 12 -28 13q-223 31 -431 -66q-209 -98 -306 -284q-70 -149 -55 -290.5
t115 -257.5q101 -118 262 -173q230 -78 473 2q241 79 364 273q33 50 36 112q3 63 -7 105q-24 104 78 137q92 27 131 -43q55 -131 -43 -321q-146 -275 -469 -396t-639 -14q-186 62 -309 189t-162 292q-55 218 59 441q106 205 322 328q215 122 463 128q-377 260 -488 266
q-50 6 -61 55q-6 28 34 68q20 21 56 64q25 30 45 52q38 40 90 40q481 -7 1028 -47q33 -3 121 9q22 3 49 3q26 0 36 -9t21 -35q9 -26 -4 -68q-8 -50 -57 -87t-100 -36q-30 0 -74 28q-45 27 -92 33q-148 16 -230 22q-57 4 -256 14q-52 3 -130 6.5t-105 4.5zM1055 1933
q19 -90 -6 -69q-22 22 -49 63q-26 40 -51 73q-22 29 -38 34q-20 5 -27 46t13 58q56 37 85 5q34 -38 48 -88q12 -45 21 -97q4 -20 4 -25z" />
    <glyph glyph-name="Eacute" unicode="&#xc9;" horiz-adv-x="1705" 
d="M760 1501q-60 3 -82 -4.5t-5.5 -26.5t70.5 -49q116 -64 187 -113q38 -26 99 -69q67 -48 91 -63q16 -9 41 -21q33 -17 39 -22q25 -22 23 -75q-1 -52 -53 -96q-52 -43 -121 -30q-7 0 -26 11q-22 12 -28 13q-223 31 -431 -66q-209 -98 -306 -284q-70 -149 -55 -290.5
t115 -257.5q101 -118 262 -173q230 -78 473 2q241 79 364 273q33 50 36 112q3 63 -7 105q-24 104 78 137q92 27 131 -43q55 -131 -43 -321q-146 -275 -469 -396t-639 -14q-186 62 -309 189t-162 292q-55 218 59 441q106 205 322 328q215 122 463 128q-377 260 -488 266
q-50 6 -61 55q-6 28 34 68q20 21 56 64q25 30 45 52q38 40 90 40q481 -7 1028 -47q33 -3 121 9q22 3 49 3q26 0 36 -9t21 -35q9 -26 -4 -68q-8 -50 -57 -87t-100 -36q-30 0 -74 28q-45 27 -92 33q-148 16 -230 22q-57 4 -256 14q-52 3 -130 6.5t-105 4.5zM1098 1935
q0 1 2 11.5t5 28t5 30.5q11 66 33 103q15 25 28.5 37.5t35 13t48.5 -18.5q20 -17 14 -58q-7 -42 -28 -46q-7 -2 -15 -9t-22.5 -26.5t-22 -30t-28.5 -41.5q-27 -41 -49 -63q-20 -18 -19 10q1 6 2 16q1 3 5 18t6 25z" />
    <glyph glyph-name="Ecircumflex" unicode="&#xca;" horiz-adv-x="1705" 
d="M760 1501q-60 3 -82 -4.5t-5.5 -26.5t70.5 -49q116 -64 187 -113q38 -26 99 -69q67 -48 91 -63q16 -9 41 -21q33 -17 39 -22q25 -22 23 -75q-1 -52 -53 -96q-52 -43 -121 -30q-7 0 -26 11q-22 12 -28 13q-223 31 -431 -66q-209 -98 -306 -284q-70 -149 -55 -290.5
t115 -257.5q101 -118 262 -173q230 -78 473 2q241 79 364 273q33 50 36 112q3 63 -7 105q-24 104 78 137q92 27 131 -43q55 -131 -43 -321q-146 -275 -469 -396t-639 -14q-186 62 -309 189t-162 292q-55 218 59 441q106 205 322 328q215 122 463 128q-377 260 -488 266
q-50 6 -61 55q-6 28 34 68q20 21 56 64q25 30 45 52q38 40 90 40q481 -7 1028 -47q33 -3 121 9q22 3 49 3q26 0 36 -9t21 -35q9 -26 -4 -68q-8 -50 -57 -87t-100 -36q-30 0 -74 28q-45 27 -92 33q-148 16 -230 22q-57 4 -256 14q-52 3 -130 6.5t-105 4.5zM985 1948
q63 59 84 80q23 22 51 62t32 45q11 11 28 11q4 0 6.5 -0.5t5 -1.5t4 -2t3.5 -4t2.5 -5t2.5 -7t2.5 -8.5t2.5 -11t4 -13.5q7 -29 22 -65q0 -1 6 -11.5t20 -36.5t29 -53q34 -55 -59 -94q-17 -6 -34 13.5t-21 43.5q-6 42 -15 58q-12 30 -16 32t-23 -12q-21 -21 -28 -37
q-10 -19 -13 -22q-18 -25 -42 -43q-27 -21 -42 -13q-78 36 -12 95z" />
    <glyph glyph-name="Edieresis" unicode="&#xcb;" horiz-adv-x="1705" 
d="M760 1501q-60 3 -82 -4.5t-5.5 -26.5t70.5 -49q116 -64 187 -113q38 -26 99 -69q67 -48 91 -63q16 -9 41 -21q33 -17 39 -22q25 -22 23 -75q-1 -52 -53 -96q-52 -43 -121 -30q-7 0 -26 11q-22 12 -28 13q-223 31 -431 -66q-209 -98 -306 -284q-70 -149 -55 -290.5
t115 -257.5q101 -118 262 -173q230 -78 473 2q241 79 364 273q33 50 36 112q3 63 -7 105q-24 104 78 137q92 27 131 -43q55 -131 -43 -321q-146 -275 -469 -396t-639 -14q-186 62 -309 189t-162 292q-55 218 59 441q106 205 322 328q215 122 463 128q-377 260 -488 266
q-50 6 -61 55q-6 28 34 68q20 21 56 64q25 30 45 52q38 40 90 40q481 -7 1028 -47q33 -3 121 9q22 3 49 3q26 0 36 -9t21 -35q9 -26 -4 -68q-8 -50 -57 -87t-100 -36q-30 0 -74 28q-45 27 -92 33q-148 16 -230 22q-57 4 -256 14q-52 3 -130 6.5t-105 4.5zM1231 2050
q25 0 33 -20q1 -3 3.5 -9t5 -13.5l3.5 -10.5q18 -43 -6 -94q-25 -48 -66 -50q-24 0 -41 15q-15 10 -26 33q-23 47 12 102q12 18 38 32.5t44 14.5zM1008 2050q24 0 32 -20q2 -5 13 -33q18 -43 -6 -94q-25 -49 -68 -50q-23 0 -39 15q-14 10 -27 33q-23 47 13 102
q12 18 38 32.5t44 14.5z" />
    <glyph glyph-name="Igrave" unicode="&#xcc;" horiz-adv-x="1179" 
d="M662 -379q-197 20 -439 -45q-7 -1 -21 -9t-31.5 -18.5t-27.5 -15.5q-23 -12 -45 -13t-41 15q-32 33 -43.5 63.5t-4 53.5t30.5 39q62 44 126 53q92 6 291 33q0 7 10 51q8 35 14 82q3 16 43 311q22 163 115 862q10 80 32 211q21 124 30 184q10 63 10 91q-31 -5 -123 -23
q-10 -2 -81 -40q-60 -32 -85 3q-38 43 -44.5 79t11 57.5t47.5 37.5t56 23t45 8h9q8 1 27.5 2.5t41.5 2.5q74 4 142 12q77 7 145 16q80 11 116 22q72 23 119 -45q45 -61 12 -112q-31 -49 -121 -37q-17 3 -90 8q-32 -64 -35 -72q-7 -18 -39 -155q-81 -324 -136 -727
q-56 -414 -62 -707q-2 -22 8 -100q59 2 97 -54q37 -55 12 -106q-27 -51 -121 -41zM795 1944q16 -76 0 -73q-3 0 -7 3q-20 20 -48 63q-26 40 -51 73q-22 29 -38 34q-20 5 -27 46q-7 42 13 58q56 37 85 5q34 -37 48 -87q6 -21 21 -97q4 -20 4 -25z" />
    <glyph glyph-name="Iacute" unicode="&#xcd;" horiz-adv-x="1179" 
d="M662 -379q-197 20 -439 -45q-7 -1 -21 -9t-31.5 -18.5t-27.5 -15.5q-23 -12 -45 -13t-41 15q-32 33 -43.5 63.5t-4 53.5t30.5 39q62 44 126 53q92 6 291 33q0 7 10 51q8 35 14 82q3 16 43 311q22 163 115 862q10 80 32 211q21 124 30 184q10 63 10 91q-31 -5 -123 -23
q-10 -2 -81 -40q-60 -32 -85 3q-38 43 -44.5 79t11 57.5t47.5 37.5t56 23t45 8h9q8 1 27.5 2.5t41.5 2.5q74 4 142 12q77 7 145 16q80 11 116 22q56 18 100 -22q53 -50 41 -111q-16 -77 -131 -61q-17 3 -90 8q-32 -64 -35 -72q-7 -18 -39 -155q-81 -324 -136 -727
q-56 -414 -62 -707q-2 -22 8 -100q59 2 97 -54q37 -55 12 -106q-27 -51 -121 -41zM852 1944q0 1 2 11.5t5 28.5l5 30q10 62 33 102q15 25 28.5 37.5t35 13t49.5 -18.5q20 -17 13 -58q-7 -42 -28 -46q-7 -2 -15.5 -10t-21.5 -25t-22.5 -30.5t-27.5 -41.5q-28 -42 -50 -63
q-20 -17 -18 9q0 7 2 18q2 7 5.5 22t4.5 21z" />
    <glyph glyph-name="Icircumflex" unicode="&#xce;" horiz-adv-x="1179" 
d="M662 -379q-197 20 -439 -45q-7 -1 -21 -9t-31.5 -18.5t-27.5 -15.5q-23 -12 -45 -13t-41 15q-32 33 -43.5 63.5t-4 53.5t30.5 39q62 44 126 53q92 6 291 33q0 7 10 51q8 35 14 82q3 16 43 311q22 163 115 862q10 80 32 211q21 124 30 184q10 63 10 91q-31 -5 -123 -23
q-10 -2 -81 -40q-60 -32 -85 3q-38 43 -44.5 79t11 57.5t47.5 37.5t56 23t45 8h9q8 1 27.5 2.5t41.5 2.5q74 4 142 12q77 7 145 16q80 11 116 22q72 23 119 -45q45 -61 12 -112q-31 -49 -121 -37q-17 3 -90 8q-32 -64 -35 -72q-7 -18 -39 -155q-81 -324 -136 -727
q-56 -414 -62 -707q-2 -22 8 -100q59 2 97 -54q37 -55 12 -106q-27 -51 -121 -41zM700 1956q63 59 84 80q22 22 50 62t34 45q11 11 27 11q15 0 19.5 -8.5t13.5 -44.5q7 -29 22 -65q0 -1 6 -11t21 -37t29 -53q34 -55 -60 -94q-17 -6 -34 13.5t-21 43.5q-6 40 -14 58
q-12 30 -16.5 32t-22.5 -12q-14 -14 -41 -59q-19 -25 -43 -43q-27 -21 -41 -12q-80 35 -13 94z" />
    <glyph glyph-name="Idieresis" unicode="&#xcf;" horiz-adv-x="1179" 
d="M662 -379q-197 20 -439 -45q-7 -1 -21 -9t-31.5 -18.5t-27.5 -15.5q-23 -12 -45 -13t-41 15q-32 33 -43.5 63.5t-4 53.5t30.5 39q62 44 126 53q92 6 291 33q0 7 10 51q8 35 14 82q3 16 43 311q22 163 115 862q10 80 32 211q21 124 30 184q10 63 10 91q-31 -5 -123 -23
q-10 -2 -81 -40q-60 -32 -85 3q-38 43 -44.5 79t11 57.5t47.5 37.5t56 23t45 8h9q8 1 27.5 2.5t41.5 2.5q74 4 142 12q77 7 145 16q80 11 116 22q72 23 119 -45q45 -61 12 -112q-31 -49 -121 -37q-17 3 -90 8q-32 -64 -35 -72q-7 -18 -39 -155q-81 -324 -136 -727
q-56 -414 -62 -707q-2 -22 8 -100q59 2 97 -54q37 -55 12 -106q-27 -51 -121 -41zM958 2052q22 0 33 -20q2 -3 6.5 -16t6.5 -17q18 -44 -7 -94q-25 -49 -65 -50q-24 0 -41 15q-13 10 -27 33q-23 47 13 102q12 18 37.5 32.5t43.5 14.5zM735 2052q22 0 33 -20q1 -2 3.5 -8.5
t5 -14l3.5 -10.5q18 -43 -6 -94q-25 -48 -67 -50q-23 0 -39 15q-16 10 -27 33q-23 47 12 102q12 18 38 32.5t44 14.5z" />
    <glyph glyph-name="Eth" unicode="&#xd0;" horiz-adv-x="1441" 
d="M547 -121q151 0 278 74q125 74 206 197q162 245 186 589q10 180 -27 345t-115 289q-77 123 -210 179q-132 54 -296 9q-143 -39 -215 -150q-73 -110 -22 -250q11 -29 50 -48t52 -30q18 -17 17 -72q-2 -57 -23 -71q-20 -20 -69 -14t-99 41q-68 50 -102 139q-25 59 -30 126
t14.5 138.5t62.5 134.5t121.5 117t183.5 84q102 31 203 31q181 0 326 -86q144 -86 226 -228q83 -142 120.5 -319.5t25.5 -370.5q-14 -198 -76.5 -377.5t-168.5 -324.5q-104 -144 -271 -234q-163 -88 -358 -88q-124 0 -227 44.5t-163 118.5q-117 146 -131 298q-8 96 19 196
q26 101 96 134q75 37 143 8q27 -12 44 -50q16 -37 -1 -61q-23 -30 -35 -43q-27 -32 -38 -51q-13 -21 -19 -51q-33 -158 51 -266q83 -107 271 -107zM803 1425q7 -36 -26 -105l-25 -50q-8 -20 -41 -156q-47 -193 -72 -332q161 4 174 6q4 0 28 5.5t35 7.5q16 2 37 -8t35 -29
q23 -33 26 -76t-20.5 -64.5t-79.5 1.5q-15 7 -67 14q-87 17 -189 25q-32 -247 -47 -336q-4 -26 5 -83q8 -60 5 -104q-3 -47 -32 -71q-38 -32 -84.5 -36t-69.5 19q-35 28 -39.5 65t15.5 103q0 3 1.5 8.5t3.5 15.5t3 18q9 50 10 52q2 15 13 60t28 123.5t31 165.5
q-121 -6 -207 -29q-6 -2 -30.5 -14.5t-31.5 -15.5q-43 -18 -61 11q-57 104 0 140q49 30 94 30h21q11 0 57 -1t84 -2q35 -1 92 -1q5 49 8 60q12 97 33 224t30 190q9 62 7 83q-14 101 46 135q60 35 126 13q66 -23 74 -62z" />
    <glyph glyph-name="Ntilde" unicode="&#xd1;" horiz-adv-x="1093" 
d="M1085 1667q7 -37 -26 -105q-16 -31 -25 -51q-13 -33 -27 -94l-14 -61q-144 -587 -188 -1219q-2 -26 7 -94q9 -72 3 -106q-11 -35 -33 -56l-6 -6h-2v-2h-2l-2 -2q-36 -26 -78 -28t-61 20q-43 32 -41 84q5 176 -33 295q-18 55 -43.5 133.5t-32.5 99.5q-11 31 -36 104
t-38 112q-73 209 -93 197q-4 -3 -5 -18q0 -6 -6 -60q-7 -61 -8 -93q-7 -129 -41 -408q-34 -276 -35 -387q0 -21 10 -90q9 -70 4 -125q-6 -53 -34 -78q-65 -55 -156 19q-51 27 -36 112q4 26 13 66q9 46 15 84q4 22 43 311q13 103 60 455q47 355 55 407q11 78 35 225
q24 154 29 191q9 62 7 80q-14 101 45 135q59 35 126 14q68 -23 75 -61q6 -35 -28 -104q-18 -35 -25 -52q-34 -84 -35 -190q-2 -116 8 -191q11 -89 53 -230q46 -158 65 -208q27 -78 79 -223q13 -38 16 -47q14 -42 18.5 -41.5t10.5 47.5q4 27 6 45q53 308 92 610q6 41 34 224
q25 157 30 191q10 61 8 81q-14 101 44 135q59 35 125 14q67 -23 74 -61zM565 1991q120 -37 137 -37q41 -2 91 14l2 2q2 2 6 5.5t8 6.5q14 11 22 9q33 -2 38 -43t-17 -60q-6 -6 -51 -12q-64 -18 -99 -16q-17 0 -73 15t-80 9q-50 -12 -55 35q-6 45 30 68q18 10 41 4z" />
    <glyph glyph-name="Ograve" unicode="&#xd2;" horiz-adv-x="1830" 
d="M362 1150q290 220 660 220q369 0 598 -220t184 -532q-47 -311 -338 -532q-293 -221 -661 -221q-235 0 -423 96q-187 96 -282 260q-109 184 -75 397q45 312 337 532zM1561 618q49 141 5 260q-43 115 -145 196q-100 78 -239 116q-137 37 -275 22q-266 -29 -467 -198
q-202 -169 -235 -396q-38 -248 145 -424q182 -176 477 -176q259 0 474 139q216 139 292 347q10 30 -14 65q-24 33 -18 49zM928 1591q20 -90 -6 -69q-22 22 -49 63q-26 40 -51 73q-22 29 -38 34q-20 5 -27 46t13 58q56 37 85 5q34 -38 48 -88q12 -45 21 -97q4 -20 4 -25z" />
    <glyph glyph-name="Oacute" unicode="&#xd3;" horiz-adv-x="1830" 
d="M362 1150q290 220 660 220q369 0 598 -220t184 -532q-47 -311 -338 -532q-293 -221 -661 -221q-235 0 -423 96q-187 96 -282 260q-109 184 -75 397q45 312 337 532zM1561 618q49 141 5 260q-43 115 -145 196q-100 78 -239 116q-137 37 -275 22q-266 -29 -467 -198
q-202 -169 -235 -396q-38 -248 145 -424q182 -176 477 -176q259 0 474 139q216 139 292 347q10 30 -14 65q-24 33 -18 49zM1063 1599q0 1 2 12t5 29.5t5 29.5q10 62 33 102q15 25 28.5 37.5t35 13t49.5 -18.5q20 -17 13 -58q-7 -42 -28 -46q-7 -2 -15.5 -10t-21.5 -25
t-22.5 -30.5t-27.5 -41.5q-28 -42 -50 -63q-19 -17 -18 7q0 8 2 19q2 7 5.5 22t4.5 21z" />
    <glyph glyph-name="Ocircumflex" unicode="&#xd4;" horiz-adv-x="1830" 
d="M362 1150q290 220 660 220q369 0 598 -220t184 -532q-47 -311 -338 -532q-293 -221 -661 -221q-235 0 -423 96q-187 96 -282 260q-109 184 -75 397q45 312 337 532zM1561 618q49 141 5 260q-43 115 -145 196q-100 78 -239 116q-137 37 -275 22q-266 -29 -467 -198
q-202 -169 -235 -396q-38 -248 145 -424q182 -176 477 -176q259 0 474 139q216 139 292 347q10 30 -14 65q-24 33 -18 49zM903 1651q63 59 84 80q23 23 51 63t32 44q11 11 28 11q4 0 6.5 -0.5t5 -1.5t4 -2t3.5 -4t2.5 -5t2.5 -7t2.5 -8.5t2.5 -11t4 -13.5q7 -29 22 -65
q0 -1 6 -11.5t20 -36.5t29 -53q34 -55 -59 -94q-17 -6 -34 13.5t-21 43.5q-6 42 -15 58q-12 30 -16 32t-23 -12q-12 -13 -41 -59q-18 -25 -42 -43q-27 -21 -42 -13q-78 36 -12 95z" />
    <glyph glyph-name="Otilde" unicode="&#xd5;" horiz-adv-x="1830" 
d="M362 1150q290 220 660 220q369 0 598 -220t184 -532q-47 -311 -338 -532q-293 -221 -661 -221q-235 0 -423 96q-187 96 -282 260q-109 184 -75 397q45 312 337 532zM1561 618q49 141 5 260q-43 115 -145 196q-100 78 -239 116q-137 37 -275 22q-266 -29 -467 -198
q-202 -169 -235 -396q-38 -248 145 -424q182 -176 477 -176q259 0 474 139q216 139 292 347q10 30 -14 65q-24 33 -18 49zM942 1671q120 -37 137 -37q39 -2 90 15q4 4 17 13q14 11 22 9q33 -2 38 -43q5 -42 -17 -59q-5 -5 -51 -13q-64 -18 -99 -16q-19 0 -73 16
q-56 15 -80 9q-52 -12 -56 34q-6 46 31 68q18 10 41 4z" />
    <glyph glyph-name="Odieresis" unicode="&#xd6;" horiz-adv-x="1830" 
d="M362 1150q290 220 660 220q369 0 598 -220t184 -532q-47 -311 -338 -532q-293 -221 -661 -221q-235 0 -423 96q-187 96 -282 260q-109 184 -75 397q45 312 337 532zM1561 618q49 141 5 260q-43 115 -145 196q-100 78 -239 116q-137 37 -275 22q-266 -29 -467 -198
q-202 -169 -235 -396q-38 -248 145 -424q182 -176 477 -176q259 0 474 139q216 139 292 347q10 30 -14 65q-24 33 -18 49zM702 1653q20 24 50 28q57 13 79 0q41 -23 50 -106q5 -77 -39 -102q-40 -25 -87 9q-46 34 -61 84q-15 49 8 87zM1092 1481q-26 0 -52 18q-86 61 -4 143
q50 50 94 37q40 -13 54 -55q14 -47 -16 -95q-32 -48 -76 -48z" />
    <glyph glyph-name="multiply" unicode="&#xd7;" horiz-adv-x="722" 
d="M551 346q0 1 -37 57q-58 83 -100 132q-18 23 -20 23q-4 -2 -25 -23q-90 -91 -144 -150q-95 -104 -170 -61q-46 27 -39 79q6 39 50 56q23 8 59 39q92 60 158 120q27 23 26 27q-10 10 -26 25q-77 71 -164 123q-15 5 -37 11q-34 9 -50 24q-18 14 -12 38q12 55 40.5 81.5
t59.5 17.5q60 -18 87 -45l14 -15q53 -57 146 -149q27 -27 30 -25q4 0 25 27q62 77 94 131q68 111 127 84q46 -23 35 -92q-6 -54 -49 -95q-3 -3 -48.5 -47t-70.5 -67q-27 -26 -27 -29q0 -4 21 -25q75 -75 121 -114l28 -17q31 -19 43 -40.5t6 -55.5q-12 -68 -64 -95
q-52 -28 -87 50z" />
    <glyph glyph-name="Oslash" unicode="&#xd8;" horiz-adv-x="1830" 
d="M1249 1378l-14 -28q287 -62 450 -265q162 -204 123 -467q-45 -312 -336 -532q-293 -221 -661 -221q-32 0 -76 4q0 -3 -3 -32q-4 -34 -4 -35q-7 -49 -13 -64q-23 -56 -43 -68q-40 -22 -72.5 -16.5t-48.5 33.5q-6 10 -17 40q-2 10 -2 14t2 15t2 13q1 6 16 52q12 37 28 70
q-326 79 -474 330q-109 180 -77 397q47 312 339 532q290 220 660 220q27 0 49 -2q32 88 37 121q8 86 82 119q67 29 98 -19q43 -64 -45 -211zM1167 1196q-240 -562 -399 -1176q30 -2 66 -2q257 0 472 139q216 138 293 347q10 30 -14 65q-24 33 -18 49q72 211 -51 367
q-124 156 -349 211zM633 43q5 11 15 45q9 29 20 57q280 852 290 883q26 74 66 189q-73 0 -111 -5q-266 -29 -467 -198q-202 -169 -235 -396q-31 -202 88 -361q118 -158 334 -214z" />
    <glyph glyph-name="Ugrave" unicode="&#xd9;" horiz-adv-x="1378" 
d="M422 1223q-29 -41 -133 -222q-6 -10 -28 -104t-73 -117q-51 -20 -93.5 -16.5t-63.5 27.5q-31 35 -20 69q8 23 17 37q2 4 33 56q9 16 23.5 40.5t17.5 30.5q54 100 402 602q-6 66 41 92q8 8 20 8q47 16 128 -10q78 -25 89 -57t-20 -92q-16 -33 -21 -45q-11 -28 -66 -250
q-56 -218 -115 -515q-58 -292 -54 -413q4 -151 106 -12q6 8 17.5 23t32 42t38.5 50q68 89 96 126q27 37 81 117q55 84 79 134q21 44 52 124q27 75 34 135q6 41 34 224q25 157 30 191q10 61 8 81q-14 101 45 135q59 35 125 14q67 -23 74 -61q7 -37 -26 -105q-16 -31 -25 -51
q-15 -37 -26 -93q-13 -55 -15 -62q-128 -534 -181 -1135q-13 -162 -18 -299q0 -16 9 -81q9 -64 3 -107q-6 -42 -35 -68q-38 -32 -84 -37q-44 -4 -67 19q-54 30 -37 111l5.5 27.5t8.5 39.5q9 46 15 84q31 214 76 559q3 16 4 25q12 92 6 94q-5 2 -15 -15l-22 -34
q-22 -33 -39 -62q-92 -139 -252 -397q-6 -10 -28 -101q-22 -89 -72 -112q-52 -19 -94 -16t-64 26l-4 2q-2 2 -4 2q-74 77 -55 346q18 274 67 535q51 274 98 426q26 80 4 95q-23 13 -69 -60zM981 1946q16 -76 1 -73q-3 0 -7 3q-22 22 -49 63q-26 40 -51 73q-22 29 -37 34
q-20 5 -27 46q-7 42 12 58q26 19 48 19.5t38 -15.5t27 -36.5t21 -49.5q10 -35 20 -97q4 -20 4 -25z" />
    <glyph glyph-name="Uacute" unicode="&#xda;" horiz-adv-x="1378" 
d="M422 1223q-29 -41 -133 -222q-6 -10 -28 -104t-73 -117q-51 -20 -93.5 -16.5t-63.5 27.5q-31 35 -20 69q8 23 17 37q2 4 33 56q9 16 23.5 40.5t17.5 30.5q54 100 402 602q-6 66 41 92q8 8 20 8q47 16 128 -10q78 -25 89 -57t-20 -92q-16 -33 -21 -45q-11 -28 -66 -250
q-56 -218 -115 -515q-58 -292 -54 -413q4 -151 106 -12q6 8 17.5 23t32 42t38.5 50q68 89 96 126q27 37 81 117q55 84 79 134q21 44 52 124q27 75 34 135q6 41 34 224q25 157 30 191q10 61 8 81q-14 101 45 135q59 35 125 14q67 -23 74 -61q7 -37 -26 -105q-16 -31 -25 -51
q-15 -37 -26 -93q-13 -55 -15 -62q-128 -534 -181 -1135q-13 -162 -18 -299q0 -16 9 -81q9 -64 3 -107q-6 -42 -35 -68q-38 -32 -84 -37q-44 -4 -67 19q-54 30 -37 111l5.5 27.5t8.5 39.5q9 46 15 84q31 214 76 559q14 102 12 113q0 10 -6 6q0 -2 -72 -111
q-92 -139 -252 -397q-6 -10 -28 -101q-22 -89 -72 -112q-52 -19 -94 -16t-64 26l-4 2q-2 2 -4 2q-74 77 -55 346q18 274 67 535q51 274 98 426q26 78 4 95q-23 17 -69 -60zM1004 1944q0 1 2 11.5t5 28.5l5 30q11 66 33 102q15 25 28.5 37.5t35 13t48.5 -18.5q20 -17 13 -58
t-27 -46t-88 -107q-27 -41 -49 -63q-19 -17 -19 9q0 7 2 18q1 3 5 18t6 25z" />
    <glyph glyph-name="Ucircumflex" unicode="&#xdb;" horiz-adv-x="1378" 
d="M422 1223q-29 -41 -133 -222q-6 -10 -28 -104t-73 -117q-51 -20 -93.5 -16.5t-63.5 27.5q-31 35 -20 69q8 23 17 37q2 4 33 56q9 16 23.5 40.5t17.5 30.5q54 100 402 602q-6 66 41 92q8 8 20 8q47 16 128 -10q78 -25 89 -57t-20 -92q-16 -33 -21 -45q-11 -28 -66 -250
q-56 -218 -115 -515q-58 -292 -54 -413q4 -151 106 -12q6 8 17.5 23t32 42t38.5 50q68 89 96 126q27 37 81 117q55 84 79 134q21 44 52 124q27 75 34 135q6 41 34 224q25 157 30 191q10 61 8 81q-14 101 45 135q59 35 125 14q67 -23 74 -61q7 -37 -26 -105q-16 -31 -25 -51
q-15 -37 -26 -93q-13 -55 -15 -62q-128 -534 -181 -1135q-13 -162 -18 -299q0 -16 9 -81q9 -64 3 -107q-6 -42 -35 -68q-38 -32 -84 -37q-44 -4 -67 19q-54 30 -37 111l5.5 27.5t8.5 39.5q9 46 15 84q31 214 76 559q3 16 4 25q12 92 6 94q-5 2 -15 -15l-22 -34
q-22 -33 -39 -62q-92 -139 -252 -397q-6 -10 -28 -101q-22 -89 -72 -112q-52 -19 -94 -16t-64 26l-4 2q-2 2 -4 2q-74 77 -55 346q18 274 67 535q51 274 98 426q26 80 4 95q-23 13 -69 -60zM852 1954q63 59 84 80q23 23 51 63t32 44q11 11 28 11q3 0 6 -0.5t5 -1t3.5 -2
t3 -2.5t2.5 -4t2 -5t2.5 -7t2 -8.5t2.5 -10.5t3 -12q7 -32 23 -65q0 -1 6 -11.5t20 -36.5t29 -53q34 -55 -59 -94q-17 -6 -33.5 13.5t-22.5 43.5q-6 40 -14 58q-12 30 -16 32t-23 -12q-14 -12 -41 -59q-18 -25 -42 -43q-27 -21 -42 -12q-79 35 -12 94z" />
    <glyph glyph-name="Udieresis" unicode="&#xdc;" horiz-adv-x="1378" 
d="M422 1223q-29 -41 -133 -222q-6 -10 -28 -104t-73 -117q-51 -20 -93.5 -16.5t-63.5 27.5q-31 35 -20 69q8 23 17 37q2 4 33 56q9 16 23.5 40.5t17.5 30.5q54 100 402 602q-6 66 41 92q8 8 20 8q47 16 128 -10q78 -25 89 -57t-20 -92q-16 -33 -21 -45q-11 -28 -66 -250
q-56 -218 -115 -515q-58 -292 -54 -413q4 -151 106 -12q6 8 17.5 23t32 42t38.5 50q68 89 96 126q27 37 81 117q55 84 79 134q21 44 52 124q27 75 34 135q6 41 34 224q25 157 30 191q10 61 8 81q-14 101 45 135q59 35 125 14q67 -23 74 -61q7 -37 -26 -105q-16 -31 -25 -51
q-15 -37 -26 -93q-13 -55 -15 -62q-128 -534 -181 -1135q-13 -162 -18 -299q0 -16 9 -81q9 -64 3 -107q-6 -42 -35 -68q-38 -32 -84 -37q-44 -4 -67 19q-54 30 -37 111l5.5 27.5t8.5 39.5q9 46 15 84q31 214 76 559q3 16 4 25q12 92 6 94q-5 2 -15 -15l-22 -34
q-22 -33 -39 -62q-92 -139 -252 -397q-6 -10 -28 -101q-22 -89 -72 -112q-52 -19 -94 -16t-64 26l-4 2q-2 2 -4 2q-74 77 -55 346q18 274 67 535q51 274 98 426q26 80 4 95q-23 13 -69 -60zM1128 2052q22 0 33 -20q2 -3 6.5 -16t6.5 -17q18 -44 -7 -94q-25 -49 -65 -50
q-24 0 -41 15q-17 10 -27 33q-23 47 13 102q12 18 37.5 32.5t43.5 14.5zM905 2052q22 0 33 -20q1 -2 3.5 -8.5t5 -14l3.5 -10.5q18 -43 -6 -94q-25 -48 -67 -50q-23 0 -39 15q-16 10 -27 33q-23 47 12 102q12 18 38 32.5t44 14.5z" />
    <glyph glyph-name="Yacute" unicode="&#xdd;" horiz-adv-x="1054" 
d="M651 680q-7 -12 -51 -106q-46 -98 -69 -146q-18 -36 -70 -139q-83 -161 -144 -238q-43 -49 -153 -31q-111 16 -129 62q-27 96 -18 237q8 141 48 355q41 226 79 386q55 230 79 330q37 150 43 185q0 7 4 31q5 30 7 34q14 48 23 56q39 42 103 43q74 2 107 -36t27 -101
q-8 -53 -50 -103q-81 -94 -188 -570q-106 -472 -100 -644q4 -103 65 2q276 511 342 692q64 170 80 344q12 119 64 149q51 29 194 27q52 0 75 -29q21 -30 18 -60q-3 -32 -13 -50q-80 -163 -209 -896q-129 -734 -129 -999q0 -5 5 -37t5 -36q0 -42 -45 -76q-72 -53 -141 -37
q-92 20 -61 156q43 191 159 786q47 250 80 434q6 27 12 68q7 39 9.5 56t1.5 16q-5 0 -60 -115zM748 1944q0 1 2 11.5t5 28.5l5 30q11 66 33 102q15 25 28.5 37.5t35 13t48.5 -18.5q20 -17 13 -58t-27 -46t-88 -107q-27 -41 -49 -63q-19 -17 -19 9q0 7 2 18q1 3 5 18t6 25z
" />
    <glyph glyph-name="Thorn" unicode="&#xde;" horiz-adv-x="897" 
d="M522 1667q7 -37 -26 -105q-16 -31 -25 -51q-9 -21 -41 -155q-4 -16 -24 -103q82 56 159 64q113 6 213 -54q98 -61 94 -155q-12 -318 -172 -481q-67 -67 -191 -78q-123 -10 -210 49l-8 6q-53 -404 -60 -682q0 -20 9 -82q8 -62 3 -105q-4 -43 -34 -69q-38 -34 -84.5 -38
t-69.5 20q-21 15 -30 29.5t-9 38.5q0 28 4 44q4 26 13 66q9 39 16 84q0 4 2 17.5t6.5 44t8.5 58.5q9 69 26 191q53 422 115 862q12 101 33 225q14 92 30 190q9 64 6 81q-14 101 46 135q59 35 126 14q67 -23 74 -61zM522 1167q-53 -38 -95 -102q-42 -66 -60 -133
q-34 -100 -9 -190q25 -91 117 -91q61 0 112 54q50 53 77 129q56 159 47 262q-11 80 -63 101q-54 21 -126 -30z" />
    <glyph glyph-name="germandbls" unicode="&#xdf;" horiz-adv-x="1089" 
d="M983 1403q45 5 75 -60q28 -65 9 -132q-20 -69 -96 -70q-125 -6 -365 -133q-10 -5 -18.5 -9.5t-15.5 -8l-13 -6.5t-10 -5.5t-7 -4t-4 -2.5l-1 -1q0 -5 67 -6q273 -4 334 8q68 12 107 -59q37 -72 6 -121l-2 -2q-16 -33 -80 -52q-6 -1 -84 -45q-51 -29 -101 -68
q-49 -38 -99 -82q-42 -38 -114 -105q-60 -55 -108 -101q-100 -89 -137 -21q-28 55 6 134q14 35 39 53q4 3 26 20t56.5 43.5t72.5 55.5q129 97 174 135q5 4 15.5 12.5t19 15.5t10.5 9q1 2 7.5 6.5t8 6.5t-0.5 5q-3 1 -3 3q-1 3 -15 4q-11 1 -24 1q-2 0 -6.5 0.5t-13 1
t-16.5 0.5q-63 4 -148 -9q-81 -13 -106 -11q-32 1 -55 51t-17 107t47 77q32 15 159 83q120 65 183 93q56 27 55.5 30t-61.5 7q-165 8 -329 -16q-6 -2 -22.5 -3.5t-17.5 -1.5t-4 -1.5l-5 -2.5q-8 -4 -13 -30q-10 -53 -16 -102q-40 -248 -81 -573q-41 -326 -15 -371
q0 -1 1 -8.5t1 -10.5q12 -53 11 -118q-1 -67 -36 -99q-38 -34 -84.5 -38t-69.5 20q-34 26 -39 60.5t11 90.5q8 57 13 87q9 56 15 87q28 167 77 551q46 356 57 428q-5 5 -7 8q-91 121 31 172q110 7 368 8q268 2 398 15z" />
    <glyph glyph-name="agrave" unicode="&#xe0;" 
d="M883 1024q-8 -13 -33 -88q-77 -291 -105 -694v-21q0 -13 8 -63t7 -70q-6 -91 -113 -96q-89 -4 -102 90q-3 37 0 54.5t13 51.5t13 50q18 100 41 237q-68 -173 -174 -330q-96 -135 -207 -129q-96 4 -157 97q-38 56 -49 139q-25 195 73 430q107 258 287 393q85 61 221 39
q1 0 5.5 -0.5t14 -1t19.5 -0.5t53 -4q23 59 102 68q79 7 103 -46q19 -40 -20 -106zM580 971q-134 6 -267 -226q-143 -254 -123 -434q1 -44 25 -69q18 -25 53 -25q84 -1 178 174q94 173 162 363q6 19 22.5 60t18.5 47q20 55 17 69q-4 19 -22.5 28.5t-63.5 12.5zM631 1335
q19 -90 -6 -69q-22 22 -49 63q-26 40 -51 73q-22 29 -38 34q-20 5 -27 46t13 58q56 37 85 5q34 -38 48 -88q12 -45 21 -97q4 -20 4 -25z" />
    <glyph glyph-name="aacute" unicode="&#xe1;" 
d="M883 1024q-8 -13 -33 -88q-77 -291 -105 -694v-21q0 -13 8 -63t7 -70q-6 -91 -113 -96q-89 -4 -102 90q-6 41 9 92q16 54 17 64q18 100 41 237q-68 -173 -174 -330q-96 -135 -207 -129q-96 4 -157 97q-38 56 -49 139q-25 195 73 430q107 258 287 393q85 61 221 39
q1 0 5.5 -0.5t14 -1t19.5 -0.5t53 -4q12 35 50 53q68 35 124 2q70 -38 11 -139zM580 971q-134 6 -267 -226q-143 -254 -123 -434q1 -44 25 -69q18 -25 53 -25q84 -1 178 174q94 173 162 363q6 19 22.5 60t18.5 47q20 55 17 69q-4 19 -22.5 28.5t-63.5 12.5zM627 1329
q0 1 2 11.5t5 28.5l5 30q11 67 33 103q15 24 28.5 36.5t35 13.5t48.5 -18q20 -17 14 -58q-7 -42 -28 -46q-7 -2 -15 -9t-22.5 -26.5t-22 -30t-28.5 -41.5q-27 -41 -49 -63q-20 -18 -19 10q1 6 2 16q1 3 5 18t6 25z" />
    <glyph glyph-name="acircumflex" unicode="&#xe2;" 
d="M883 1024q-8 -13 -33 -88q-77 -291 -105 -694v-21q0 -13 8 -63t7 -70q-6 -91 -113 -96q-89 -4 -102 90q-3 37 0 54.5t13 51.5t13 50q18 100 41 237q-68 -173 -174 -330q-96 -135 -207 -129q-96 4 -157 97q-38 56 -49 139q-25 195 73 430q107 258 287 393q85 61 221 39
q1 0 5.5 -0.5t14 -1t19.5 -0.5t53 -4q23 59 102 68q79 7 103 -46q19 -40 -20 -106zM580 971q-134 6 -267 -226q-143 -254 -123 -434q1 -44 25 -69q18 -25 53 -25q84 -1 178 174q94 173 162 363q6 19 22.5 60t18.5 47q20 55 17 69q-4 19 -22.5 28.5t-63.5 12.5zM489 1372
q63 59 84 80q22 22 50.5 62.5t33.5 45.5q11 11 27 11q15 0 19.5 -8.5t13.5 -44.5q6 -27 22 -66q0 -1 56 -100q34 -55 -60 -95q-17 -6 -34 13.5t-21 44.5q-6 39 -14 57q-12 30 -16.5 32.5t-22.5 -11.5q-13 -13 -41 -60q-19 -25 -43 -43q-27 -20 -41 -12q-80 35 -13 94z" />
    <glyph glyph-name="atilde" unicode="&#xe3;" 
d="M883 1024q-8 -13 -33 -88q-77 -291 -105 -694v-21q0 -13 8 -63t7 -70q-6 -91 -113 -96q-89 -4 -102 90q-3 37 0 54.5t13 51.5t13 50q18 100 41 237q-68 -173 -174 -330q-96 -135 -207 -129q-96 4 -157 97q-38 56 -49 139q-25 195 73 430q107 258 287 393q85 61 221 39
q1 0 5.5 -0.5t14 -1t19.5 -0.5t53 -4q23 59 102 68q79 7 103 -46q19 -40 -20 -106zM580 971q-134 6 -267 -226q-143 -254 -123 -434q1 -44 25 -69q18 -25 53 -25q84 -1 178 174q94 173 162 363q6 19 22.5 60t18.5 47q20 55 17 69q-4 19 -22.5 28.5t-63.5 12.5zM535 1401
q120 -37 137 -37q42 -2 90 14q3 3 18 14q15 10 21 9q33 -2 38 -43q5 -40 -18 -60q-6 -6 -51 -12q-65 -18 -98 -16q-18 0 -73 15t-81 9q-50 -12 -55 35q-6 46 31 68q18 10 41 4z" />
    <glyph glyph-name="adieresis" unicode="&#xe4;" 
d="M883 1024q-8 -13 -33 -88q-77 -291 -105 -694v-21q0 -13 8 -63t7 -70q-6 -91 -113 -96q-89 -4 -102 90q-3 37 0 54.5t13 51.5t13 50q18 100 41 237q-68 -173 -174 -330q-96 -135 -207 -129q-96 4 -157 97q-38 56 -49 139q-25 195 73 430q107 258 287 393q85 61 221 39
q1 0 5.5 -0.5t14 -1t19.5 -0.5t53 -4q23 59 102 68q79 7 103 -46q19 -40 -20 -106zM580 971q-134 6 -267 -226q-143 -254 -123 -434q1 -44 25 -69q18 -25 53 -25q84 -1 178 174q94 173 162 363q6 19 22.5 60t18.5 47q20 55 17 69q-4 19 -22.5 28.5t-63.5 12.5zM791 1452
q24 0 32 -20q3 -5 13 -33q18 -44 -7 -94q-25 -49 -65 -50q-24 0 -41 15q-13 10 -27 33q-23 47 13 102q12 18 38 32.5t44 14.5zM567 1452q25 0 33 -20q1 -3 3.5 -9t5 -13.5l3.5 -10.5q18 -43 -6 -94q-25 -48 -67 -50q-23 0 -39 15q-16 10 -27 33q-23 47 12 102q12 18 38 32.5
t44 14.5z" />
    <glyph glyph-name="aring" unicode="&#xe5;" 
d="M883 1024q-8 -13 -33 -88q-77 -291 -105 -694v-21q0 -13 8 -63t7 -70q-6 -91 -113 -96q-89 -4 -102 90q-3 37 0 54.5t13 51.5t13 50q18 100 41 237q-68 -173 -174 -330q-96 -135 -207 -129q-96 4 -157 97q-38 56 -49 139q-25 195 73 430q107 258 287 393q85 61 221 39
q1 0 5.5 -0.5t14 -1t19.5 -0.5t53 -4q23 59 102 68q79 7 103 -46q19 -40 -20 -106zM580 971q-134 6 -267 -226q-143 -254 -123 -434q1 -44 25 -69q18 -25 53 -25q84 -1 178 174q94 173 162 363q6 19 22.5 60t18.5 47q20 55 17 69q-4 19 -22.5 28.5t-63.5 12.5zM475 1425
q17 74 103 107q59 20 126 4q68 -16 99 -57q37 -56 21.5 -107.5t-72.5 -85.5q-85 -55 -194 -10t-83 149zM645 1470q-33 4 -62.5 -14t-31.5 -45q-5 -23 21 -47q24 -26 57 -27q94 -4 102 62q4 21 -7 34t-28 5q-8 -5 -25 14q-18 18 -26 18z" />
    <glyph glyph-name="ae" unicode="&#xe6;" horiz-adv-x="1114" 
d="M559 344q-5 -40 0 -78q7 -89 47 -139q39 -49 84 -45q43 4 88.5 42t77.5 101q34 69 41 98q8 30 -2 56q-18 54 -18 97q0 54 81 54q8 -2 25 -2q69 -9 95.5 -51t10.5 -104q-28 -105 -81 -187q-62 -99 -149 -163t-179 -52q-212 27 -270 226q-17 57 -19 125q-15 -29 -36 -80
q-23 -56 -42 -93q-20 -39 -50 -79q-61 -84 -167 -80q-97 6 -159 98q-40 58 -50 139q-23 199 74 428q108 262 287 394q50 38 111 43q57 4 110 -5q61 0 92 -6q25 61 107 70q76 6 98 -45q12 -27 0 -66q34 12 72 9q38 -1 77 -17l-1 12q-1 12 -1 19q-1 11 -3 31.5t-3.5 34.5
t-1.5 22q-4 60 74 98q77 37 115 2q26 -23 6 -75q-33 -92 -30 -216q3 -123 38 -202q14 -29 -12 -85q-27 -58 -60 -59q-69 -7 -270 -113q-201 -107 -207 -157zM442 944q-135 6 -264 -223q-143 -254 -125 -436q6 -43 25 -68q18 -22 53 -27q86 -5 178 175q99 182 164 364
q6 18 21.5 56.5t19.5 49.5q19 55 16 68q-4 19 -23 28.5t-65 12.5zM672 676l-13 -25q-2 -8 -8 -53q177 74 242 117q32 22 40 38q7 15 3 60q-4 43 -6 57q-1 10 -10 33q-6 13 -17 14t-24 -5t-37 -21q-44 -32 -78 -74q-46 -59 -92 -141z" />
    <glyph glyph-name="ccedilla" unicode="&#xe7;" horiz-adv-x="1024" 
d="M772 1028q-70 -28 -178 -105q-113 -81 -218 -180q-107 -101 -166 -216q-58 -115 -17 -195q52 -99 175 -134q120 -34 236 11q81 31 191 135q3 3 17 27q16 26 28 39q10 16 37.5 11t54.5 -36q66 -77 41 -143q-3 -9 -7.5 -17.5t-11 -16t-12 -13.5t-14.5 -12.5t-13 -9.5
t-12.5 -8.5t-9.5 -6.5l-14 -8q-71 -70 -184 -106t-222 -36q-132 -2 -238 55q-107 55 -163 158q-70 122 -49 283q17 117 147 273q130 154 277 266q146 110 221 126q89 70 172 76q48 152 55 191q12 52 113 69q94 13 122 -24q23 -29 -24 -76q-19 -19 -37 -62
q-76 -133 -124 -292q-50 -165 -50 -283q0 -6 6 -37q6 -30 -2 -52q-7 -22 -37 -30q-128 -43 -156 21q-12 25 -12 70v24q0 20 78 264zM406 -129q-53 17 -35 54q18 38 63 50q34 7 54 -13q5 -5 14 -19t10 -15q26 -26 54 -50t56 -46.5t40 -32.5l8 -8q63 -53 4 -145
q-7 -12 -19 -13.5t-22 3.5t-23.5 12.5t-19.5 9.5q-162 39 -262 -6q-50 -25 -64 17t15 77q19 28 49 26q8 -1 24.5 -5.5t18.5 -4.5q108 -6 188 -2q-67 86 -153 111z" />
    <glyph glyph-name="egrave" unicode="&#xe8;" horiz-adv-x="997" 
d="M221 909q-19 -1 -29 19.5t-13 47.5q-6 80 -7 91q-4 42 16.5 64t49.5 19q26 -3 45 -3q126 -26 248 -18q88 6 108 8q74 9 129 17q91 13 115 15q53 6 82 -63q33 -73 -4 -113q-22 -27 -72 -16q-203 41 -387 27l-113 -11q84 -29 229 -63t205 -62q3 0 21.5 -5.5t29.5 -10.5
q13 -7 23 -31.5t10 -58.5q0 -50 -8 -96q-12 -44 -48 -52.5t-118 13.5q-25 6 -122 -6q-107 -15 -208 -38q-112 -25 -187 -84t-48 -134q33 -94 143 -141q109 -48 242 -36q117 11 221 62q1 0 25 19q16 14 37 25q15 12 41 2.5t45 -42.5q41 -66 -7 -123q-10 -12 -24 -22
t-27.5 -16.5t-24 -11t-20.5 -7.5l-10 -4q-96 -46 -216 -63q-116 -17 -218 3q-214 40 -305 211q-17 32 -23 51q-61 162 -6 271q85 165 584 223q80 11 73 27q-16 17 -171 58q-149 39 -195 44q-14 1 -55 6q-45 5 -56 8zM561 1327q16 -76 1 -73q-3 0 -7 3q-21 21 -49 64
q-26 40 -51 73q-22 28 -37 33q-20 5 -27 47t12 58q26 18 48 19t38 -15t27 -36.5t21 -50.5q10 -35 20 -97q4 -20 4 -25z" />
    <glyph glyph-name="eacute" unicode="&#xe9;" horiz-adv-x="997" 
d="M221 909q-19 -1 -29 19.5t-13 47.5q-6 80 -7 91q-4 42 16.5 64t49.5 19q26 -3 45 -3q126 -26 248 -18q88 6 108 8q74 9 129 17q91 13 115 15q30 4 55 -22q47 -47 39 -115q-7 -72 -88 -55q-203 41 -387 27l-113 -11q84 -29 229 -63t205 -62q3 0 21.5 -5.5t29.5 -10.5
q13 -7 23 -31.5t10 -58.5q0 -50 -8 -96q-12 -44 -48 -52.5t-118 13.5q-25 6 -122 -6q-107 -15 -208 -38q-112 -25 -187 -84t-48 -134q33 -94 143 -141q109 -48 242 -36q117 11 221 62q1 0 25 19q16 14 37 25q15 12 41 2.5t45 -42.5q41 -66 -7 -123q-10 -12 -24 -22
t-27.5 -16.5t-24 -11t-20.5 -7.5l-10 -4q-96 -46 -216 -63q-116 -17 -218 3q-214 40 -305 211q-14 35 -23 51q-61 162 -6 271q85 165 584 223q40 5 59 12q18 8 14 15q-16 17 -171 58q-149 39 -195 44q-14 1 -55 6q-45 5 -56 8zM594 1325q0 1 2 11.5t5 28.5l5 30
q11 64 33 103q15 25 28.5 37t35 12.5t49.5 -17.5q20 -17 13 -58q-8 -43 -28 -47q-20 -5 -87 -106q-27 -41 -50 -64q-20 -17 -18 9q0 7 2 18q2 7 5.5 22t4.5 21z" />
    <glyph glyph-name="ecircumflex" unicode="&#xea;" horiz-adv-x="997" 
d="M221 909q-19 -1 -29 19.5t-13 47.5q-6 80 -7 91q-4 42 16.5 64t49.5 19q26 -3 45 -3q126 -26 248 -18q88 6 108 8q74 9 129 17q91 13 115 15q53 6 82 -63q33 -73 -4 -113q-22 -27 -72 -16q-203 41 -387 27l-113 -11q84 -29 229 -63t205 -62q3 0 21.5 -5.5t29.5 -10.5
q13 -7 23 -31.5t10 -58.5q0 -50 -8 -96q-12 -44 -48 -52.5t-118 13.5q-25 6 -122 -6q-107 -15 -208 -38q-112 -25 -187 -84t-48 -134q33 -94 143 -141q109 -48 242 -36q117 11 221 62q1 0 25 19q16 14 37 25q15 12 41 2.5t45 -42.5q41 -66 -7 -123q-10 -12 -24 -22
t-27.5 -16.5t-24 -11t-20.5 -7.5l-10 -4q-96 -46 -216 -63q-116 -17 -218 3q-214 40 -305 211q-17 32 -23 51q-61 162 -6 271q85 165 584 223q80 11 73 27q-16 17 -171 58q-149 39 -195 44q-14 1 -55 6q-45 5 -56 8zM420 1362q63 59 84 80q22 22 50 62.5t33 45.5
q11 11 28 11q4 0 6.5 -0.5t5 -1.5t4 -2t3 -4l2.5 -5t2.5 -7t2.5 -8.5t3 -11.5t3 -13q7 -31 23 -66q0 -1 6 -11.5t20 -36.5t29 -53q34 -55 -59 -94q-17 -6 -34.5 13.5t-21.5 44.5q-6 39 -14 57q-12 30 -16.5 32t-22.5 -12q-19 -19 -29 -37q-2 -4 -6 -11.5t-6 -10.5
q-19 -25 -43 -43q-27 -20 -41 -12q-79 35 -12 94z" />
    <glyph glyph-name="edieresis" unicode="&#xeb;" horiz-adv-x="997" 
d="M221 909q-19 -1 -29 19.5t-13 47.5q-6 80 -7 91q-4 42 16.5 64t49.5 19q26 -3 45 -3q126 -26 248 -18q88 6 108 8q74 9 129 17q91 13 115 15q53 6 82 -63q33 -73 -4 -113q-22 -27 -72 -16q-203 41 -387 27l-113 -11q84 -29 229 -63t205 -62q3 0 21.5 -5.5t29.5 -10.5
q13 -7 23 -31.5t10 -58.5q0 -50 -8 -96q-12 -44 -48 -52.5t-118 13.5q-25 6 -122 -6q-107 -15 -208 -38q-112 -25 -187 -84t-48 -134q33 -94 143 -141q109 -48 242 -36q117 11 221 62q1 0 25 19q16 14 37 25q15 12 41 2.5t45 -42.5q41 -66 -7 -123q-10 -12 -24 -22
t-27.5 -16.5t-24 -11t-20.5 -7.5l-10 -4q-96 -46 -216 -63q-116 -17 -218 3q-214 40 -305 211q-17 32 -23 51q-61 162 -6 271q85 165 584 223q80 11 73 27q-16 17 -171 58q-149 39 -195 44q-14 1 -55 6q-45 5 -56 8zM711 1454q21 0 32 -20q2 -3 13 -33q18 -43 -6 -94
q-25 -48 -66 -50q-24 0 -41 15q-17 10 -27 33q-23 47 13 102q12 18 38 32.5t44 14.5zM487 1454q22 0 33 -20q1 -2 3.5 -8.5t5 -14l3.5 -10.5q18 -43 -6 -94q-25 -48 -67 -50q-23 0 -39 15q-14 10 -27 33q-23 47 13 102q12 18 37.5 32.5t43.5 14.5z" />
    <glyph glyph-name="igrave" unicode="&#xec;" horiz-adv-x="413" 
d="M340 1042q-4 -5 -31 -88q-129 -409 -110 -751q0 -11 13 -53q13 -43 10 -73t-29 -44q-52 -28 -88 -26t-52 27q-15 20 -26 54q-6 18 -7 39t1 43t2 25q0 1 1 4t2 8.5t1 13.5q91 511 116 770q2 5 -4 14t-6 11q11 122 66 153q43 25 91 20t67 -40t-17 -107zM283 1337
q16 -74 1 -73q-3 0 -8 4q-20 20 -48 63q-26 40 -51 73q-22 29 -38 34q-20 5 -27 46q-7 42 13 58q56 37 85 5q34 -37 48 -87q5 -19 21 -98q4 -20 4 -25z" />
    <glyph glyph-name="iacute" unicode="&#xed;" horiz-adv-x="413" 
d="M340 1042q-4 -5 -31 -88q-129 -409 -110 -751q0 -11 13 -53q13 -43 10 -73t-29 -44q-52 -31 -87 -26t-53 25.5t-26 55.5q-14 72 -4 107q0 1 2 8t2 18q91 511 116 770q2 5 -4 14t-6 11q11 122 66 153q44 20 91 21q48 0 69 -41q20 -41 -19 -107zM297 1341q0 1 2 12t5 29.5
t5 29.5q10 62 33 102q15 25 28.5 37.5t35 13t49.5 -18.5q20 -17 13 -58q-7 -42 -28 -46q-7 -2 -15.5 -10t-21.5 -25t-22 -30.5t-28 -41.5q-28 -42 -50 -63q-19 -17 -18 7q0 8 2 19q2 7 5.5 22t4.5 21z" />
    <glyph glyph-name="icircumflex" unicode="&#xee;" horiz-adv-x="413" 
d="M340 1042q-4 -5 -31 -88q-129 -409 -110 -751q0 -11 13 -53q13 -43 10 -73t-29 -44q-52 -28 -88 -26t-52 27q-15 20 -26 54q-6 18 -7 39t1 43t2 25q0 1 1 4t2 8.5t1 13.5q91 511 116 770q2 5 -4 14t-6 11q11 122 66 153q43 25 91 20t67 -40t-17 -107zM160 1368
q63 59 84 80q22 22 50 62.5t33 45.5q11 11 28 11q4 0 6.5 -0.5t5 -1.5t4 -2t3 -4l2.5 -5t2.5 -7t2.5 -8.5t3 -11.5t3 -13q7 -31 23 -66q0 -1 6 -11.5t20.5 -36.5t28.5 -52q34 -55 -59 -95q-17 -6 -34.5 13.5t-21.5 44.5q-6 39 -14 57q-12 30 -16.5 32.5t-22.5 -11.5
q-15 -13 -41 -60q-19 -25 -43 -43q-27 -20 -41 -12q-79 35 -12 94z" />
    <glyph glyph-name="idieresis" unicode="&#xef;" horiz-adv-x="413" 
d="M340 1042q-4 -5 -31 -88q-129 -409 -110 -751q0 -11 13 -53q13 -43 10 -73t-29 -44q-52 -28 -88 -26t-52 27q-15 20 -26 54q-6 18 -7 39t1 43t2 25q0 1 1 4t2 8.5t1 13.5q91 511 116 770q2 5 -4 14t-6 11q11 122 66 153q43 25 91 20t67 -40t-17 -107zM426 1456
q22 0 33 -20q1 -2 3.5 -8.5t5 -14l3.5 -10.5q18 -43 -6 -94q-25 -49 -66 -49q-24 0 -41 14q-14 11 -26 33q-22 47 12 102q12 18 38 32.5t44 14.5zM203 1456q4 0 7 -0.5t5.5 -1t5 -2t4 -2.5t3.5 -3t2.5 -3t2.5 -4t3 -4q1 -2 3.5 -8.5t5 -14l3.5 -10.5q18 -43 -6 -94
q-25 -49 -68 -49q-22 0 -39 14q-14 11 -26 33q-23 47 12 102q12 18 38 32.5t44 14.5z" />
    <glyph glyph-name="eth" unicode="&#xf0;" horiz-adv-x="1681" 
d="M874 1155q39 -7 76 -16q24 -8 25 -6q1 3 -31 32l-41 41q-48 46 -95.5 93t-68 66.5t-24.5 23.5l-2 2q-91 -32 -172 -76q-5 -2 -52 -43q-40 -32 -63 -4q-41 40 -49.5 77t15.5 58q45 45 83 53q5 0 21 4l114 29q-2 2 -7 5.5t-7 4.5l-49 32q-36 22 -53 39q-20 16 -27 36
q-14 38 31 90q46 54 105 55q60 2 116 -92q31 -57 82 -121q141 36 243 68q3 1 25 11.5t33 14.5q13 7 36.5 3t43.5 -19q32 -25 44.5 -66.5t-8 -70t-73.5 -17.5q-19 2 -26.5 2t-25 -2t-18.5 -2q-93 -6 -182 -24q55 -57 205 -199q102 -97 177 -177q77 -82 162 -190
q90 -116 137 -209q51 -100 76 -214q25 -115 7 -226q-46 -280 -317 -411q-271 -129 -609 -37q-337 90 -539 354q-204 263 -157 547q45 262 287 399q243 137 552 82zM1495 279q37 219 -107 413q-146 194 -364 279q-174 68 -353 50.5t-304 -110.5q-86 -62 -132.5 -163
t-39.5 -224q11 -203 168 -377t393 -237q268 -72 484 36t255 333z" />
    <glyph glyph-name="ntilde" unicode="&#xf1;" horiz-adv-x="868" 
d="M240 -330q-18 -35 -89 -38q-70 -3 -117 47q-46 50 -5 143q19 46 35 155q16 111 16 160q4 55 4 84q1 17 7 77q5 48 5 52q23 243 60 515q37 270 51 401q4 29 7 85q1 16 5 68q1 15 10 43q7 22 18.5 33t37.5 23q106 43 151 -25q27 -39 8 -88q-4 -10 -23 -56q-16 -38 -17 -45
q-3 -10 -9 -48q-6 -40 4 -66q4 -28 31 -162q12 -58 21 -102q22 -125 49 -240q7 -34 20 -92q18 -94 29 -96q2 -1 4 3t4 13q4 10 16 88q53 285 66 586q4 82 80 76q69 -1 112 -58q23 -32 17 -61q-1 -6 -10 -29t-11 -31q-114 -522 -125 -737q-4 -117 13 -194q10 -34 -8 -74
q-20 -39 -82 -23q-92 26 -130 53q-39 26 -53 83q-10 40 -8 117t-4 124q-39 235 -98 494q-80 -488 -96 -934q0 -10 -4 -70q-5 -71 -1 -90q1 -9 8 -46.5t8 -43.5q9 -47 -7 -74zM545 1663q120 -37 137 -37q42 -2 90 14q2 2 17 14q14 11 22 9q33 -2 38 -43t-18 -59
q-5 -5 -51 -13q-65 -18 -98 -16q-19 0 -73 16q-56 15 -81 8q-50 -12 -55 35q-6 46 31 68q18 10 41 4z" />
    <glyph glyph-name="ograve" unicode="&#xf2;" horiz-adv-x="741" 
d="M520 -16q-149 63 -311 55q-26 -1 -77 -19q-50 -19 -66 -20q-39 -2 -50 33q-12 36 7 79q18 44 51 60q35 11 52 9q23 -2 52 -11q34 -10 51 -12q87 -4 287 -39q-67 51 -106 71q-27 14 -84 32q-55 17 -80 30q-235 127 -174 469q26 143 129 281q104 137 231 149q105 8 197 -71
q92 -80 98 -185q10 -165 -53 -354q-44 -120 -109 -195q-14 -18 -35 -35t-23 -21q-1 -2 5 -18q81 -74 143 -104q14 -18 13 -69q-1 -53 -45 -97t-103 -18zM387 977q-112 -96 -156 -275q-35 -117 -9 -222t118 -105q69 0 134 96q63 96 87 219q23 129 14 203q-7 93 -62 119
q-54 24 -126 -35zM489 1325q16 -76 1 -73q-3 0 -7 3q-18 18 -48 64q-19 29 -52 73q-22 28 -37 33q-20 5 -27 46q-8 43 13 59q85 60 133 -83q10 -35 20 -97q4 -20 4 -25z" />
    <glyph glyph-name="oacute" unicode="&#xf3;" horiz-adv-x="741" 
d="M520 -16q-149 63 -311 55q-26 -1 -77 -19q-50 -19 -66 -20q-39 -2 -50 33q-12 36 7 79q18 44 51 60q35 11 52 9q23 -2 52 -11q34 -10 51 -12q87 -4 287 -39q-67 51 -106 71q-27 14 -84 32q-55 17 -80 30q-235 127 -174 469q26 143 129 281q104 137 231 149q105 8 197 -71
q92 -80 98 -185q10 -165 -53 -354q-44 -120 -109 -195q-14 -18 -35 -35t-23 -21q-1 -2 5 -18q81 -74 143 -104q14 -18 13 -69q-1 -53 -45 -97t-103 -18zM387 977q-112 -96 -156 -275q-35 -117 -9 -222t118 -105q69 0 134 96q63 96 87 219q23 129 14 203q-7 93 -62 119
q-54 24 -126 -35zM541 1327q0 1 2 11.5t5 28.5l5 30q11 67 33 103q15 24 28.5 36.5t35 13.5t48.5 -18q20 -17 14 -58q-8 -43 -28 -47q-7 -2 -15.5 -9.5t-22 -25t-22.5 -30.5t-28 -41q-25 -38 -49 -64q-19 -17 -19 9q0 7 2 18q1 3 5 18t6 25z" />
    <glyph glyph-name="ocircumflex" unicode="&#xf4;" horiz-adv-x="741" 
d="M520 -16q-149 63 -311 55q-26 -1 -77 -19q-50 -19 -66 -20q-39 -2 -50 33q-12 36 7 79q18 44 51 60q35 11 52 9q23 -2 52 -11q34 -10 51 -12q87 -4 287 -39q-67 51 -106 71q-27 14 -84 32q-55 17 -80 30q-235 127 -174 469q26 143 129 281q104 137 231 149q105 8 197 -71
q92 -80 98 -185q10 -165 -53 -354q-44 -120 -109 -195q-14 -18 -35 -35t-23 -21q-1 -2 5 -18q81 -74 143 -104q14 -18 13 -69q-1 -53 -45 -97t-103 -18zM387 977q-112 -96 -156 -275q-35 -117 -9 -222t118 -105q69 0 134 96q63 96 87 219q23 129 14 203q-7 93 -62 119
q-54 24 -126 -35zM358 1354q63 59 84 80q22 22 50 62t34 45q11 11 27 11q15 0 19.5 -8.5t13.5 -44.5q7 -29 22 -65q0 -1 6 -11t21 -37t29 -53q34 -55 -60 -94q-17 -6 -34 13.5t-21 43.5q-6 40 -14 58q-12 30 -16.5 32t-22.5 -12q-23 -23 -30 -37q-3 -5 -6.5 -12.5t-4.5 -9.5
q-19 -25 -43 -43q-27 -21 -41 -12q-80 35 -13 94z" />
    <glyph glyph-name="otilde" unicode="&#xf5;" horiz-adv-x="741" 
d="M520 -16q-149 63 -311 55q-26 -1 -77 -19q-50 -19 -66 -20q-39 -2 -50 33q-12 36 7 79q18 44 51 60q35 11 52 9q23 -2 52 -11q34 -10 51 -12q87 -4 287 -39q-67 51 -106 71q-27 14 -84 32q-55 17 -80 30q-235 127 -174 469q26 143 129 281q104 137 231 149q105 8 197 -71
q92 -80 98 -185q10 -165 -53 -354q-44 -120 -109 -195q-14 -18 -35 -35t-23 -21q-1 -2 5 -18q81 -74 143 -104q14 -18 13 -69q-1 -53 -45 -97t-103 -18zM387 977q-112 -96 -156 -275q-35 -117 -9 -222t118 -105q69 0 134 96q63 96 87 219q23 129 14 203q-7 93 -62 119
q-54 24 -126 -35zM414 1395q120 -37 137 -37q42 -2 90 14q3 0 17 13q13 12 22 10q33 -2 38 -43q4 -40 -18 -60q-6 -6 -51 -12q-65 -18 -98 -16q-17 0 -73 15t-81 9q-50 -12 -55 35q-6 46 31 68q18 10 41 4z" />
    <glyph glyph-name="odieresis" unicode="&#xf6;" horiz-adv-x="741" 
d="M520 -16q-149 63 -311 55q-26 -1 -77 -19q-50 -19 -66 -20q-39 -2 -50 33q-12 36 7 79q18 44 51 60q35 11 52 9q23 -2 52 -11q34 -10 51 -12q87 -4 287 -39q-67 51 -106 71q-27 14 -84 32q-55 17 -80 30q-235 127 -174 469q26 143 129 281q104 137 231 149q105 8 197 -71
q92 -80 98 -185q10 -165 -53 -354q-44 -120 -109 -195q-14 -18 -35 -35t-23 -21q-1 -2 5 -18q81 -74 143 -104q14 -18 13 -69q-1 -53 -45 -97t-103 -18zM387 977q-112 -96 -156 -275q-35 -117 -9 -222t118 -105q69 0 134 96q63 96 87 219q23 129 14 203q-7 93 -62 119
q-54 24 -126 -35zM647 1452q25 0 33 -20q1 -3 3.5 -9t5 -13.5l3.5 -10.5q18 -43 -6 -94q-25 -49 -65 -50q-25 0 -41 15q-14 10 -27 33q-23 47 12 102q12 18 38 32.5t44 14.5zM424 1452q25 0 33 -20q1 -3 3.5 -9t5 -13.5l3.5 -10.5q18 -43 -6 -94q-25 -49 -68 -50
q-23 0 -39 15q-14 11 -26 33q-22 47 12 102q12 18 38 32.5t44 14.5z" />
    <glyph glyph-name="divide" unicode="&#xf7;" horiz-adv-x="765" 
d="M420 754q-23 -12 -58 -9q-58 6 -74 48q-18 40 5 84q16 35 32.5 52.5t34.5 16.5q58 2 87 -38q30 -40 22 -88q-7 -48 -49 -66zM420 299q-23 -13 -58 -8q-58 6 -74 48q-18 42 5 83q31 70 67 70q58 2 87 -38q30 -40 22 -88q-7 -48 -49 -67zM668 520q-12 6 -58 15
q-258 59 -469 -5q-4 -1 -12.5 -6t-20.5 -12.5t-18 -10.5q-33 -19 -49 11q-41 73 -20 110q19 38 48 51q25 13 50 11h16q337 -8 479 2q1 0 22 5t31 6q41 2 62 -38q35 -60 16 -118q-18 -54 -77 -21z" />
    <glyph glyph-name="oslash" unicode="&#xf8;" horiz-adv-x="694" 
d="M96 131l-12 12q-32 29 -57 78q-76 149 -37 416q27 171 131 339q104 167 229 179q44 4 86 -8q18 43 27 51q2 2 2 10v4q7 83 88 115q71 27 102 -18q47 -63 -53 -205q-12 -13 -27 -37q84 -84 82 -207q-12 -446 -172 -678q-45 -61 -114.5 -90t-143.5 -18q0 -56 -1 -70
q-2 -23 -10 -53q-9 -31 -30 -43q-40 -22 -72 -16.5t-48 32.5q-8 12 -18 41q-2 6 2 42q1 11 17 52q14 42 29 72zM485 905q-142 -288 -239 -686q6 -2 14 -2q61 0 112 76q51 78 77 182q26 106 39 205q12 103 8 164q-3 23 -11 61zM154 301q15 47 28 82q57 170 201 610
q-37 -6 -76 -49q-113 -118 -155 -332q-39 -197 2 -311z" />
    <glyph glyph-name="ugrave" unicode="&#xf9;" horiz-adv-x="991" 
d="M735 727q-15 -30 -50 -148q-35 -119 -89 -251q-39 -96 -143 -242q-42 -64 -120 -104q-40 -22 -97.5 -14t-110.5 48q-46 32 -71 86q-26 52 -37 99t-11 120q0 75 3 103q1 8 2.5 21t4 34t4.5 37q1 11 3 19q32 265 184 534q9 16 16 54q7 39 29 61q20 20 67 28q66 10 106 -36
q41 -46 3 -105q-1 -4 -21 -19q-22 -18 -28 -32q-80 -136 -131 -303q-85 -267 -65 -444q11 -95 59 -126q59 -39 140 68q80 105 145 267q61 154 109 298q47 138 48 172q14 164 51 200q37 35 170 34q43 -1 62.5 -24.5t18.5 -49.5t-13 -43q-66 -130 -96 -361q-31 -224 -29 -468
q0 -15 4 -36t4 -28q0 -47 -54 -71q-53 -25 -103 -2t-37 90q4 17 4 28q17 93 30 178q12 94 20 170q10 100 19 158zM584 1333q20 -90 -6 -69q-22 22 -49 63q-26 40 -51 73q-22 29 -38 34q-20 5 -27 46t13 58q56 37 85 5q34 -38 48 -88q6 -21 21 -97q4 -20 4 -25z" />
    <glyph glyph-name="uacute" unicode="&#xfa;" horiz-adv-x="991" 
d="M735 727q-15 -30 -50 -148q-35 -119 -89 -251q-39 -96 -143 -242q-42 -64 -120 -104q-40 -22 -97.5 -14t-110.5 48q-80 57 -107 179q-25 109 5 340q32 265 184 534q9 16 16 54q7 39 29 61q20 20 67 28q66 10 106 -36q41 -46 3 -105q-1 -4 -21 -19q-22 -18 -28 -32
q-80 -136 -131 -303q-85 -267 -65 -444q11 -95 59 -126q59 -39 140 68q80 105 145 267q61 154 109 298q47 138 48 172q14 164 51 200q37 35 170 34q43 -1 62.5 -24.5t18.5 -49.5t-13 -43q-66 -130 -96 -361q-31 -224 -29 -468q0 -15 4 -36t4 -28q0 -47 -54 -71
q-53 -25 -103 -2t-37 90q4 17 4 28q17 93 30 178q12 94 20 170q10 100 19 158zM612 1327q0 1 2 12t5.5 28t5.5 30q11 67 33 103q15 25 28 37t34.5 13t49.5 -18q20 -17 13 -58q-8 -43 -27 -47q-21 -6 -88 -106q-27 -41 -50 -64q-20 -17 -18 9q0 7 2 18q2 7 5.5 22t4.5 21z
" />
    <glyph glyph-name="ucircumflex" unicode="&#xfb;" horiz-adv-x="991" 
d="M735 727q-15 -30 -50 -148q-35 -119 -89 -251q-39 -96 -143 -242q-42 -64 -120 -104q-40 -22 -97.5 -14t-110.5 48q-46 32 -71 86q-26 52 -37 99t-11 120q0 75 3 103q1 8 2.5 21t4 34t4.5 37q1 11 3 19q32 265 184 534q9 16 16 54q7 39 29 61q20 20 67 28q66 10 106 -36
q41 -46 3 -105q-1 -4 -21 -19q-22 -18 -28 -32q-80 -136 -131 -303q-85 -267 -65 -444q11 -95 59 -126q59 -39 140 68q80 105 145 267q61 154 109 298q47 138 48 172q14 164 51 200q37 35 170 34q43 -1 62.5 -24.5t18.5 -49.5t-13 -43q-66 -130 -96 -361q-31 -224 -29 -468
q0 -15 4 -36t4 -28q0 -47 -54 -71q-53 -25 -103 -2t-37 90q4 17 4 28q17 93 30 178q12 94 20 170q10 100 19 158zM494 1362q63 59 84 80q22 22 50 62.5t33 45.5q11 11 28 11q4 0 6.5 -0.5t5 -1.5t4 -2t3 -4l2.5 -5t2.5 -7t2.5 -8.5t3 -11.5t3 -13q6 -28 22 -66q0 -1 6 -11
t21 -37t29 -53q34 -55 -60 -94q-17 -6 -34 13.5t-21 44.5q-6 39 -14 57q-12 30 -16.5 32t-22.5 -12q-23 -23 -30 -37q-3 -5 -6.5 -12.5t-4.5 -9.5q-19 -25 -43 -43q-27 -20 -41 -12q-79 35 -12 94z" />
    <glyph glyph-name="udieresis" unicode="&#xfc;" horiz-adv-x="991" 
d="M735 727q-15 -30 -50 -148q-35 -119 -89 -251q-39 -96 -143 -242q-42 -64 -120 -104q-40 -22 -97.5 -14t-110.5 48q-46 32 -71 86q-26 52 -37 99t-11 120q0 75 3 103q1 8 2.5 21t4 34t4.5 37q1 11 3 19q32 265 184 534q9 16 16 54q7 39 29 61q20 20 67 28q66 10 106 -36
q41 -46 3 -105q-1 -4 -21 -19q-22 -18 -28 -32q-80 -136 -131 -303q-85 -267 -65 -444q11 -95 59 -126q59 -39 140 68q80 105 145 267q61 154 109 298q47 138 48 172q14 164 51 200q37 35 170 34q43 -1 62.5 -24.5t18.5 -49.5t-13 -43q-66 -130 -96 -361q-31 -224 -29 -468
q0 -15 4 -36t4 -28q0 -47 -54 -71q-53 -25 -103 -2t-37 90q4 17 4 28q17 93 30 178q12 94 20 170q10 100 19 158zM745 1452q25 0 33 -20q1 -3 6 -16t7 -17q18 -44 -7 -94q-25 -49 -65 -50q-25 0 -41 15q-14 10 -27 33q-23 47 13 102q12 18 37.5 32.5t43.5 14.5zM522 1452
q25 0 33 -20q1 -3 3.5 -9t5 -13.5l3.5 -10.5q18 -43 -6 -94q-25 -48 -67 -50q-22 0 -39 15q-13 10 -27 33q-22 47 12 102q12 18 38 32.5t44 14.5z" />
    <glyph glyph-name="yacute" unicode="&#xfd;" horiz-adv-x="829" 
d="M487 416q-167 -337 -221 -434q-33 -45 -130 -29q-98 17 -111 55q-18 56 -13 213q10 177 69 515q58 335 58 345q7 67 35.5 102.5t95.5 37.5q63 2 90 -30.5t21 -86.5q-5 -38 -36 -81q-31 -42 -42 -73q-50 -146 -97 -410q-47 -261 -42 -362q3 -45 16 -45q4 0 9 5q9 8 30 44
q153 282 230 486q54 144 67 290q10 100 54 126t163 24q41 0 62 -23.5t18 -51.5q-1 -21 -10 -44q-68 -135 -164 -726q-96 -593 -96 -822q0 -7 4 -32.5t4 -31.5q0 -46 -62 -69q-64 -21 -119 4q-58 26 -44 94q141 702 192 987q4 25 12 66q6 25 7 28v25q-5 -2 -50 -96zM518 1323
q0 5 13 70q14 72 32 103q15 25 28.5 37t35 12.5t49.5 -17.5q20 -17 13 -58q-7 -42 -27 -47q-21 -6 -88 -106q-27 -41 -50 -64q-20 -17 -18 9q0 7 2 18q2 7 5.5 22t4.5 21z" />
    <glyph glyph-name="thorn" unicode="&#xfe;" horiz-adv-x="894" 
d="M524 1667q7 -37 -26 -105q-16 -31 -25 -51q-9 -21 -41 -155q-40 -178 -55 -254q91 92 180 98q118 12 222 -70q104 -83 100 -210q-12 -428 -181 -654q-72 -91 -200 -105q-129 -13 -219 66q-5 7 -25 27q-18 -213 -21 -332q0 -20 9 -82q8 -62 3 -105q-4 -43 -34 -69
q-38 -34 -84.5 -38t-69.5 20q-53 29 -34 111q0 1 13 67q9 46 15 84q0 4 2 17.5t6.5 44t8.5 58.5q9 69 26 191q0 8 46 349q46 345 69 513q12 98 33 224q20 127 30 192q9 62 7 80q-13 101 45 135q59 35 126 14q67 -23 74 -61zM512 999q-56 -51 -99 -139t-63 -180
q-37 -134 -10 -257q27 -122 123 -122q66 0 118 73q51 70 80 174q26 96 40 199q12 100 8 156q-11 110 -65 138q-56 29 -132 -42z" />
    <glyph glyph-name="ydieresis" unicode="&#xff;" horiz-adv-x="829" 
d="M487 416q-167 -337 -221 -434q-33 -45 -130 -29q-98 17 -111 55q-18 56 -13 213q10 177 69 515q58 335 58 345q4 44 13.5 68t37.5 46q29 25 80 26q63 2 90 -30.5t21 -86.5q-5 -38 -36 -81q-31 -42 -42 -73q-50 -146 -97 -410q-47 -261 -42 -362q3 -45 16 -45q4 0 9 5
q9 8 30 44q153 282 230 486q54 144 67 290q10 100 54 126t163 24q41 0 62 -23.5t18 -51.5q-1 -21 -10 -44q-68 -135 -164 -726q-96 -593 -96 -822q0 -7 4 -32.5t4 -31.5q0 -46 -62 -69q-64 -21 -119 4q-58 26 -44 94q141 702 192 987q4 25 12 66q3 17 5.5 29t3.5 18t0 6
l-21 -33q-3 -6 -13.5 -26.5t-17.5 -36.5zM696 1450q25 0 33 -20q1 -3 3.5 -9t5 -13.5l3.5 -10.5q18 -43 -6 -94q-25 -49 -65 -50q-24 0 -41 15q-15 11 -27 32q-23 47 12 103q12 18 38 32.5t44 14.5zM473 1450q25 0 33 -20q1 -3 3.5 -9t5 -13.5l3.5 -10.5q18 -43 -6 -94
q-25 -49 -68 -50q-23 0 -38 15q-15 11 -27 32q-23 47 12 103q12 18 38 32.5t44 14.5z" />
    <glyph glyph-name="Lslash" unicode="&#x141;" horiz-adv-x="968" 
d="M715 1675q7 -36 -26 -105l-25 -50q-8 -20 -41 -156q-48 -191 -101 -492q29 25 43 39q2 2 9 11t16 21t14 19q11 12 33 18.5t45 0.5q67 -17 92 -70q25 -55 -55 -82q-3 0 -62 -34q-87 -50 -163 -111q-62 -441 -70 -754q-1 -100 17 -113q19 -12 102 7q571 96 624 119
q89 43 144 5q53 -38 46 -98q-8 -59 -32 -81q-25 -9 -45 -9.5t-54 5.5q-36 6 -59 6q-365 -18 -876 -152l-3 -1q-2 0 -7.5 -1.5t-10.5 -2.5q-6 -1 -11.5 -2.5t-9.5 -3t-5 -1.5q-12 -3 -25 -6q-9 -2 -19.5 -4.5t-18.5 -4t-19 -2.5q-17 -2 -55 -2q-14 0 -28 2q-22 4 -46 19
q-49 33 -13 125q30 75 125 47q9 0 23.5 -2t22.5 -1.5t13 5.5q3 2 8 6t6.5 6t4 7t3.5 13q6 36 10 62q2 23 6 41q0 5 2 19t6 43l8 58q13 97 27 191q8 68 39 299q-48 -49 -80 -100q-5 -6 -15 -37q-11 -30 -27 -47q-16 -16 -40 -8q-55 15 -78 44.5t-13 61.5q18 59 52 82l14 15
q71 57 211 178q12 103 51 375q12 97 33 224t30 190q9 62 7 81q-13 101 45 135q59 35 126 14q68 -23 75 -61z" />
    <glyph glyph-name="lslash" unicode="&#x142;" horiz-adv-x="731" 
d="M623 1659q6 -32 -29 -105q-17 -32 -23 -51q-9 -21 -41 -155q-53 -226 -102 -506q49 44 82 76q2 2 16.5 21.5t23.5 28.5q30 30 79 19q66 -17 90 -70q24 -56 -55 -81q-15 -5 -60 -35q-116 -66 -205 -142q-61 -422 -67 -745q0 -16 8 -82q8 -62 3 -105q-4 -43 -34 -69
q-38 -34 -84 -38t-69 20q-51 27 -36 112q3 20 12 66t15 84q17 100 43 311q23 161 37 272q-19 -23 -39 -51q-4 -6 -15 -36q-9 -28 -25 -47q-15 -17 -39 -9q-55 15 -79 45t-13 61q22 61 51 84q10 6 16 13q9 9 72 61q21 18 54 45t44 37q0 2 10.5 81.5t18.5 135.5q21 165 22 170
q11 83 35 224q21 136 30 191q9 62 7 81q-13 101 45 135q59 35 126 14q68 -23 75 -61z" />
    <glyph glyph-name="OE" unicode="&#x152;" horiz-adv-x="3536" 
d="M362 1150q290 220 660 220q369 0 598 -220t184 -532q-47 -311 -338 -532q-293 -221 -661 -221q-235 0 -423 96q-187 96 -282 260q-109 184 -75 397q45 312 337 532zM1561 618q49 141 5 260q-43 115 -145 196q-100 78 -239 116q-137 37 -275 22q-266 -29 -467 -198
q-202 -169 -235 -396q-38 -248 145 -424q182 -176 477 -176q259 0 474 139q216 139 292 347q10 30 -14 65q-24 33 -18 49zM702 1653q20 24 50 28q57 13 79 0q41 -23 50 -106q5 -77 -39 -102q-40 -25 -87 9q-46 34 -61 84q-15 49 8 87zM1092 1481q-26 0 -52 18q-86 61 -4 143
q50 50 94 37q40 -13 54 -55q14 -47 -16 -95q-32 -48 -76 -48zM2591 1501q-60 3 -82 -4.5t-5.5 -26.5t70.5 -49q116 -64 187 -113q12 -8 98 -69q69 -48 92 -63q15 -9 41 -21q33 -17 39 -22q25 -22 23 -75q-1 -52 -53 -96q-52 -43 -122 -30q-7 0 -26 11q-22 12 -27 13
q-223 31 -431 -66q-209 -98 -306 -284q-70 -149 -55 -290.5t115 -257.5q101 -118 261 -173q230 -78 473 2q242 80 365 273q33 50 36 112q3 63 -7 105q-24 104 78 137q92 27 131 -43q55 -131 -43 -321q-146 -275 -469 -396t-639 -14q-186 62 -309 189t-162 292
q-55 218 59 441q106 205 322 328q215 122 462 128q-377 260 -487 266q-50 6 -61 55q-7 27 34 68q20 21 56 64q28 35 45 52q38 40 90 40q481 -7 1028 -47q33 -3 121 9q22 3 49 3q26 0 36 -9t20 -35q9 -25 -3 -68q-7 -50 -57 -87q-49 -37 -100 -36q-30 0 -74 28q-45 27 -92 33
q-148 16 -230 22q-57 4 -256 14q-52 3 -130 6.5t-105 4.5z" />
    <glyph glyph-name="oe" unicode="&#x153;" horiz-adv-x="1116" 
d="M1092 797q14 -29 -12 -85q-27 -58 -60 -59q-81 -7 -249 -92t-214 -149q-12 -45 -16 -54q0 -31 2 -53q7 -90 47 -140t84 -46q43 4 88.5 42.5t77.5 102.5q34 69 41 97q8 30 -2 57q-11 29 -15 49q-13 68 17 88q20 14 61 12q11 0 25 -2q69 -8 95 -49.5t10 -104.5
q-24 -99 -81 -188q-156 -233 -327 -213q-152 18 -224 125q-6 -6 -6 -10q-66 -92 -167 -110q-101 -20 -190 39q-90 58 -124 167q-45 145 -12 359q26 170 129 338q103 166 229 180q78 6 156 -36q78 -43 118 -118q125 152 248 143q40 -1 76 -16v31q-1 11 -3 31.5t-3.5 34.5
t-1.5 22q-4 60 74 98q77 37 114 2q26 -23 6 -76q-33 -96 -29 -216q3 -122 38 -201zM209 160q73 0 132 140q56 135 83 283q25 138 20 203q-10 112 -63 144q-52 31 -125 -43q-112 -117 -156 -332q-34 -139 -9 -267q26 -128 118 -128zM920 852q-3 61 -18 89q-16 30 -77 -13
q-49 -33 -77 -74q-42 -52 -93 -139q-41 -78 -37 -82q6 -2 15 2q6 4 59 27q68 30 102 47q51 25 80 45q36 23 43 38t3 60z" />
    <glyph glyph-name="Scaron" unicode="&#x160;" horiz-adv-x="1910" 
d="M844 1509q-42 2 -65.5 -0.5t-29.5 -9t2.5 -17.5t26 -23.5t45.5 -28.5q43 -26 224 -152q42 -28 102 -70q14 -10 110 -78q55 -40 103 -78q67 -53 103 -88q41 -43 84 -91q52 -58 76 -105q66 -123 73 -238q12 -199 -99 -385q-163 -281 -495 -402q-331 -120 -639 -13
q-181 63 -297 194q-116 130 -141 297q-23 141 20 283q46 153 160 267q111 111 282 214q72 43 107 58q38 16 86 10q47 -6 88 -47q9 -11 17 -30t12 -43.5t-9 -46.5t-45 -32q-26 -9 -115 -22q-88 -14 -160 -43q-73 -31 -134 -103q-120 -141 -133 -305q-15 -167 79 -304
q93 -138 269 -200q241 -84 500 10t387 314q98 165 81 315q-7 63 -39 128.5t-77 119.5q-43 51 -106 106q-76 64 -119 95q-30 22 -127 90q-3 2 -9.5 6t-9.5 6q-465 318 -567 326q-10 0 -22 4.5t-21 14.5t-12 24t6.5 35t32.5 45q7 7 43 45q17 19 37 39q4 4 30 26q25 21 43.5 28
t54.5 9q64 0 443 7q402 7 520 -11h47v4l2 4q4 45 29 72t58 30t65.5 -6t54.5 -33t22 -53q2 -11 -6.5 -27t-27 -40t-21.5 -29l-37 -74q-68 -148 -104 -352q-2 -20 -5 -59q-3 -44 -8 -73q-7 -30 -32.5 -49t-67.5 -13q-34 4 -61 29t-35 59q-2 35 0 43t17 37q16 34 22 55
q5 10 51 170q27 61 8.5 90t-96.5 37q-167 19 -357 20q-187 1 -294 8zM1411 2052q-19 -19 -45 -43t-39 -37q-30 -32 -67 -89q-23 -32 -43 -32q-14 0 -18.5 8t-11.5 37q-2 7 -3 11q-7 30 -23 65q-14 30 -55 99q-34 61 59 94q19 8 35 -13q17 -23 21 -43q5 -26 14 -59
q12 -30 17 -32.5t22 12.5q13 13 25 32t18 27q12 20 40 42q27 21 42 15q78 -37 12 -94z" />
    <glyph glyph-name="scaron" unicode="&#x161;" horiz-adv-x="931" 
d="M162 889q-22 2 -28 30t1.5 67t24.5 81q15 39 39.5 57.5t45.5 15.5q19 -3 36 -3q60 4 67 -1q6 -6 64 1q55 6 61 4q4 -1 61 6q16 2 30.5 4t21.5 3l6 1l6 1q6 1 21.5 4t31.5 6q53 10 60 10q1 0 62 11q17 3 32.5 6t24 5t10.5 2q54 8 82 -59q28 -70 -9 -113q-26 -29 -73 -20
q-213 29 -385 4l-115 -19q116 -32 428 -176q2 -1 30 -10t39 -16q12 -8 19 -23q6 -15 20.5 -46.5t17.5 -38.5q6 -18 9 -28q7 -29 -12 -59q-17 -27 -69 -60q-56 -36 -72 -53q-80 -74 -169 -152q-148 -132 -189 -170q-77 -71 -107 -104q-2 -2 -25 -34t-45 -46l-2 -2h-2
q-13 -10 -29 -10q-61 -18 -100.5 -8t-52.5 41q-32 74 -17 104q0 4 25 119q56 312 67 406q3 20 4 52q2 49 5 66q4 27 28 49.5t62 24.5q53 5 86 -35q33 -39 6 -79q-11 -18 -53 -103q-16 -76 -20 -96q-8 -36 -19 -91q-2 -9 -5.5 -33.5t-5.5 -36.5q-14 -85 -14 -155q43 18 98 62
q55 43 99 83q40 37 122 116q81 77 105 102q29 27 60 58q15 15 26 42q9 24 -8.5 43.5t-67.5 44.5q-98 51 -229 95q-126 42 -221 53zM723 1458q-18 -18 -44 -42t-40 -38q-38 -40 -67 -88q-22 -33 -44 -33q-3 0 -5.5 0.5t-4.5 1t-4 2.5l-3 3t-2.5 4.5t-2.5 5.5t-2.5 7.5t-2 9
t-2.5 10.5t-3 12q-8 31 -23 65q-14 30 -55 99q-34 61 59 94q19 8 35 -13q15 -21 20 -42q8 -38 15 -60q12 -30 17 -32.5t22 12.5q13 13 25 32t18 27q12 20 40 42q27 23 42 15q78 -37 12 -94z" />
    <glyph glyph-name="Ydieresis" unicode="&#x178;" horiz-adv-x="1054" 
d="M651 680q-7 -12 -51 -106q-46 -98 -69 -146q-18 -36 -70 -139q-83 -161 -144 -238q-43 -49 -153 -31q-111 16 -129 62q-27 96 -18 237q8 141 48 355q41 226 79 386q55 230 79 330q37 150 43 185q5 14 9 55q2 27 17 52q24 49 111 57q74 2 107 -36t27 -101q-8 -53 -50 -103
q-81 -94 -188 -570q-106 -472 -100 -644q4 -103 65 2q276 511 342 692q64 170 80 344q12 119 64 149q51 29 194 27q52 0 75 -29q21 -30 18 -60q-3 -32 -13 -50q-80 -163 -209 -896q-129 -734 -129 -999q0 -5 5 -37t5 -36q1 -57 -78 -97q-88 -43 -143 0q-48 37 -26 140
q43 191 159 786q47 250 80 434q25 134 25 140q-2 5 -10 -10q-2 -2 -3 -5l-8.5 -17l-18 -36t-22.5 -47zM909 1939q22 0 33 -20q1 -2 3.5 -8.5t5 -14l3.5 -10.5q18 -43 -6 -94q-25 -49 -65 -49q-24 0 -41 14q-14 11 -27 33q-23 46 12 102q12 18 38 32.5t44 14.5zM686 1939
q22 0 33 -20q1 -2 3.5 -8.5t5 -14l3.5 -10.5q18 -43 -6 -94q-25 -49 -68 -49q-22 0 -39 14q-15 10 -26 33q-22 46 12 102q12 18 38 32.5t44 14.5z" />
    <glyph glyph-name="Zcaron" unicode="&#x17d;" horiz-adv-x="1769" 
d="M1384 1503q-130 -6 -331 -5q-202 1 -332 -13q-41 -4 -51.5 -19.5t-3.5 -56.5q7 -30 14 -70l12 -53q13 -59 14 -75q1 -19 -10 -59q-12 -38 -41 -58q-25 -17 -57 -17.5t-61 19.5q-28 26 -22 106q3 37 1 53q-7 101 -22 173q-15 64 -54 149q-5 10 -18.5 27t-22 32t-4.5 27
q6 66 82 117q78 52 117 12q20 -20 20 -66v-10q1 -5 2 -15.5t2 -18.5t2 -9l1 -1q1 -2 2.5 -4t3.5 -4q3 -4 10 -3t16 2.5t23 -0.5q138 14 523 1q377 -13 439 -13q36 -4 52.5 -10.5t32.5 -27.5q14 -21 17 -27q4 -9 21 -39l23 -46q29 -56 -4 -87q-34 -33 -68 -34
q-110 -6 -711 -315q-347 -180 -485 -281q-350 -257 -305 -571q33 -219 250 -318q218 -98 495 -20q206 58 358 194q155 137 213 302t1 305q-28 68 -84.5 102t-143.5 48q-82 12 -106 22q-39 17 -29 49q9 35 31 62q20 27 41 40q111 77 191 35q33 -19 79 -59q126 -102 188 -215
q61 -115 42 -268q-35 -249 -246 -463q-213 -216 -514 -301q-243 -61 -445 -30t-341 153q-141 126 -166 309q-1 9 -5 61q-6 161 78 324q61 115 178 233q45 46 122 103q115 82 125 89q58 40 142 86q111 62 138 76q18 10 69 35.5l75 37.5q95 48 132 69q257 134 291 147
q185 83 35 82h-21zM1329 2050q-19 -19 -45 -43t-39 -37q-30 -32 -67 -89q-23 -32 -43 -32q-14 0 -18.5 8t-11.5 37q-2 7 -3 11q-7 30 -23 65q-12 25 -55 98q-34 61 59 95q19 8 35 -13q17 -23 21 -43q5 -26 14 -59q12 -29 17.5 -32t21.5 12q11 10 17.5 19t13 20.5t12.5 19.5
q12 20 40 42q29 21 42 15q78 -37 12 -94z" />
    <glyph glyph-name="zcaron" unicode="&#x17e;" horiz-adv-x="751" 
d="M774 877q-49 -19 -117 -58q-75 -43 -127 -74q-92 -56 -143 -87q-85 -53 -121 -74q-100 -58 -108 -97t43 -100q53 -76 200 -186q59 -44 86 -70q49 -46 70 68q5 33 10 110q1 18 4 43q0 92 -4 107q-13 43 30 87q45 45 93 46q45 3 57.5 -27.5t2.5 -72.5q-2 -10 -13 -50.5
t-12 -50.5q-27 -141 -57 -377q-2 -33 -31.5 -65t-79.5 -45q-68 -14 -89 -4q-25 11 -60 55q-18 23 -167 169q-27 26 -61.5 58.5t-40.5 38.5q-144 140 -149 170q-6 49 5 114q11 62 42 89q35 31 174 115q55 31 192 114q128 78 193 115q92 53 92 59l-12 2h-2q-53 -5 -241 3
q-191 6 -261 -7q-22 -4 -33 -22t-2 -29q7 -8 48 -42q39 -33 44 -40q33 -52 -41 -90q-36 -21 -72 -17t-48 36q-2 5 -27 34t-47 64.5t-23 62.5q-6 44 53 112q58 69 78 69q71 4 321 1q238 -4 316 13l19 4q22 3 46 -7q22 -9 27 -65q4 -66 -11 -129q-15 -61 -46 -73zM551 1583
q-18 -18 -44 -42t-40 -38q-30 -32 -67 -89q-23 -32 -44 -32q-3 0 -5.5 0.5t-4.5 1t-4 2.5l-3 3t-2.5 4.5t-2.5 5.5t-2.5 7.5t-2 9t-2.5 10.5t-3 12q-8 29 -23 65q-14 30 -55 99q-34 61 59 94q19 8 35 -13q15 -21 20 -43q7 -35 15 -59q12 -30 17 -32.5t22 12.5q13 13 25 32
t18 27q12 20 40 42q27 21 42 15q78 -37 12 -94z" />
    <glyph glyph-name="florin" unicode="&#x192;" horiz-adv-x="1327" 
d="M375 -272q-2 24 -21 67q-96 302 -268 484q-6 7 -32 23q-27 16 -39 36q-13 18 -1 41q28 49 62 66t62 1q48 -29 69 -69l2 -4q1 -2 8 -15q112 -216 203 -376q4 28 15 119q3 25 6.5 49.5t6 44t3.5 26.5q17 155 51 404q-2 0 -45 -10q-24 -7 -54 -13q-6 -2 -20 -8.5t-33.5 -16
t-28.5 -13.5q-19 -10 -44.5 -8t-38.5 19q-80 115 -4 159q58 34 131 40q43 0 141 2q4 30 18 47l4 8q4 29 39 252q12 101 33 225q21 127 30 190q9 62 7 81q-13 101 45 135q59 35 126 14q66 -23 75 -61q7 -35 -27 -105q-21 -44 -25 -51q-10 -24 -40 -155q-2 -11 -10.5 -47.5
t-14.5 -61.5q272 545 289 588q63 143 170 84q57 -34 76.5 -68.5t7.5 -89.5q-110 -569 -105 -680q1 -72 -76 -94q-76 -23 -120 21q-43 43 6 125q11 18 33 88q61 169 90 317q12 70 -4 70q-7 -1 -21 -17q-24 -31 -55 -84q-278 -483 -328 -663q0 -2 -3.5 -12.5t-8 -25
t-6.5 -22.5q241 12 297 25q72 18 114 -59q37 -70 4 -119q-33 -47 -120 -17q-22 7 -58 12q-34 3 -37 3q-191 23 -258 18q-55 -415 -61 -725q0 -16 8 -82q8 -62 3 -105q-4 -43 -34 -69q-38 -34 -84 -38t-69 20q-38 27 -39 63q0 1 -1 7.5t-1 9.5z" />
    <glyph glyph-name="circumflex" unicode="&#x2c6;" horiz-adv-x="362" 
d="M35 1495q63 59 84 80q22 22 50 62.5t33 45.5q11 11 28 11q4 0 6.5 -0.5t5 -1.5t4 -2t3 -4l2.5 -5t2.5 -7t2.5 -8.5t3 -11.5t3 -13q7 -31 23 -66q0 -1 6 -11.5t20.5 -36.5t28.5 -52q34 -55 -59 -95q-17 -6 -34.5 13.5t-21.5 44.5q-6 39 -14 57q-12 30 -16.5 32.5
t-22.5 -11.5q-13 -13 -41 -60q-19 -25 -43 -43q-27 -20 -41 -12q-79 35 -12 94z" />
    <glyph glyph-name="caron" unicode="&#x2c7;" horiz-adv-x="364" 
d="M324 1583q-18 -18 -44 -42t-40 -38q-33 -36 -68 -89q-21 -32 -43 -32q-14 0 -18.5 8t-11.5 37q-2 7 -3 11q-6 27 -22 65q-10 21 -56 99q-34 61 60 94q19 8 35 -13q15 -21 20 -43q5 -26 14 -59q12 -29 17.5 -32t21.5 12q11 10 17.5 19t13 20.5t12.5 19.5q12 20 40 42
q29 21 42 15q79 -37 13 -94z" />
    <glyph glyph-name="breve" unicode="&#x2d8;" horiz-adv-x="368" 
d="M330 1569q-45 -41 -72 -68q-34 -38 -50 -48q-14 -9 -44 -7q-30 0 -48 23q0 1 -4 6t-9 11.5t-11 14.5q-19 30 -72 86q-43 49 43 82q27 7 48 -45q14 -35 43 -61q28 -27 41 -11q24 14 43 50q18 33 34 49q20 20 41 12q36 -12 41.5 -37.5t-24.5 -56.5z" />
    <glyph glyph-name="dotaccent" unicode="&#x2d9;" horiz-adv-x="204" 
d="M150 1499q-23 -13 -58 -8q-54 6 -71 47t4 80q34 69 67 70q56 2 84 -37q29 -39 21 -86q-7 -48 -47 -66z" />
    <glyph glyph-name="ring" unicode="&#x2da;" horiz-adv-x="385" 
d="M16 1569q17 75 103 106q59 20 126 4q67 -17 99 -57q37 -56 21.5 -107t-72.5 -85q-85 -55 -194 -10t-83 149zM186 1614q-33 4 -62 -14q-31 -20 -32 -46q-5 -23 21 -47q25 -25 57 -26q94 -4 102 61q4 21 -7 34t-27 5q-8 -5 -26 15q-18 18 -26 18z" />
    <glyph glyph-name="ogonek" unicode="&#x2db;" horiz-adv-x="452" 
d="M301 -109q-88 -26 -154 -110q79 -4 189 2q2 0 19 4t24 5q30 2 49 -25q29 -36 16 -77q-14 -42 -65 -18q-100 45 -262 6q-5 -2 -19 -9.5t-24.5 -12t-22.5 -3t-18 12.5q-59 92 4 146l8 8l6 5q6 5 20.5 16.5t29.5 23.5q58 48 94 84q1 1 10.5 14.5t13.5 18.5q17 21 53 14
q44 -12 64 -51q18 -37 -35 -54z" />
    <glyph glyph-name="tilde" unicode="&#x2dc;" horiz-adv-x="401" 
d="M84 1679q120 -37 137 -37q39 -2 90 15q4 4 18 13q15 10 21 9q33 -2 38 -43q5 -42 -17 -59q-6 -6 -52 -12q-68 -18 -98 -17q-19 0 -73 16q-56 15 -80 9q-51 -12 -56 35q-6 45 31 67q18 10 41 4z" />
    <glyph glyph-name="hungarumlaut" unicode="&#x2dd;" horiz-adv-x="434" 
d="M31 1462q0 1 2 11.5t5 28.5l5 30q11 67 33 103q15 25 28.5 37.5t35 13t48.5 -18.5q20 -17 14 -58q-7 -42 -28 -46q-7 -2 -15 -9t-22.5 -26.5t-22 -30t-28.5 -41.5q-27 -41 -49 -63q-20 -18 -19 10q1 6 2 16q1 3 5 18t6 25zM248 1462q0 1 2 11.5t5 28.5l5 30q11 64 33 103
q15 25 28.5 37.5t35 13t49.5 -18.5q20 -17 13 -58q-7 -42 -28 -46q-7 -2 -15 -9t-22.5 -26.5t-22 -30t-28.5 -41.5q-27 -41 -49 -63q-19 -17 -18 7q0 8 2 19q2 7 5.5 22t4.5 21z" />
    <glyph glyph-name="endash" unicode="&#x2013;" horiz-adv-x="892" 
d="M786 487q-13 6 -67 15q-304 59 -555 -4q-6 -2 -29 -14t-31 -16q-43 -18 -61 11q-58 101 -1 140q46 30 95 30h19q398 -8 569 2q2 0 13 2.5t26 6t24 4.5q16 2 37 -8t35 -29q39 -51 21 -113q-19 -61 -95 -27z" />
    <glyph glyph-name="emdash" unicode="&#x2014;" horiz-adv-x="1060" 
d="M940 489q-13 6 -68 15q-140 28 -363 27q-223 -3 -345 -33q-6 -2 -29 -14t-31 -16q-43 -18 -61 11q-58 101 -1 140q46 30 95 30h19q78 -2 342 -2q282 0 381 6q2 0 13 2.5t26 6t23 4.5q16 2 37.5 -8t35.5 -29q39 -51 21 -113q-19 -61 -95 -27z" />
    <glyph glyph-name="quoteleft" unicode="&#x2018;" horiz-adv-x="217" 
d="M111 1671q-19 -55 -21 -84l-2 -24q2 0 8 10q18 33 33 29q52 -12 68 -48t-9 -75q-2 -5 -12 -39q-12 -38 -20 -50q-10 -16 -27 -16q-9 0 -35.5 -4.5t-33.5 -4.5q-32 -2 -44 24q-7 19 -2 92q0 8 0.5 16.5t1 13t0.5 5.5q0 32 20 87q20 54 40 76q19 25 35 13q6 -8 0 -21z" />
    <glyph glyph-name="quoteright" unicode="&#x2019;" horiz-adv-x="225" 
d="M109 1378q20 57 20 84l2 25q-2 0 -8 -10q-18 -33 -33 -29q-52 12 -68 48t9 75q1 5 12 39q11 35 21 50q11 15 26 15q9 0 37.5 5t32.5 5q31 4 43 -24q7 -19 2 -92q0 -9 -0.5 -17.5t-1 -12.5t-0.5 -5q0 -34 -19 -87q-19 -54 -41 -77q-20 -26 -34 -12q-6 6 0 20z" />
    <glyph glyph-name="quotesinglbase" unicode="&#x201a;" horiz-adv-x="217" 
d="M104 -61q20 55 21 84l2 24q-2 0 -8 -10q-18 -33 -33 -29q-52 12 -68 48t9 75q1 5 12 39t21 51q11 15 26 15q9 0 36 4.5t34 4.5q33 2 43 -24q7 -19 2 -92q0 -9 -0.5 -17.5t-1 -12.5t-0.5 -5q0 -34 -19 -87q-19 -54 -41 -77q-20 -26 -35 -12q-6 8 0 21z" />
    <glyph glyph-name="quotedblleft" unicode="&#x201c;" horiz-adv-x="415" 
d="M315 1671q-20 -57 -20 -84l-2 -24q2 0 8 10q18 33 33 29q52 -12 68 -48t-9 -75q-1 -5 -12 -39q-12 -38 -20 -50q-10 -16 -27 -16q-9 0 -36 -4.5t-34 -4.5q-33 -2 -43 24q-7 19 -2 92q0 8 0.5 16.5t1 13t0.5 5.5q0 32 20 87q20 54 40 76q20 26 34 13q6 -8 0 -21zM106 1671
q-20 -57 -20 -84l-2 -24q2 0 8 10q18 33 33 29q52 -12 68 -48t-9 -75q-2 -5 -12 -39q-12 -38 -20 -50q-10 -16 -27 -16q-9 0 -35.5 -4.5t-33.5 -4.5q-34 -2 -44 24q-7 19 -2 92q0 8 0.5 16.5t1 13t0.5 5.5q0 32 20 87q20 54 40 76q20 26 34 13q6 -8 0 -21z" />
    <glyph glyph-name="quotedblright" unicode="&#x201d;" horiz-adv-x="434" 
d="M104 1378q20 56 21 84l2 25q-2 0 -8 -10q-18 -33 -33 -29q-52 12 -68 48t9 75q1 5 12 39q11 35 21 50t26 15q9 0 37.5 5t32.5 5q31 4 43 -24q7 -19 2 -92q0 -9 -0.5 -17.5t-1 -12.5t-0.5 -5q0 -34 -19 -87q-19 -54 -41 -77q-20 -26 -35 -12q-6 6 0 20zM313 1378
q19 56 21 84l2 25q-2 0 -8 -10q-18 -33 -33 -29q-52 12 -68 48t9 75q2 5 12 39q11 35 21 50q11 15 26 15q9 0 37.5 5t32.5 5q30 4 43 -24q7 -19 2 -92q0 -9 -0.5 -17.5t-1 -12.5t-0.5 -5q0 -34 -19 -87q-19 -54 -41 -77q-20 -26 -35 -12q-6 6 0 20z" />
    <glyph glyph-name="quotedblbase" unicode="&#x201e;" horiz-adv-x="432" 
d="M104 -61q20 55 21 84l2 24q-2 0 -8 -10q-18 -33 -33 -29q-52 12 -68 48t9 75q1 5 12 39t21 51q11 15 26 15q9 0 36 4.5t34 4.5q33 2 43 -24q7 -19 2 -92q0 -9 -0.5 -17.5t-1 -12.5t-0.5 -5q0 -34 -19 -87q-19 -54 -41 -77q-20 -26 -35 -12q-6 8 0 21zM313 -61
q19 57 21 84l2 24q-2 0 -8 -10q-18 -33 -33 -29q-52 12 -68 48t9 75q2 5 12 39t21 51q11 15 26 15q9 0 36 4.5t34 4.5q31 2 43 -24q7 -19 2 -92q0 -9 -0.5 -17.5t-1 -12.5t-0.5 -5q0 -34 -19 -87q-19 -54 -41 -77q-20 -26 -35 -12q-6 8 0 21z" />
    <glyph glyph-name="dagger" unicode="&#x2020;" horiz-adv-x="903" 
d="M561 1511q-8 -25 -26 -125q177 5 190 7q6 0 35 7q30 7 57 1q25 -6 43 -33q23 -33 26 -76t-20.5 -64.5t-79.5 1.5q-18 8 -40 11q-26 3 -27 3q-96 17 -207 25q-53 -304 -95 -696q-39 -365 -44 -650q0 -13 6 -80t0 -109q-6 -41 -29 -67q-30 -34 -65.5 -38t-55.5 20
q-36 25 -28 111q1 10 10 67q7 46 12 84q1 8 35 311q48 470 90 862q7 68 23 185q-116 -6 -205 -31q-6 -2 -30.5 -14.5t-31.5 -15.5q-43 -18 -61 14q-56 103 0 139q50 31 96 31h19q62 -3 227 -5q20 170 18 193q-10 87 58 143q57 45 98 9q55 -52 2 -220z" />
    <glyph glyph-name="daggerdbl" unicode="&#x2021;" horiz-adv-x="886" 
d="M616 1513q-8 -27 -30 -155q-24 -106 -43 -248q96 0 180 4q4 0 28.5 5.5t34.5 6.5q16 2 37.5 -7.5t34.5 -28.5q23 -34 26 -76q3 -43 -20 -64q-24 -23 -80 0q-13 6 -67 15q-96 18 -193 24q-42 -283 -65 -553q208 0 264 4q4 0 28 5.5t35 7.5q17 3 38 -7t34 -30
q23 -34 26 -76q3 -43 -20 -64q-24 -23 -80 0q-13 6 -67 15q-127 27 -268 26q-18 -252 -21 -393q0 -12 6 -80q6 -67 0 -109t-28 -67q-30 -34 -66 -38t-53 20q-31 28 -31 68q0 21 2 43q0 2 10 67q2 11 6.5 41t6.5 43q8 52 32 311q1 8 5.5 45.5t5.5 44.5q-72 -6 -160 -26
q-6 -2 -30.5 -14.5t-31.5 -15.5q-15 -8 -33.5 -5t-27.5 18q-59 102 -1 139q47 29 97 29h19q33 0 74 -1t106 -1q26 244 57 555q-126 -5 -229 -30q-6 -2 -30.5 -14.5t-31.5 -15.5q-43 -18 -61 11q-58 101 -1 140q46 30 97 30h19q43 0 101 -1t149 -1q10 86 27 211
q15 108 22 183q6 58 4 77q-7 88 59 143q57 45 96 9q55 -49 2 -220z" />
    <glyph glyph-name="bullet" unicode="&#x2022;" horiz-adv-x="415" 
d="M143 483q-17 10 -34 27q-52 52 -54 154q0 62 41 129q40 64 107 75q85 12 135 -27q48 -40 56 -103q7 -63 -5 -126t-37 -100q-28 -36 -92 -47t-117 18z" />
    <glyph glyph-name="ellipsis" unicode="&#x2026;" horiz-adv-x="657" 
d="M150 14q-23 -13 -58 -8q-54 6 -71 47t4 80q34 69 67 70q56 2 84 -37q29 -39 21 -86q-7 -48 -47 -66zM369 14q-23 -13 -58 -8q-54 6 -71 47t4 80q34 69 67 70q56 2 84 -37q29 -39 21 -86q-7 -48 -47 -66zM588 14q-23 -13 -58 -8q-54 6 -71 47t4 80q34 69 67 70
q56 2 84 -37q29 -39 21 -86q-7 -48 -47 -66z" />
    <glyph glyph-name="guilsinglleft" unicode="&#x2039;" horiz-adv-x="903" 
d="M737 827q-29 0 -65 -18q-223 -63 -400 -186q360 -98 494 -125q10 0 27.5 -1t35 -2.5t35 -15t27.5 -39.5q23 -63 -9 -116q-32 -54 -98 0q-11 11 -61 30q-289 137 -537 133q-11 0 -25.5 -2.5t-29.5 -6.5t-21 -5q-38 -6 -71 43q-31 31 -22 80q7 49 71 78l16 8
q296 142 504 262q4 2 23 18t27 21q15 11 36 13t45 -11q26 -11 46 -37t25.5 -52.5t-13 -47t-60.5 -21.5z" />
    <glyph glyph-name="guilsinglright" unicode="&#x203a;" horiz-adv-x="911" 
d="M176 438q24 0 66 19q224 63 399 186q-360 98 -494 125q-10 0 -27.5 1t-34.5 2.5t-34.5 15t-27.5 38.5q-23 63 9 117q31 52 97 0q11 -10 61 -31q289 -137 537 -133q11 0 26 3t30.5 7t20.5 5q36 6 70 -43q30 -30 23 -80t-72 -78l-16 -8q-296 -142 -504 -262q-4 -2 -23 -18
t-26 -21q-15 -11 -36.5 -14t-45.5 12q-26 11 -46 37t-25.5 52.5t13 47t60.5 20.5z" />
    <glyph glyph-name="fraction" unicode="&#x2044;" horiz-adv-x="794" 
d="M729 1454q-25 -47 -61 -139q-130 -302 -253 -667q-129 -383 -194 -660q-4 -14 -10 -80q-6 -65 -19 -103q-13 -40 -40 -59q-40 -22 -72.5 -16.5t-48.5 32.5q-26 39 -18 76q4 24 12 41q9 25 24 61q6 17 16.5 44t12.5 32q27 75 69 205q215 655 291 883q50 146 72 208
q15 43 35.5 101t26.5 74q21 62 22 78q8 86 82 118q66 29 98 -18q43 -64 -45 -211z" />
    <glyph glyph-name="Euro" unicode="&#x20ac;" horiz-adv-x="1021" 
d="M365 1378q256 312 466 326q105 4 148 -64q33 -57 -18 -100q-19 -18 -54 -27q-6 0 -8 -2q-76 -7 -205 -86q-127 -79 -184 -145q-46 -52 -92 -121q-50 -78 -84 -162q249 -4 383 4q4 0 28 5.5t35 7.5q16 2 37 -8t35 -29q23 -33 26 -76t-20.5 -64.5t-79.5 1.5q-15 7 -67 14
q-214 43 -418 20q-43 -162 -31 -327q288 -4 455 4q4 0 28.5 5.5t34.5 6.5q16 2 37.5 -7.5t34.5 -29.5q23 -33 26 -76t-20.5 -64.5t-79.5 1.5q-15 7 -67 14q-216 43 -430 19q41 -183 153 -316q219 -258 500 -211q154 25 162 -36q6 -49 -82 -103q-147 -89 -338 -45
q-202 45 -369 242q-100 118 -153 272q-26 68 -43 152q-55 -28 -76 6q-39 53 -30 89q9 35 32 52q24 16 55 23q-6 145 21 282q-57 -29 -78 4q-58 101 -1 140q45 30 95 30h29q70 206 207 379z" />
    <glyph glyph-name="minus" unicode="&#x2212;" horiz-adv-x="901" 
d="M786 487q-13 6 -67 15q-304 59 -555 -4q-6 -2 -29 -14t-31 -16q-43 -18 -61 11q-58 101 -1 140q46 30 95 30h19q398 -8 569 2q2 0 13 2.5t26 6t24 4.5q16 2 37 -8t35 -29q39 -51 21 -113q-19 -61 -95 -27z" />
    <glyph glyph-name="uniE000" unicode="&#xe000;" horiz-adv-x="0" 
 />
    <glyph glyph-name="uniE001" unicode="&#xe001;" horiz-adv-x="675" 
 />
    <glyph glyph-name="uniE002" unicode="&#xe002;" horiz-adv-x="1404" 
d="M1024 1227q-115 -209 -260 -504l-29 -60h2h7.5h11t16 0.5t19.5 0.5q75 9 137 14q2 0 18 2q50 6 61 14q8 7 13 47q1 11 2.5 28.5t1.5 21.5q6 43 32 196q31 194 34 213q26 170 22 173t-16 -15q-8 -11 -72 -131zM633 449q-161 -341 -260 -570q-54 -125 -88 -258
q-22 -88 -74 -115q-85 -43 -148 13q-105 85 9 222q13 17 33 40.5t34 40t17 24.5q47 92 137 289q83 182 137 291l23 51q-2 2 -17 0q-29 -4 -43 5.5t-12 31.5q6 50 61 90q18 14 39 21q51 13 72 53q429 867 469 967q35 93 123 106q89 14 160 -19q71 -35 77 -65q6 -35 -28 -102
q-18 -35 -23 -54q-78 -239 -147 -725q-13 -56 -13 -59q0 -23 23 -39q43 -32 41 -74q-5 -80 -55 -96l-4 -2q-4 -1 -7 -2q-24 -6 -26 -14q0 -1 -2 -15q0 -12 -2 -34q-19 -168 -25 -230q-13 -124 -20 -231q-2 -23 12 -79q14 -58 10 -102q-4 -45 -45 -75q-92 -57 -158 -4
q-41 32 -34 89q1 16 11 58q10 43 11 53q15 85 40 272q27 198 34 244q10 56 10 58q0 8 -7 10t-28 2q-167 -5 -241 -10h-11q-40 -5 -47 -17q0 -1 -1.5 -3t-3.5 -6t-3 -7q-2 -5 -5.5 -13.5t-4.5 -10.5z" />
    <glyph glyph-name="uniE003" unicode="&#xe003;" horiz-adv-x="1779" 
d="M1352 1509q-58 -3 -190 -7q-145 -4 -279 -11q88 -45 4 -145q-35 -50 -45 -82q-57 -113 -49 -118t118 54q71 36 212 115q153 85 216 115q179 83 46 81h-3q-8 0 -30 -2zM748 1485q-176 -11 -265 -23q-51 -6 -102 -34q-53 -29 -84 -29q-51 -2 -87 37t-28 90q16 98 65 115
q33 11 113 2q40 -5 72 -3q280 20 856 22q167 1 311 1q36 -3 52 -9.5t34 -28.5q9 -11 19 -26q0 -1 7.5 -14.5t14.5 -24.5q13 -26 23 -44q33 -55 1 -88q-32 -34 -69 -35q-113 -8 -577 -269q245 -7 419 -133q172 -124 210 -329q49 -279 -164 -551q-213 -273 -563 -381
q-236 -72 -471 -21q-157 35 -269.5 122.5t-163.5 209.5q-52 119 -43.5 267.5t78.5 293.5l19 57q18 57 43 82q59 59 128 18q68 -42 44 -126q-6 -23 -48 -66t-55 -71q-70 -147 -45 -295q39 -217 261 -313q221 -95 495 -11q313 95 475 344q127 195 94 383q-39 216 -260 314
q-220 96 -495 12q-77 -22 -90 -35q-13 -12 -27 -84q-23 -107 -35 -209q0 -60 -1 -87q-1 -23 -13 -43.5t-33 -29.5q-131 -37 -156 55q-22 77 2 138q67 189 135 373q-1 0 2 10t8 22.5t9 18.5q105 305 113 358q1 42 41 68z" />
    <glyph glyph-name="uniE004" unicode="&#xe004;" horiz-adv-x="1413" 
d="M1108 1690l4 43q22 57 89 78q65 20 119 6q27 -7 39.5 -17.5t10.5 -23.5q-5 -32 -37 -100q-33 -72 -63 -147q-30 -71 -50 -197q-20 -124 1 -253q8 -51 -65 -88t-107 -24q-29 8 -41 34q-30 70 -15 186q23 173 23 178q2 37 -11 62t-43 24q-34 -2 -92 -19q-114 -44 -224 -163
q-112 -121 -194 -273q-85 -160 -133 -329q-111 -382 -5 -603q57 -121 175 -166q125 -47 263 13q136 60 210 197q71 136 19 281q-24 66 -11 120t58 77q152 66 186 -97q25 -106 -12 -232q-38 -127 -119 -232q-81 -107 -193 -191t-236 -106.5t-248 20.5q-167 67 -259 204
q-93 138 -103 303q-22 327 120 658q65 151 151 288q121 196 244 300q79 68 156 100.5t165 29.5q92 -3 181 -52q17 -10 31 29q11 37 16 82z" />
    <glyph glyph-name="uniE005" unicode="&#xe005;" horiz-adv-x="1253" 
d="M365 -82q148 0 275 70.5t209 193.5q165 246 185 578q14 268 -71 486q-85 220 -258 300q-35 15 -55.5 21t-38 3.5t-28.5 -17.5q-17 -22 -24 -40q-5 -13 -16 -71q-8 -38 -17 -78q-81 -318 -136 -712q-56 -406 -62 -693q-2 -33 2 -37t35 -4zM354 -250q-25 0 -27 -10
q-3 -17 -22 -33q-38 -32 -84 -36t-69 18q-41 33 -48 73q-8 43 11 119q0 2 13.5 29t14.5 37q4 10 7 30q5 30 19 144q1 7 13 100q26 192 119 875q15 105 34 218q21 132 27 171q7 43 7.5 47.5t-2.5 22.5q-5 12 -31 -11q-6 -5 -18 -16q-8 -8 -13 -12q-62 -62 -78 -175
q-3 -41 22 -105q11 -25 17 -50q7 -25 -18 -50q-28 -27 -53 -28q-68 -4 -125 53q-35 35 -41 99q-6 63 6 118t33 101q92 204 315 250q229 49 453 -87q265 -161 356 -485q51 -183 37 -403q-29 -398 -245 -688q-106 -144 -271 -230q-164 -86 -359 -86z" />
    <glyph glyph-name="uniE006" unicode="&#xe006;" horiz-adv-x="1523" 
d="M453 1520q-41 -1 -64 -5t-28.5 -11t3.5 -17t27 -21.5t47 -25.5q175 -88 393 -230q12 -8 46 -24t46 -24q18 -15 35 -40q38 -37 22 -85t-99 -60q-29 -6 -55 -17q-34 -14 -35 -14q-13 -4 -60 -21q-13 -5 -26.5 -10.5t-21.5 -8.5t-11 -4q-4 -2 -20.5 -8t-28.5 -11
q-9 -4 -21 -8.5t-18.5 -7.5t-10.5 -4q-17 -6 -43 -18q-23 -10 -49 -24.5t-36 -19.5q-37 -19 -87 -53q-78 -56 -84 -66q-4 -13 35 -45q26 -18 39 -29q246 -197 543 -424q92 -72 104 -71q13 0 15 69q0 49 2 103q23 453 10 522q-8 50 31 84q39 35 90 39q60 9 83 -23.5
t-1 -113.5q-53 -116 -63 -371q-11 -260 14 -379q0 -1 1 -8t1 -10q1 -7 6 -22t12.5 -35t10.5 -30q8 -19 4 -44.5t-23 -38.5q-4 -2 -26.5 -19t-32.5 -24q-6 -3 -17 -9.5t-16 -9.5q-39 -20 -58 -14q-32 11 -72 74q-24 36 -32 47q-24 30 -111 110q-133 133 -221 211
q-149 133 -422 297q-4 3 -70 26q-65 21 -75 40q-27 38 -26 98q2 62 32 94q3 3 39 16q38 14 81 30q50 19 56 22q278 140 383 196q62 33 64 50q0 16 -68 69q-146 93 -289 160q-146 67 -223 70q-21 0 -38 12t-22 38q-6 27 33 70q23 24 55 66q28 39 44 56q36 42 90 42
q459 10 940 -2q37 0 127 15q18 34 60 41q43 8 75 -7q33 -12 47 -31.5t5 -49t-46 -64.5q-82 -65 -121 -130q-41 -69 -78 -173q-1 -7 -6 -47t-16 -63q-11 -24 -39 -29q-52 -8 -80 4q-39 12 -44 53q-4 40 6 75q10 33 26 56q1 2 16.5 25.5t38 59t37.5 60.5q-66 35 -109 39
q-256 17 -402 13q-100 -2 -230 2z" />
    <glyph glyph-name="uniE007" unicode="&#xe007;" horiz-adv-x="1601" 
d="M850 1667q5 -32 -10 -66q-33 -71 -35 -77q35 16 74 37q18 9 46 23.5t38 19.5q11 5 78.5 38.5t108.5 53.5q105 51 159 78q54 26 65 36q70 63 130 37q58 -25 69 -86q10 -60 -4 -90q-20 -23 -93 -35q-48 -8 -51 -8q-24 -6 -139 -51q-268 -103 -495 -223q-41 -23 -41 -27
q2 -8 41 -6q30 0 69 -1t99 -1q45 0 89 4q50 5 66 14q43 25 83 10q40 -16 58 -51q45 -94 13 -127q-19 -22 -94 -34q-40 -8 -52 -9q-26 -6 -82 -28q-53 -23 -55 -23q-139 -54 -246 -100l-28 -12q-29 -12 -35 -20q-6 -9 -12 -46q-2 -14 -2 -16q-93 -550 -103 -959q0 -16 8 -82
q7 -62 3 -105t-33 -69q-38 -34 -84.5 -38t-69.5 20q-52 29 -35 111l5.5 27.5t8.5 39.5q9 46 15 84q0 4 2 17.5t6.5 44t8.5 58.5q9 69 26 191q20 159 40 306q28 216 36 268q8 58 4 59q-2 0 -56 -27q-72 -36 -127 -61q-11 -4 -84 -66q-75 -63 -120 -51q-44 10 -70.5 40.5
t-24.5 64.5q0 51 47 78q17 10 66 30q25 9 82 35q1 0 94.5 38t181.5 81q3 3 9 4q28 14 30 24q3 9 4 17q0 15 3 22q0 4 10 72q6 36 -3 40t-38 -17q-51 -38 -90 -27q-44 12 -70.5 42.5t-24.5 63.5q4 54 49 77q12 6 64 30q3 1 35 16q25 12 47 21q11 6 35 14t28 11q13 11 19 53
q10 90 10 100q-14 101 45 135q59 35 125 14q67 -23 74 -61zM717 1178q0 -4 -4.5 -27t-5.5 -27q22 10 70 30q60 25 71 30q59 29 -31 33h-82q-10 0 -14 -19z" />
    <glyph glyph-name="uniE008" unicode="&#xe008;" horiz-adv-x="1153" 
d="M1128 1726q6 -33 -27 -104q-18 -38 -24 -51q-8 -20 -41 -156q-70 -274 -118 -575q-1 -5 -7 -33q-4 -17 -2 -24.5t19 -22.5l8 -8q39 -41 41 -94q2 -54 -45 -74l-20 -4t-15 -2.5t-9.5 -1.5t-6 -2.5t-2.5 -3.5q-1 -4 -9 -54q-68 -554 -69 -709q0 -16 8 -82q7 -61 3 -105
q-4 -43 -34 -69q-38 -32 -84 -36.5t-69 18.5q-39 30 -39 69q0 25 3 43q3 19 12 66t15 84q50 303 107 731q14 64 11 78t-58 17q-41 2 -149 0q-109 -3 -165 -3q-4 0 -46 -3q-11 -2 -12 -8q0 -2 -2.5 -10.5t-3.5 -22.5q-2 -20 -3 -33q-24 -155 -37 -320q-12 -123 -12 -225
q0 -15 8 -74q7 -55 3 -95q-5 -41 -36 -63q-38 -29 -83 -33t-68 17q-24 16 -35 39q-14 28 -17 68q-1 63 36 181q38 121 44 185q2 7 5 28q3 23 3 27q17 112 19 123q14 98 18 127q7 66 -4 66q-18 -2 -38 33q-21 35 -11 72t66 42q9 1 13 3t6.5 7.5t3 11.5t2 21t3.5 29
q1 6 3.5 21.5t7 43t9.5 53.5q5 30 14.5 90.5t14.5 90.5q13 86 27 183q32 213 27 245q-13 90 45 121t126 12q66 -20 74 -55q7 -34 -26 -95q-17 -31 -25 -46q-22 -56 -32 -106q-7 -28 -9 -34q-22 -78 -102 -526q-8 -59 -6 -62q1 -4 67 -2q79 1 297 17q9 0 17.5 0.5t13 1
t5.5 0.5q5 0 18 7q4 2 6.5 4t3.5 3t0 2q-2 2 1 25q1 6 2 13.5t2 13.5t1 10q14 116 31 241q11 83 38 239q9 54 22 130t15 89q13 77 11 99q-13 100 45 135q60 35 126 13q66 -23 74 -62z" />
    <glyph glyph-name="uniE009" unicode="&#xe009;" horiz-adv-x="1179" 
d="M395 1612q-13 61 45 92t107 31q342 12 500 43q46 8 80 -23q35 -31 42 -78q12 -55 -18 -86q-32 -32 -102 -8q-100 33 -122 24q-23 -11 -57 -96q-9 -21 -41 -155q-82 -340 -136 -716q-56 -389 -60 -677q-3 -29 23 -33.5t54 7.5q8 3 26 10t32 12t20 6q42 12 80.5 -12.5
t51.5 -69.5q18 -52 -7 -86q-26 -35 -98 -20q-59 12 -133 6q-215 -14 -358 -113q-63 -43 -97 -12q-34 34 -45 68q-22 57 30 94q53 38 101 45q21 3 91 9q8 2 20 9q11 8 15 19.5t10 46.5q25 144 43 272q0 8 46 349q18 133 41 307.5t27 205.5t62 402q11 68 12 71q1 5 -1 22
q-1 5 -8 6.5t-18 -2.5q-1 0 -15 -4t-28 -9q-45 -13 -75 -33q-72 -33 -101 0q-33 40 -39 76z" />
    <glyph glyph-name="uniE00A" unicode="&#xe00a;" horiz-adv-x="1064" 
d="M483 -25q18 -25 31 -59q6 -15 8 -4l2 18q6 68 11 101q0 2 3 24t9.5 68t13.5 98q0 8 46 349q47 345 69 513q14 110 37 244q22 136 28 186q13 61 6 67q-7 5 -23 5q-3 0 -16.5 -1t-19.5 -1h-74q-54 -1 -74 -6q-24 -5 -79 -31q-74 -29 -104 -2q-31 27 -25 82q5 49 35 82
q31 35 77 31q231 -17 461 0q96 6 120 -45q24 -53 -13 -133q-14 -23 -39 -21q-26 2 -33 -29q-15 -37 -26 -93q-13 -55 -15 -62q-78 -323 -135 -730q-56 -405 -64 -704q0 -20 10 -81q9 -64 3 -107q-6 -42 -35 -68q-29 -25 -96 -38q-68 -14 -115 -9q-53 4 -63 98q-4 43 -9 52
q-5 15 -6 16q-137 299 -289 403q-49 36 -62 83t19 83q158 182 203 340q1 7 3 44q1 36 12 60q11 23 38 27q56 6 88 -4q35 -9 50.5 -33t12 -53.5t-10 -52t-15.5 -37.5q-86 -134 -155 -270q-13 -28 -16 -38t0 -27q4 -12 16 -31q9 -18 12 -23q31 -61 188 -281z" />
    <glyph glyph-name="uniE00B" unicode="&#xe00b;" horiz-adv-x="1089" 
d="M543 -84q12 -26 18 -41q11 -25 12 -27l2 19q5 45 15 84q106 420 129 536q7 41 23 101q11 46 18 71q13 45 20 76q4 21 0 37q-2 8 -8 9.5t-18 -3t-26.5 -12.5t-37.5 -23q-236 -150 -340 -237q-62 -52 -76 -78q-15 -28 -22 -102q-22 -208 -27 -404q0 -20 9 -82q8 -62 3 -105
q-6 -44 -34 -69q-38 -34 -84.5 -38t-69.5 20q-51 27 -36 112q4 26 13 66q9 46 15 84q17 100 43 311q22 167 61.5 464t53.5 398q11 78 35 225q24 154 29 191q9 62 7 80q-14 101 45 135q59 35 126 14q68 -23 75 -61q6 -35 -28 -104q-18 -35 -25 -52q-7 -18 -39 -155
q-40 -156 -86 -408q-4 -22 -12 -67q-10 -51 -7 -56q5 -2 33 35q2 3 6 8t11 12.5t12 14.5q6 8 8 10q351 449 442 588q12 19 36 74q25 55 53 93q25 36 65 42q48 8 87.5 -11t51.5 -53q11 -31 9 -51.5t-21 -45.5q-14 -19 -67 -76q-28 -29 -50 -56q-333 -378 -446 -518
q-44 -51 -73 -86.5t-42 -53.5t-10 -20q9 0 59 43q37 31 110 84q79 57 109 88q8 8 52 61q45 54 77 78q33 26 68 21q73 -8 122 -63q50 -56 23 -128q-12 -31 -37 -78q-27 -48 -34 -71q-94 -246 -168 -553q-73 -305 -72 -516q0 -14 5 -57q5 -39 3 -65q-1 -25 -16 -40
q-29 -38 -122 -21t-107 83q-4 11 -4 16q-50 218 -142 336q-3 3 -23.5 20.5t-28.5 25.5q-40 40 -15 66q29 48 53 64q46 37 90 2t57 -72q6 -6 60 -139z" />
    <glyph glyph-name="uniE00C" unicode="&#xe00c;" horiz-adv-x="751" 
d="M227 -51q165 156 240 248q20 20 28 30q13 16 14 23q6 27 -5 61q-8 29 -22 71t-33 96.5t-24 69.5q-19 56 -19 58q-25 70 4 126q18 37 63 38q33 6 88 -12q50 -14 34 -95q-7 -34 -7 -45q12 -162 133 -372q24 -41 2.5 -85t-76.5 -69q-172 -79 -364 -340q-1 -2 -5 -7.5
t-6 -6.5q-2 -2 -17 -49q-14 -43 -31 -65q-20 -23 -50 -19q-48 8 -76 24q-30 5 -47 19q-51 27 -36 112q4 26 13 66q9 46 15 84q10 51 45 311q53 422 115 862q10 80 35 234q16 102 26 172q2 10 -8.5 38.5t-8 64.5t31.5 79q57 90 135 80q52 -7 81 -32q15 -14 18 -62
q2 -12 -6 -38q-10 -33 -11 -36q-7 -15 -15 -37q-13 -32 -14 -35q-9 -21 -41 -155q-79 -318 -134 -711q-58 -403 -65 -696z" />
    <glyph glyph-name="uniE00D" unicode="&#xe00d;" horiz-adv-x="1540" 
d="M487 1411q6 -34 -27 -104q-19 -40 -24 -52q-46 -117 -90 -331q-43 -212 -63 -383q-16 -121 -13 -123q1 -1 2.5 0.5t4.5 5t6 8.5q2 3 7.5 13.5t17.5 32.5l24 44q2 4 18 32.5t50 88.5t72 127q124 219 179 328q33 61 123 43q73 -17 86 -60q6 -24 -14 -47q-28 -33 -48 -93
q-20 -63 -26 -102q-6 -45 -18 -139q-8 -81 -6 -79q2 0 20 20q51 62 257 407q198 329 239 427q-2 47 39 102q29 35 84 38t98 -18q43 -22 43 -49q2 -36 -24.5 -91t-28.5 -64q-61 -214 -147 -740q-87 -527 -99 -776q0 -9 23 -29q22 -18 24 -45q1 -37 -21 -98q-24 -62 -49 -84
q-59 -51 -133 6q-48 38 -49 77q-2 44 20 161q6 31 33 221q3 21 9.5 69t19 137.5t23.5 171.5q49 354 67 478q8 57 -2 57q-6 0 -18 -14q-61 -70 -175 -235q-114 -166 -192 -318q-30 -59 -40 -122q-11 -71 -11 -107q0 -43 -28.5 -71t-88.5 -32q-56 -4 -88 40q-31 43 -8 149
q1 3 2.5 23t5 61.5t8.5 82.5q6 54 19 138q9 60 -6 57q-16 -3 -62 -76q-20 -37 -45 -77q-160 -279 -217 -451q-17 -48 -19 -125q0 -20 9 -82q8 -62 3 -105q-4 -43 -34 -71q-38 -32 -84.5 -36t-69.5 18q-39 30 -39 69q0 27 4 44q4 24 12 67q9 46 15 84q4 22 43 311
q74 558 82 606q12 101 33 225q14 92 30 190q9 62 7 83q-14 101 45 135q60 35 126 13q66 -23 74 -62z" />
    <glyph glyph-name="uniE00E" unicode="&#xe00e;" horiz-adv-x="1091" 
d="M596 -166q70 258 195 864q23 104 17 107q-8 2 -101 -62q-224 -139 -340 -237q-63 -52 -78 -78q-16 -27 -23 -102q-20 -210 -26 -404q0 -16 9 -81q9 -64 3 -107q-6 -42 -35 -68q-38 -34 -83 -38t-68 20q-51 27 -36 112q3 20 12 66t15 84q4 22 43 311l47 349
q18 133 41 307.5t27 205.5q12 92 50 322q35 206 40 262q-25 11 -47 20.5t-36 14.5l-13 6q-47 17 -60 68q-14 51 9 92q12 36 33.5 51.5t54 5t73.5 -48.5q73 -75 231 -158q156 -83 306 -133q1 0 9.5 -3.5t26.5 -10.5t39 -14q74 -28 105 -35q22 -1 33 -41q27 -67 -12 -99
q-335 -268 -598 -618q-26 -34 -15 -31q9 1 56 41q129 111 192 174q14 13 51 64q39 53 71 78q35 26 73 20q75 -7 137 -65q61 -58 37 -130q-13 -33 -38 -78q-27 -48 -34 -71q-91 -239 -167 -553q-74 -307 -74 -516q0 -9 5 -56q4 -42 3 -67t-17 -39q-29 -38 -121 -21t-106 83
q-4 11 -4 16q-50 217 -141 336q-3 3 -23.5 20.5t-28.5 25.5q-15 14 -21 30.5t5 35.5q23 42 51 64q46 37 90 3q44 -35 60 -73q46 -113 96 -221zM776 1337q26 40 31 56t-4 24q-7 10 -45 31q-66 38 -174 90q-58 33 -69 32q-14 -2 -36 -59q-41 -107 -125 -563q-7 -40 -20 -121
q2 -7 16 11q12 14 100 111q18 19 128 142q66 76 110 131q65 80 88 115z" />
    <glyph glyph-name="uniE00F" unicode="&#xe00f;" horiz-adv-x="1114" 
d="M252 1698q6 -38 6 -49t-11 -57q-3 -11 -6 -25t-5 -21.5t-3 -11.5q-6 -39 -6 -160q-10 -305 19 -706q29 -402 80 -682q0 2 32 98q20 65 52 156q243 758 266 827q65 190 74 214q15 41 36.5 102.5t28.5 81.5q21 61 21 79q4 100 68 124t125 -10q62 -35 63 -73q0 -33 -46 -97
q-24 -31 -32 -46q-13 -20 -27 -50t-27 -62.5t-14 -33.5q-132 -297 -265 -695q-129 -386 -187 -679q-5 -18 -6 -82q-3 -65 -16 -105q-14 -42 -48 -63q-38 -21 -105 -40q-70 -19 -98 -7q-31 10 -43 35.5t-15 65.5q-1 13 -1 67q0 34 -2 86q0 3 -1.5 22.5t-4 51t-5.5 66.5
q-8 89 -16 202q-48 569 -67 840q-9 120 -14 226q-2 37 -5.5 102.5t-5.5 89.5q-5 67 -10 82q-35 96 14 142q49 47 120 39t87 -44z" />
    <glyph glyph-name="uniE010" unicode="&#xe010;" horiz-adv-x="1665" 
d="M854 1174q6 -34 6 -47q0 -10 -11 -56q-12 -51 -13 -59q-52 -450 51 -1026q26 80 82 254q76 233 166.5 513t101.5 314q38 114 73 214q10 30 24.5 70.5t23.5 67t16 45.5q21 62 21 80q4 100 68 124t126 -10q63 -35 64 -73q0 -31 -47 -97q-28 -37 -33 -46q-11 -20 -68 -146
q-134 -296 -264 -691t-188 -683q-5 -18 -6 -82q-3 -65 -16 -105q-14 -42 -46 -63q-38 -21 -105 -40q-70 -19 -98 -7q-24 10 -36.5 23t-17.5 36q-5 26 -6 43q-1 13 -1 67q0 35 -2 85q-6 117 -23 314q-7 78 -24 446q0 3 -1.5 43t-2.5 66q-4 78 -9 81q-2 1 -4.5 -1.5t-5.5 -9.5
q-5 -11 -28 -68q-16 -41 -39 -97q-39 -99 -56 -148q-25 -67 -44 -142q-20 -74 -30 -116q-10 -35 -33 -154q-24 -115 -36 -171q-4 -16 -7 -81q-3 -61 -17 -106q-15 -44 -50 -71q-42 -30 -126 -37q-85 -7 -122 21q-48 25 -35 112q3 20 12 66t15 84q17 100 43 311
q22 167 61.5 464t53.5 398q11 78 35 225q21 136 30 191q9 62 7 80q-14 101 44 135q60 35 126 13q67 -22 75 -62q6 -31 -28 -103q-17 -32 -23 -51q-9 -21 -41 -155q-72 -291 -126 -653q-55 -369 -68 -658q307 972 307 1010q4 94 76 134q69 40 143 29q72 -11 86 -44z" />
    <glyph glyph-name="uniE011" unicode="&#xe011;" horiz-adv-x="1378" 
d="M573 1694q21 -28 20 -106q-1 -29 -1 -56q4 -51 19 -118q2 -6 3.5 -13.5t2.5 -11.5t2 -8.5t2 -6.5q39 -203 92 -407q7 -23 14 -52q9 -39 16 -58.5t11 -18.5q8 0 37 57q18 41 30 66q45 86 80 157q44 87 106 200q73 137 90 170q29 58 33 75q20 101 87 114t124 -30
q56 -44 50 -82q-2 -20 -16 -39t-45 -50q-26 -26 -40 -42q-21 -26 -88 -131q-138 -213 -330 -584q-25 -49 -28 -57q-7 -18 -16 -33q-10 -19 -6 -34q5 -17 5 -25q0 -10 14 -47q15 -40 21 -58q82 -256 176 -475q7 -17 32 -56q21 -33 37 -63q14 -26 24 -64q10 -37 -7 -61
q-19 -45 -56.5 -66.5t-74.5 -15.5q-27 7 -41.5 16.5t-23.5 30.5q-10 22 -15 41q-5 16 -16 65q-13 60 -20 83q-10 37 -57 193q-45 142 -64 233q-7 31 -11.5 46t-11 24t-15 1.5t-20.5 -25.5t-30 -53q-254 -516 -340 -747q-6 -18 -18 -81q-14 -66 -32 -101q-20 -39 -57 -54
q-107 -44 -168 15q-56 51 -37 157q70 392 111 713q18 147 16 176q-2 52 38 81q40 30 91 28q57 2 82 -35t-12 -113q-9 -15 -31 -90q-90 -276 -108 -549l90 181q52 104 152.5 306t144.5 290q57 116 57 143q0 29 -43 152q-35 116 -38 127q-26 81 -36 114q-34 114 -62 217
q-14 48 -31.5 113t-20.5 74q-20 66 -29 77q-56 86 -15 145q40 58 107 57t94 -21z" />
    <glyph glyph-name="uniE012" unicode="&#xe012;" horiz-adv-x="839" 
d="M455 1137q-51 -163 -117 -445q-12 -58 -12 -61q4 -3 53 -2q33 0 80 4q23 0 31 5t8 18q0 2 -3 23t-3 32q-27 335 -37 426zM283 432q-84 -434 -84 -573q0 -12 10 -53q10 -42 6 -73q-5 -30 -33 -42q-129 -51 -153 34q-23 75 -6 136q0 3 4 21.5t14.5 66.5t21.5 98
q3 13 16.5 77.5t20.5 96.5q10 46 21 99t17 81t9 41q-16 10 -20 17q-40 49 -33 83q7 33 31 50q23 17 59 24q133 625 133 701q0 55 93 94q108 45 182 10q62 -33 37 -121q-8 -34 -8 -94q-17 -203 6 -491q5 -60 11 -65q7 -7 75 7q66 12 100 -49q33 -61 -6 -98q-31 -31 -100 -18
q-44 10 -54 8q-8 -2 -2 -41q18 -151 47 -244q2 -6 9 -19.5t17.5 -33t15.5 -28.5q27 -54 -7 -85q-43 -38 -80 -44.5t-59 11t-36 50.5q-24 47 -30 100q0 12 -18 299q-5 42 -8 43q-1 0 -6 -0.5t-15.5 -1t-21.5 -0.5q-65 -7 -131 -19q-28 -1 -39 -16q0 -13 -6 -39z" />
    <glyph glyph-name="uniE013" unicode="&#xe013;" horiz-adv-x="1112" 
d="M551 1667q7 -37 -26 -105q-16 -31 -25 -51q-15 -37 -26 -93q-13 -55 -15 -62q-43 -196 -45 -207q89 -4 321 -2q206 1 273 8q45 5 75 -60q29 -65 9 -132q-21 -69 -97 -70q-123 -6 -364 -133q-68 -35 -68 -37q0 -5 66 -6q276 -4 334 8q70 12 108 -59q37 -71 4 -121v-2
q-19 -34 -80 -51q-40 -15 -84 -46q-147 -79 -323 -221q-178 -143 -301 -272q-23 -25 -26 -30q-1 -1 1 -40q12 -53 11 -119q-1 -67 -35 -98q-38 -32 -84 -37q-45 -4 -68 19q-35 26 -41 60.5t10 90.5q-32 20 -40.5 50.5t7.5 60.5q28 57 68 92q1 16 14 94q13 91 17 125
q38 294 96 731q-5 4 -6 9q-90 123 31 169q13 98 31 203q5 29 14.5 90t12.5 83q9 55 7 73q-13 101 45 135q59 35 125 14q67 -23 74 -61zM709 575q-166 8 -324 -22q-53 -12 -65 -26t-17 -64q-18 -164 -27 -250q-4 -61 5 -61q5 -2 53 41q14 12 22 18q226 181 369 299
q60 50 62 57q0 7 -78 8zM375 948q-4 -43 -19 -102q-8 -49 -10 -54q-4 -12 1 -21l3 1q3 0 7.5 1t8.5 3q6 4 46 23q150 66 358 168q7 3 25 12q31 15 31 18q0 2 -9 2q-12 2 -41 5h-2h-2h-2h-4q-169 8 -332 -17q-9 -2 -21.5 -3t-18.5 -2t-8 -5q-6 -5 -11 -29z" />
    <glyph glyph-name="uniE014" unicode="&#xe014;" horiz-adv-x="780" 
d="M317 -12q-229 27 -280 233q-37 154 27 358q63 204 183 346q120 143 230 138q26 0 46 -7t29.5 -14.5t16.5 -14t11 -4t7.5 12t10.5 37.5q13 40 23 88t102 62q87 14 106 -23q14 -26 -20 -61q-10 -10 -31 -54q-53 -126 -68 -181q-16 -55 -18 -152q0 -4 11 -54q2 -15 -6 -29
t-27 -20q-115 -39 -142 23q-25 48 13 192q7 27 11 45q1 4 -2 10q-4 8 -40 -10q-120 -52 -221 -270q-101 -219 -88 -360q6 -87 44 -137t83 -46q43 4 88.5 42t75.5 100q55 112 40 153q-13 31 -17.5 48.5t-2 38.5t17.5 39q22 28 88 20q67 -8 93.5 -50.5t10.5 -102.5
q-27 -105 -81 -185q-151 -229 -324 -211z" />
    <glyph glyph-name="uniE015" unicode="&#xe015;" horiz-adv-x="882" 
d="M391 1020q-61 25 -78 5t-37 -124q-12 -71 -24 -188q-13 -127 -17 -200q-6 -81 -4 -89q6 -106 -69 -135q-62 -25 -105 24q-29 33 -24 84q1 10 12 49t12 50q43 288 56 592q6 158 -17 215q-29 83 58 114q75 29 131 -2q33 -18 30 -49l-1 -4q0 -3 -1.5 -11.5t-2.5 -16.5
q-6 -43 -7 -60q-1 -7 -2 -16.5t-1 -13v-8t1 -7.5t3 -6q4 -9 8 -9q18 0 50 -6q223 -40 372 -230q149 -191 128 -421q-12 -136 -66.5 -249.5t-138.5 -184.5q-165 -141 -360 -141q-185 0 -264 106q-39 50 -19 100q20 49 67 56q49 8 91 -23q200 -159 367 0q69 63 109 157
q39 92 44 187q11 312 -301 455z" />
    <glyph glyph-name="uniE016" unicode="&#xe016;" horiz-adv-x="792" 
d="M756 782q10 -33 -15 -87q-26 -55 -57 -56q-93 -7 -281 -108q-189 -101 -196 -162q-5 -41 0 -78q8 -88 45 -138.5t86 -46.5q43 4 88.5 42t77.5 102q34 69 41 98q8 31 -2 55q-19 57 -19 97q0 55 82 55q8 -2 23 -2q70 -9 97 -51t11 -104q-28 -107 -82 -187
q-156 -236 -327 -215q-211 27 -271 225q-46 156 9 364q56 210 176 352q120 144 243 136q40 -1 76 -16q0 12 -2 30q-1 26 -19 56q-18 29 -18 41q-4 48 76 86q86 39 131 6q31 -22 19 -76q-23 -100 -20 -220q3 -123 28 -198zM584 838q-1 38 -5 56q-5 18 -13 33q-16 30 -77 -12
q-53 -39 -77 -73q-50 -64 -93 -142q-41 -76 -37 -80q3 -4 15 3q200 90 242 116q32 22 40 39q7 13 5 60z" />
    <glyph glyph-name="uniE017" unicode="&#xe017;" horiz-adv-x="636" 
d="M512 1556q-8 -30 -8 -94q-31 -396 61 -727q4 -9 12 -25t17.5 -34.5t13.5 -25.5q10 -15 5 -40t-25 -45q-89 -68 -150 -2q-22 22 -28.5 45.5t-4.5 67.5q1 27 1 53q-5 121 -19 264q-10 99 -12 99t-19 -99q-40 -212 -75 -491q-8 -53 -5 -57q3 -5 54 -3q78 5 104 11
q57 16 87 8q28 -7 40 -68q9 -45 -12.5 -68.5t-55.5 -20.5q-38 4 -55 7q-30 13 -125 17q-45 0 -49 -3q-3 -2 -8 -49q-20 -214 -23 -354q0 -20 10 -81q9 -64 3 -107q-6 -42 -35 -68q-38 -32 -84 -37q-45 -4 -68 19q-56 31 -36 111q0 1 13 67q9 46 15 84q4 22 43 311q6 22 6 53
q0 9 4 21q5 12 2 19.5t-16 4.5q-27 -10 -39 -10q-51 -7 -67 51q-18 61 18 95q19 18 53 10q43 -10 47 -10q25 -6 25 3q0 2 1 12t1 15q2 22 37 278q41 308 43 320q6 41 34 224q25 157 30 191q10 61 8 81q-14 101 44 135q59 35 125 14q67 -23 74 -61q6 -24 -4 -47q4 -28 -8 -64
z" />
    <glyph glyph-name="uniE018" unicode="&#xe018;" horiz-adv-x="1083" 
d="M655 1001q-123 -59 -267 -207t-189 -284q-39 -115 18 -194q57 -80 159 -108q99 -28 208 -11q24 3 52.5 10.5t33.5 8.5q10 2 18 7.5t16 14t9 9.5q5 4 10 26q3 13 6 28q2 12 5 41q5 53 12 89q1 6 2 12.5t2 10t1 5.5q2 14 -9 24.5t-40 10.5q-41 6 -91 3q-30 -3 -61 -8
q-57 -9 -69 -10q-34 -4 -90 -41q-13 -9 -26 -13t-25.5 -1t-17.5 16q-62 108 7 154q54 35 109 35q14 0 79 -4q51 -3 150 -7q63 -4 157 -2q78 1 114 13q70 22 94 -47q22 -63 -12 -105q-13 -16 -37 -18q-16 -2 -29 -0.5t-15 2t-8 -3.5q-3 -5 -20 -58q-60 -185 -77 -293
q-16 -104 -9 -270q0 -6 14 -51q13 -42 10 -73q-3 -29 -30 -44q-88 -32 -128 -14q-35 16 -46 64q-8 40 0 82q0 1 1.5 12t2.5 18q16 92 17 96q12 64 6.5 78t-30.5 14q-57 -10 -130 -10q-130 0 -253 59t-175 154q-55 100 -55 209q0 126 65 259q64 131 162 235q97 101 211 179
q115 78 215 109q15 5 34 8.5t31 5.5t15 4q13 7 26 62q36 129 37 144q7 50 103 67q96 18 129 -20q25 -28 -19 -78q-13 -14 -32 -62q-129 -254 -111 -485q0 -4 6.5 -29t7.5 -34q2 -16 -7.5 -32t-31.5 -24q-126 -39 -155 21q-15 32 -19 71v23q-2 12 21 111q14 57 7 61t-69 -25z
" />
    <glyph glyph-name="uniE019" unicode="&#xe019;" horiz-adv-x="882" 
d="M932 1667q6 -35 -28 -104q-18 -35 -25 -52q-7 -18 -39 -155q-68 -262 -113 -572q49 -10 71 -55q21 -45 -4 -85q-26 -41 -94 -36q-53 -408 -59 -686q0 -16 8 -82q7 -62 3 -105t-34 -69q-38 -34 -84 -38t-69 20q-51 27 -36 112q4 26 13 66q9 46 15 84q20 114 98 729
q-116 12 -291 8q-42 -275 -43 -549q0 -21 10 -77q9 -62 5 -102q-4 -42 -33 -66q-38 -32 -84.5 -37t-69.5 16q-50 27 -38 108q4 24 13 64q8 42 15 80q14 98 20 137q12 95 54 381q-72 110 22 174l17 133q10 80 32 214q19 120 27 185q7 62 6 78q-12 85 28 119q41 35 103 29
q68 -6 104 -40q11 -11 8 -36q-3 -28 -7 -39q-8 -23 -20 -50q-20 -43 -21 -46q-5 -12 -39 -149q-58 -237 -86 -394q81 -12 286 -4q32 246 41 307q11 78 35 225q21 123 30 191q9 62 7 80q-14 101 44 135q59 35 126 14q69 -23 76 -61z" />
    <glyph glyph-name="uniE01A" unicode="&#xe01a;" horiz-adv-x="395" 
d="M340 1042q-4 -5 -31 -88q-129 -409 -110 -751q0 -11 13 -53q13 -43 10 -73t-29 -44q-52 -28 -88 -26t-52 27q-15 20 -26 54q-6 18 -7 39t1 43t2 25q0 1 1 4t2 8.5t1 13.5q91 511 116 770q2 5 -4 14t-6 11q11 122 66 153q43 25 91 20t67 -40t-17 -107z" />
    <glyph glyph-name="uniE01B" unicode="&#xe01b;" horiz-adv-x="702" 
d="M745 1667q6 -34 -28 -105q-17 -32 -23 -51q-9 -21 -41 -155q-5 -14 -16 -68q-13 -60 -23 -100q-2 -6 -4.5 -14.5t-3 -11t-0.5 -7t2.5 -5.5t6.5 -3t12 -4q107 -33 39 -158q-20 -35 -74 -22q-1 0 -3 1t-3 1q-14 2 -17 -4v-9q-2 -10 -2 -14q-101 -568 -112 -1016
q0 -16 8 -82q7 -62 3 -105t-34 -69q-38 -34 -84 -38t-69 20q-25 23 -33 38.5t-6 43.5q0 7 1 13.5l2 13t1 9.5q0 4 10 52q3 14 7 33.5t5 25.5q8 51 0 107q-20 123 -45 237q-84 416 -190 748q-12 38 25 113q36 75 77 63q15 0 27 -2q33 -7 190 0q44 2 47 2q32 -2 36 5
q6 10 13 52q1 4 3 10q17 116 30 195q4 19 -16 50q-21 29 -19 42q0 5 18 52q6 18 19 51t15 38q16 43 18 43q26 41 79 48q53 6 100 -14q46 -21 52 -50zM344 444q13 112 34 266q18 142 28 205q12 60 8 68q-4 7 -58 6q-29 0 -102 -4q-34 -2 -40.5 -31.5t5.5 -74.5
q17 -138 88 -447q3 -13 4 -20q14 -68 19 -68q1 0 6 41q7 52 8 59z" />
    <glyph glyph-name="uniE01C" unicode="&#xe01c;" horiz-adv-x="997" 
d="M510 1667q7 -37 -26 -105q-16 -31 -25 -51q-9 -21 -41 -155q-49 -200 -90 -434q-12 -72 -8 -73q3 -1 65 38q394 245 444 295q52 51 129 4q66 -40 64 -99q-4 -59 -96 -75q-6 -1 -88 -37q-214 -89 -394 -211q-63 -40 -63 -43q0 -1 1.5 -2t5.5 -2t10 -2t14 -1.5t18 -0.5h12
q328 -12 410 2q54 10 89 -34t30 -97q0 -17 -10 -37q-13 -25 -35 -33q-17 -11 -35 -16q-23 -13 -47 -31l-29 -21q-28 -20 -66.5 -47t-52.5 -37q-17 -12 -42.5 -36.5t-29.5 -27.5q-11 -8 -30 -35q-5 -7 -11 -15.5t-9.5 -13t-5.5 -7.5t-6.5 -9.5t-12.5 -19t-15 -22.5
q-13 -18 -40 -59q-3 -4 -20 -46q-16 -39 -36 -62q-19 -23 -51 -17q-66 9 -93 42t-11 72q29 76 69 111q4 3 310 303q30 31 27.5 38t-44.5 11q-152 18 -317 -10q-54 -11 -58 -18q0 -2 -6 -56q-39 -297 -45 -563q0 -20 9 -82q8 -62 3 -105q-6 -44 -34 -69q-38 -34 -84.5 -38
t-69.5 20q-51 27 -36 112q4 26 13 66q9 46 15 84q13 76 45 311q4 39 18 138q11 81 19 153q-11 4 -25 18q-95 133 51 179q2 12 9 61.5t18.5 134.5t24.5 178q12 101 33 225q24 153 29 190q9 62 7 81q-14 101 46 135q59 35 126 14q67 -23 74 -61z" />
    <glyph glyph-name="uniE01D" unicode="&#xe01d;" horiz-adv-x="671" 
d="M469 1667q7 -37 -26 -105q-16 -31 -25 -51q-15 -37 -26 -93q-13 -55 -15 -62q-103 -434 -129 -813q-2 -28 -6 -68q-6 -54 -2 -55q6 0 26 35q4 4 23 37q67 117 102 180q1 3 -1 13.5t-1 12.5q57 110 121 117q82 12 125 -43t-43 -129q-162 -123 -330 -532q-4 -12 -9 -54
q-4 -41 -17 -71q-14 -28 -43 -29q-29 -5 -43 -4.5t-35 4t-28 3.5q-19 2 -31 13q-3 3 -9.5 9t-8.5 8.5t-5.5 7.5t-5 10.5t-2.5 12.5q-4 30 1 70q3 22 6 40q17 88 17 90q38 226 110 754q73 547 66 604q-13 101 45 135q59 35 125 14q67 -23 74 -61z" />
    <glyph glyph-name="uniE01E" unicode="&#xe01e;" horiz-adv-x="1150" 
d="M340 1118q-5 -8 -31 -84q-40 -167 -65 -329q-7 -43 -13.5 -82t-8.5 -53l-3 -15q1 -7 12 12q10 16 54 109q71 154 82 180q23 46 40 97q19 56 39 91q28 46 80.5 54.5t135.5 -11.5q48 -10 67 -48q2 -5 2 -14t-1 -18.5t-1 -11.5q0 -8 -4 -20l-4 -14q-36 -167 -59 -379
q142 381 204 501q17 32 39 94q22 60 43 93q26 44 79 53t134 -10q41 -8 59.5 -34t14.5 -53q-5 -26 -14 -40q-75 -119 -121 -418q-47 -306 -56 -559q0 -7 3.5 -46.5t3.5 -52.5q0 -20 -5 -45q-12 -48 -88 -42q-51 4 -85 43q-35 38 -21 94q61 208 111 674q1 32 12 94q12 74 6 76
q-2 1 -6.5 -4t-11.5 -15l-3 -6t-4.5 -8t-5.5 -8q-71 -133 -171 -367q-97 -230 -126 -365q0 -4 1 -16t1 -14q-2 -47 -59 -62q-57 -17 -105 15q-49 30 -30 94q11 39 42 240q31 199 36 305q1 24 -3 34.5t-14 8.5q-17 -1 -45 -52q-227 -399 -270 -649q27 -100 -17 -117
q-52 -14 -87.5 -13.5t-52.5 22.5q-19 22 -28 43q-15 30 -8 105q1 17 6 34q0 6 3 12q139 885 127 969q-12 70 63 86q73 16 123 -29q55 -49 4 -129z" />
    <glyph glyph-name="uniE01F" unicode="&#xe01f;" horiz-adv-x="796" 
d="M336 1042q-4 -5 -31 -88q-71 -223 -100 -460q-10 -90 -4 -93q2 0 22 41q5 9 14 25t13 22q274 515 301 594q17 50 68 79q50 30 102 28q57 1 82 -34q24 -36 -15 -114q-7 -12 -12.5 -29t-10.5 -38l-5 -21q-133 -408 -111 -751q0 -12 13 -52q12 -42 9 -73q-3 -32 -30 -45
q-61 -33 -101.5 -24t-52.5 49q-31 99 -16 137q13 58 86 524q12 83 10 87q-1 3 -7 -7q-2 -2 -3 -4q-2 0 -39 -64q-173 -291 -250 -528q-4 -9 -7 -52t-16 -73q-13 -31 -46 -45q-48 -21 -82 -25h-23q-55 7 -69 73q-15 63 -7 114l2 9q3 9 3 17q129 737 122 862q-4 70 74 99
q73 25 119 -13q48 -41 -2 -127z" />
    <glyph glyph-name="uniE020" unicode="&#xe020;" horiz-adv-x="727" 
d="M129 143q-37 38 -55 78q-76 146 -37 418q27 172 130 338t230 178q110 12 211 -74q99 -85 97 -219q-17 -454 -175 -678q-68 -96 -191 -110q-125 -15 -210 69zM352 946q-111 -112 -153 -332q-17 -98 -18 -186q-3 -88 30 -148q33 -61 95 -61q61 0 112 76q67 98 97.5 267
t25.5 284q-7 112 -62 144q-55 30 -127 -44z" />
    <glyph glyph-name="uniE021" unicode="&#xe021;" horiz-adv-x="956" 
d="M408 1059q6 -35 -27 -106l-25 -50q-7 -18 -39 -155q-43 -169 -67 -314q-14 -92 -13 -124q1 -29 4 -30t13 4q16 9 22 15q27 27 38 37q20 19 48 47q165 157 281 274q9 9 47 45q47 44 46 57q-2 14 -50 64q-5 6 -12.5 14.5t-9.5 10.5q-122 124 -294 294t-198 189
q-42 42 -60 123q-10 43 20.5 77.5t96.5 43.5q29 4 49 -17t37 -66q16 -45 19 -50q55 -81 245 -268q198 -195 334 -310q30 -30 19 -109q-11 -82 -37 -116q-13 -17 -55 -39q-88 -46 -307 -255q-224 -212 -281 -298q-7 -8 -14 -29q0 -50 -2 -94q0 -16 8 -82q8 -62 3 -105
q-4 -43 -34 -71q-37 -33 -83 -37q-45 -4 -71 19q-39 30 -39 69q0 22 5 44q1 6 13 66q10 51 15 83q0 8 4 33q-59 51 19 163q6 44 12 115q76 717 76 752q-14 101 44 135q59 35 125 13q67 -22 75 -62z" />
    <glyph glyph-name="uniE022" unicode="&#xe022;" horiz-adv-x="727" 
d="M127 143q-31 31 -57 78q-76 146 -35 416q26 170 129 338t229 180q111 10 213 -76q99 -85 94 -219q-12 -446 -172 -678q-33 -45 -73.5 -69.5t-70.5 -25.5q-63 -2 -67 -89q-4 -75 2 -205q0 -7 12 -45q10 -37 9 -64q-2 -26 -27 -38q-113 -65 -146 48q-5 16 -6 34.5t1 37.5
t2 21q-1 2 4.5 37t15.5 95t15 106q6 22 6 39t-3 24.5t-7 8.5q-7 1 -28.5 14.5t-39.5 31.5zM418 451q-2 -1 -27 -78q-45 -141 -20 -140q17 0 63 91q56 102 84 264t21 256q-11 112 -63 144q-54 30 -126 -44q-113 -118 -155 -332q-31 -155 -11 -268q37 -178 58 8q10 103 8 135
q-4 63 69 88q70 19 107 -18q33 -34 -8 -106z" />
    <glyph glyph-name="uniE023" unicode="&#xe023;" horiz-adv-x="1085" 
d="M522 1667q6 -35 -28 -104q-18 -35 -25 -52q-7 -18 -39 -155q-31 -125 -47 -207q89 -4 321 -2q206 1 273 8q45 5 75 -60q28 -65 9 -132q-21 -69 -96 -70q-125 -6 -365 -133q-68 -35 -68 -37q0 -4 68 -6q274 -4 332 8q72 14 110 -66q37 -72 0 -118q-38 -47 -122 -13
q-112 46 -280 50q-165 4 -286 -25q-50 -12 -64 -26q-14 -15 -18 -64q-37 -286 -43 -541q0 -20 10 -81q9 -64 3 -107q-6 -42 -35 -68q-38 -34 -83.5 -38t-68.5 20q-52 27 -35 112q3 20 12 66t15 84q4 22 43 311q20 145 96 731q-4 4 -6 9q-90 123 31 169q13 98 31 203
q20 129 28 173q9 57 6 73q-14 101 45 135q59 35 126 14q68 -23 75 -61zM344 948q-5 -50 -18 -102q-9 -45 -11 -63q-2 -9 2 -12q2 0 3 -1q2 0 61 29q150 66 358 168q7 3 25 12q32 15 32 18q0 2 -10 2q-12 2 -41 5h-2h-2h-2h-4q-167 8 -332 -17q-10 -2 -21.5 -3.5t-16 -2
t-10 -4t-8 -10t-3.5 -19.5z" />
    <glyph glyph-name="uniE024" unicode="&#xe024;" horiz-adv-x="786" 
d="M705 895q1 -11 12 -40q10 -28 7 -45t-30 -32q-119 -60 -148 56q-5 17 -6 35.5t1 37t2 21.5q9 27 8 49t-19 47q-31 44 -83 40q-50 -4 -99 -31q-47 -27 -80 -62q-47 -52 -49 -97.5t38 -74.5q35 -30 97 -66q27 -16 74.5 -40.5t85.5 -47t69 -48.5q53 -43 72 -93
q46 -139 3 -254q-43 -114 -146 -188t-215 -74q-170 0 -248 172q-14 34 -20 61q-29 119 22 231q51 110 137 115q48 2 82 -34q35 -38 29 -82q-6 -45 -59 -60q-59 -17 -80 -77q-21 -61 5 -121q25 -59 81 -70q63 -11 138 39q76 50 116 130q40 81 12 150q-18 42 -83 85
q-62 40 -137 73q-70 32 -138 84q-67 52 -90 116q-23 63 8 169q52 140 203 211q148 69 274 22q11 -4 27 -12q13 -6 15.5 -3t6.5 27q1 6 2.5 15.5t1.5 13.5q8 77 6 96q-2 64 68 86q70 19 106 -18q37 -38 -4 -109q-33 -53 -56 -184q-23 -135 -19 -219z" />
    <glyph glyph-name="uniE025" unicode="&#xe025;" horiz-adv-x="757" 
d="M672 948q-119 38 -371 21q-154 -562 -100 -742q31 -103 139 -39q100 58 166 195q49 102 61 215q0 1 -0.5 5t-1 11t-0.5 15q-2 33 -1 45q1 20 20 35.5t53 13.5q74 -5 92 -72q16 -55 -4 -121q-10 -105 -57 -215q-46 -109 -111 -180q-94 -100 -186 -127q-62 -16 -151 5
q-87 19 -132 61q-46 45 -63 147q-35 243 100 735q-45 26 -26 85q18 58 71 69l10 29q4 12 9 71q4 58 27 88q23 29 83 29q79 0 90 -47q4 -40 1 -55t-18 -42q-14 -25 -20 -40l-12 -41q316 17 334 22q80 20 110 -51q27 -63 -12 -108q-34 -37 -100 -17z" />
    <glyph glyph-name="uniE026" unicode="&#xe026;" horiz-adv-x="735" 
d="M461 416q-140 -297 -189 -377q-32 -46 -129 -28q-98 17 -110 55q-17 50 -19 155q0 118 23 313q23 191 48 356q27 177 28 191q4 43 14 67.5t38 46.5q31 25 81 26q63 2 89.5 -30.5t20.5 -86.5q-4 -38 -36 -81q-33 -44 -44 -73q-46 -146 -78 -375q-32 -234 -26 -339
q0 -47 16 -45q4 1 8 5q15 15 31 44q234 434 262 718q11 101 55 126q44 26 165 24q41 0 61.5 -23.5t17.5 -51.5q-4 -24 -12 -44q-62 -123 -96 -387t-27 -399q0 -14 13 -53q12 -39 10 -72q-1 -31 -29 -45q-52 -28 -88 -26t-52 27q-16 24 -26 54q-7 18 -8.5 38.5t0.5 43.5t2 25
q6 21 45 262q13 82 4 82q-8 -2 -41 -76q-11 -28 -22 -47z" />
    <glyph glyph-name="uniE027" unicode="&#xe027;" horiz-adv-x="628" 
d="M213 1063q-8 -25 -11 -57q-3 -34 -3 -37q-43 -313 -2 -604q14 -104 20 -106q2 -1 7.5 8.5t15 30.5t22.5 52q115 277 148 623q7 82 6 94q-12 112 61 119q62 8 111 -49q47 -53 20 -109q-54 -110 -235 -866q-13 -60 -47 -92q-33 -29 -83 -41q-50 -13 -93 -8q-41 5 -54 16
q-43 37 -43 133q0 13 -2 51q-7 745 -33 846q-17 72 62 113q70 37 117 4q49 -33 16 -121z" />
    <glyph glyph-name="uniE028" unicode="&#xe028;" horiz-adv-x="1036" 
d="M86 20q-38 0 -55 17t-17 43q0 29 3 43q3 13 3 16q1 6 5.5 35t7.5 47q24 210 44 465q21 263 19 393q0 53 72 76q78 23 113 -18q25 -26 8 -74q-29 -85 -62 -333q-35 -250 -39 -390q-1 -66 11 -66q14 0 45 88q28 72 66 203q37 134 60 223q24 100 25 109q8 47 24.5 63
t67.5 15q85 -7 103 -14q100 -37 49 -179q-46 -126 -86 -366q-21 -124 -8 -217q12 -95 67 -105q79 -14 140 127q61 140 85 331q23 192 1 325q-3 37 -17 63.5t-34.5 53.5t-30.5 50q-23 54 13 88q36 35 93 32t82 -42q20 -26 36 -90q8 -29 9 -37q25 -90 28 -225t-31 -281
q-34 -149 -84 -273q-49 -122 -130 -199q-79 -76 -170 -62q-291 45 -178 549q14 63 33 129q1 3 2 8l4 31q-1 -1 -6 -13q-50 -114 -103 -326q-52 -210 -86 -270q-12 -24 -35 -33q-26 -10 -48 -11q-28 -1 -64 0q-17 1 -35 1z" />
    <glyph glyph-name="uniE029" unicode="&#xe029;" horiz-adv-x="780" 
d="M702 952q-18 -16 -61 -73q-53 -65 -125 -166q-41 -57 -42 -67q-1 -9 22 -77q37 -110 58 -167q39 -113 49 -140q19 -57 20 -59q19 -55 8 -134q-6 -44 -46 -63t-106 -2q-28 8 -36 35t-2 75q5 48 5 54q-12 112 -51 254q-1 8 -8 27q-6 25 -9 31t-6.5 2.5t-13.5 -21.5l-6 -10
l-5.5 -11t-4.5 -10q-67 -130 -111 -254q-3 -7 -8 -54q-5 -44 -18 -71q-14 -27 -45 -35q-69 -12 -104.5 9.5t-30.5 64.5q10 88 38 131q31 50 117 195q51 86 96 162q4 6 10.5 17.5t11.5 19t7 9.5t4 8t3 12l2 6q1 1 -3 14.5t-6 18.5q-3 8 -12 28q-31 71 -78 159q-1 1 -17 32.5
t-28 45.5q-74 84 -8 135q54 43 127 23q59 -18 65 -74q5 -44 35 -135q20 -74 25 -74q4 0 43 68q73 128 84 158q26 72 110 71q78 0 103 -49q26 -53 -52 -119z" />
    <glyph glyph-name="uniE02A" unicode="&#xe02a;" horiz-adv-x="829" 
d="M346 1042q-8 -15 -19 -50.5t-12 -37.5q-71 -223 -100 -460q-11 -88 -6 -93q3 0 10 13l17 32q4 8 11.5 22.5t10.5 20.5q279 521 303 594q17 50 68 79q50 30 102 28q57 2 81 -34t-13 -114q-4 -5 -31 -88q-60 -194 -137 -733q-78 -564 -70 -731q1 -7 7.5 -52t6.5 -56
q0 -16 -6 -39q-11 -38 -104 -52q-82 -13 -105 29q-24 42 -18 96q6 52 23 116q10 44 10 48q131 717 190 1139q0 1 1.5 10t2.5 16q10 61 6 61q-2 0 -20 -30l-14 -22q-2 -3 -6.5 -11.5t-6.5 -11.5q-35 -57 -76 -140q-49 -100 -58 -120q-23 -47 -60 -136q-42 -99 -49 -114
q-9 -23 -13 -65q-6 -46 -18 -77q-12 -33 -45 -46q-48 -21 -82 -25h-23q-55 7 -70 74q-16 63 -5 113q29 162 76 464q55 355 51 424q-4 70 73 99q73 25 119 -13q48 -41 -2 -127z" />
    <glyph glyph-name="uniE02B" unicode="&#xe02b;" 
d="M887 1147q45 5 53 -21q57 -174 -59 -231q-54 -26 -209 -180l-55 -55q-15 -15 -17 -21q-5 -14 12 -36q3 -3 4 -5q4 -4 52 -61q11 -14 39 -49l40 -50q4 -4 71 -97q84 -118 59 -157q-50 -96 -68 -114q-42 -46 -68 -54q-7 -2 -39 0q-42 2 -51 2q-47 1 -166 11q-133 9 -166 10
q-57 1 -165 -6q-8 -2 -21 -2h-10q-63 -12 -76 18q-59 111 2 172q2 2 24 20t25 21q4 4 75 84q124 140 153 172q74 82 180 206q23 27 58 68t59.5 69t42.5 50q2 2 8 9.5t10 13.5q31 37 30 42t-36 5h-49q-243 8 -330 -4q-22 -2 -34 -16t-5 -25q1 -1 6.5 -10t12.5 -20.5t11 -16.5
q7 -10 23 -22.5t31 -18.5q29 -17 13 -55q-17 -40 -48 -62q-27 -22 -76 -12t-61 55q-1 3 -39 64q-37 58 -37 106q0 46 67 116q65 70 87 73q69 4 321 1q246 -3 316 13zM346 197q79 -11 285 -19q60 -4 73.5 11.5t-10.5 64.5q-32 58 -184 238q-13 15 -19 17.5t-12.5 -3.5
t-21.5 -27q-17 -25 -33 -43q-59 -74 -109 -141q-40 -55 -49 -68q-8 -13 -7 -18q1 -4 10 -5.5t32.5 -2.5t44.5 -4z" />
    <glyph glyph-name="uniE02C" unicode="&#xe02c;" horiz-adv-x="1540" 
d="M539 1055q-64 -75 -186 -91q-123 -18 -214 35q-33 18 -59 50q-80 98 -53 288q18 120 117 245q97 123 225 140q111 13 214 -39t103 -145q4 -314 -147 -483zM313 1063q80 6 136 98q54 89 71 193q15 99 4 162q-12 80 -67 96q-56 17 -125 -39q-109 -85 -142 -242
q-27 -112 2 -193t121 -75zM1505 287q5 -315 -147 -486q-63 -72 -186 -90q-122 -18 -214 35q-35 24 -59 51q-83 98 -51 287q16 121 115 245q97 124 225 142q111 13 214 -39t103 -145zM1133 -188q79 6 135 98q54 89 71 193q15 98 4 161q-12 78 -67 96q-56 17 -125 -38
q-109 -91 -141 -242q-27 -115 2 -195q28 -79 121 -73zM1120 1460q-8 -11 -67 -139q-140 -298 -278 -670q-139 -369 -218 -657q-5 -18 -12 -81q-7 -58 -22 -103q-15 -38 -44 -58q-42 -22 -72.5 -16.5t-48.5 33.5q-13 22 -16 35.5t2 39.5q5 21 14 41q2 4 10.5 24.5t15.5 36.5
q6 13 32 77q3 8 11.5 31.5t28 74.5t36.5 98q44 115 153 417q148 408 170 466q31 83 80 208q54 139 68 175q23 59 24 78q12 84 84 117q66 33 98 -15q45 -62 -49 -213z" />
    <glyph glyph-name="null" horiz-adv-x="0" 
 />
    </font>
</defs>
</svg>
